<?xml version="1.0" encoding="utf-8"?>
<!-- Generator: Adobe Illustrator 26.5.0, SVG Export Plug-In . SVG Version: 6.00 Build 0)  -->
<svg version="1.1" id="Layer_1" xmlns="http://www.w3.org/2000/svg" xmlns:xlink="http://www.w3.org/1999/xlink" x="0px" y="0px"
	 viewBox="0 0 345.8 515.9" style="enable-background:new 0 0 345.8 515.9;" xml:space="preserve">
<style type="text/css">
	.st0{fill:#FFFFFF;}
	.st1{fill:#F3D7E8;stroke:#000000;stroke-miterlimit:10;}
	.st2{fill:none;stroke:#662D91;stroke-width:2;stroke-miterlimit:10;}
	.st3{fill:#CE9CC7;stroke:#662D91;stroke-width:10;stroke-miterlimit:10;}
</style>
<path class="st0" d="M19.8,515.9C8.9,515.9,0,507,0,496.1V19.8C0,8.9,8.9,0,19.8,0H326c10.9,0,19.8,8.9,19.8,19.8v476.2
	c0,10.9-8.9,19.8-19.8,19.8H19.8z"/>
<path class="st1" d="M343,496.1c0,9.4-7.6,17-17,17H19.8c-9.4,0-17-7.6-17-17V19.8c0-9.4,7.6-17,17-17H326c9.4,0,17,7.6,17,17V496.1
	z"/>
<path class="st2" d="M343,496.1c0,9.4-7.6,17-17,17H19.8c-9.4,0-17-7.6-17-17V19.8c0-9.4,7.6-17,17-17H326c9.4,0,17,7.6,17,17V496.1
	z"/>
<path class="st2" d="M19.8,507.4c-6.3,0-11.3-5.1-11.3-11.3V19.8c0-6.3,5.1-11.3,11.3-11.3H326c6.3,0,11.3,5.1,11.3,11.3v476.2
	c0,6.3-5.1,11.3-11.3,11.3H19.8z"/>
<g>
	<path class="st3" d="M155.1,333.2c-0.1-4.7-0.2-8.2-0.2-10.6c0-13.8,2-25.8,5.9-35.8c2.9-7.6,7.5-15.2,13.9-22.9
		c4.7-5.6,13.1-13.8,25.3-24.6c12.2-10.8,20.1-19.3,23.8-25.7c3.7-6.4,5.5-13.4,5.5-20.9c0-13.7-5.4-25.7-16.1-36.1
		c-10.7-10.4-23.8-15.6-39.3-15.6c-15,0-27.5,4.7-37.6,14.1c-10,9.4-16.6,24.1-19.8,44l-36.2-4.3c3.3-26.7,12.9-47.2,29.1-61.5
		c16.1-14.2,37.4-21.3,63.9-21.3c28.1,0,50.4,7.6,67.1,22.9c16.7,15.3,25.1,33.7,25.1,55.4c0,12.5-2.9,24.1-8.8,34.6
		c-5.9,10.6-17.4,23.4-34.4,38.6c-11.5,10.2-19,17.7-22.5,22.5c-3.5,4.8-6.1,10.4-7.8,16.6c-1.7,6.3-2.7,16.4-2.9,30.5H155.1z
		 M152.9,403.9v-40.1h40.1v40.1H152.9z"/>
</g>
</svg>
