<?xml version="1.0" encoding="utf-8"?>
<!-- Generator: Adobe Illustrator 16.0.0, SVG Export Plug-In . SVG Version: 6.00 Build 0)  -->
<!DOCTYPE svg PUBLIC "-//W3C//DTD SVG 1.1//EN" "http://www.w3.org/Graphics/SVG/1.1/DTD/svg11.dtd">
<svg version="1.1" id="Layer_1" xmlns="http://www.w3.org/2000/svg" xmlns:xlink="http://www.w3.org/1999/xlink" x="0px" y="0px"
	 width="345.828px" height="515.799px" viewBox="0 0 345.828 515.799" enable-background="new 0 0 345.828 515.799"
	 xml:space="preserve">
<path fill="#FFFFFF" d="M19.843,515.852C8.902,515.852,0,506.949,0,496.008V19.79C0,8.848,8.902-0.053,19.843-0.053h306.141
	c10.941,0,19.844,8.901,19.844,19.843v476.218c0,10.941-8.902,19.844-19.844,19.844H19.843z"/>
<path fill="#F3D7E8" stroke="#000000" stroke-miterlimit="10" d="M342.992,496.008c0,9.395-7.615,17.008-17.008,17.008H19.843
	c-9.395,0-17.008-7.613-17.008-17.008V19.79c0-9.394,7.613-17.008,17.008-17.008h306.141c9.393,0,17.008,7.614,17.008,17.008
	V496.008z"/>
<g opacity="0.4">
	<path fill="#FFFFFF" d="M337.324,19.793v129.34l-162.77,108.76l161.939-242.36C337.035,16.843,337.324,18.282,337.324,19.793z"/>
	<polygon fill="#FFFFFF" points="224.164,507.345 124.923,507.345 174.544,257.912 	"/>
	<path fill="#FFFFFF" d="M174.544,257.902v0.01L10.843,502.903c-1.469-1.91-2.34-4.309-2.34-6.889v-127.17L174.544,257.902z"/>
	<polygon fill="#FFFFFF" points="174.544,257.893 174.544,257.902 8.503,290.925 8.503,224.873 174.535,257.893 	"/>
	<path fill="#FFFFFF" d="M174.535,257.893L8.503,146.953V19.793c0-2.59,0.871-4.97,2.34-6.88L174.535,257.893z"/>
	<path fill="#FFFFFF" d="M337.324,366.663v129.352c0,1.5-0.299,2.939-0.83,4.26L174.544,257.912v-0.01h0.01L337.324,366.663z"/>
	<polygon fill="#FFFFFF" points="337.324,225.523 337.324,290.274 174.554,257.902 174.554,257.893 	"/>
	<polygon fill="#FFFFFF" points="224.164,8.453 174.544,257.893 124.923,8.453 	"/>
</g>
<g opacity="0.6">
	<path fill-rule="evenodd" clip-rule="evenodd" fill="#A7A9AC" d="M235.447,158.276c-0.09,0.068-0.18,0.139-0.27,0.219
		c-0.07-0.08-0.15-0.18-0.221-0.279C235.117,158.235,235.277,158.254,235.447,158.276z"/>
	<path fill-rule="evenodd" clip-rule="evenodd" fill="#A7A9AC" d="M318.316,249.775c-0.119-3.461-0.34-6.932-0.77-10.361
		c-0.48-3.83-2.24-7.18-4.689-10.24l-0.25-0.5c-1.58-0.799-2.721-1.389-3.43-1.75c-0.201-3.25,0.049-6.299-0.65-9.109
		c-1.51-6.051-4.221-11.42-10.529-13.98c-0.4-0.17-0.711-0.75-0.91-1.199c-0.861-1.971-1.4-4.131-2.541-5.92
		c-2.609-4.109-6.129-7.109-11.25-7.66c-3.01-5.18-7.359-8.57-13.23-10.019c-0.59-0.15-1.209-0.941-1.479-1.57
		c-1.852-4.279-4.971-7.121-9.521-8.041c-1.479-0.299-2.27-0.879-2.92-2.1c-2.74-5.08-6.68-8.709-12.398-10.15
		c-1.461-0.359-2.941-0.689-4.99-1.16l-0.42-0.09c-1.561-0.449-1.98,0.801-2.98-1.43c-1.93-4.33-7.311-8.529-13.17-6.83
		c-1.391,0.4-2.711,1.061-4.09,1.611c-1.84-2.791-4.371-4.551-7.721-4.881c-3.27-0.33-6.119,0.91-8.27,2.471
		c-1.529-1.59-2.66-3.451-4.311-4.32c-2.061-1.09-4.51-1.689-6.85-1.92c-4.57-0.471-8.91,0.969-13.221,2.311
		c-1.76-2.041-4.219-2.58-6.67-3.121l-1.15-0.01c-1.969-0.18-3.93-0.461-5.908-0.52c-7.5-0.25-14.881,0.32-21.33,4.68
		c-2.42,1.629-4.5,3.77-6.4,5.391c-2.84-0.33-5.541-1.031-8.18-0.871c-6.621,0.41-12.83,2.42-18.32,6.189
		c-1.701,1.16-3.32,1.682-5.32,1.541c-5.24-0.35-10,1.24-13.881,4.629c-4.369,3.82-8.35,8.102-12.51,12.17
		c-0.379,0.381-0.76,1.012-1.18,1.051c-2.58,0.221-4.01,1.961-5.449,3.791c-0.391,0.5-0.951,0.988-1.531,1.209
		c-5.379,2.061-10.17,5.08-14.52,8.779c-4.41,3.73-8.25,7.83-7.131,14.371c-3.77,1.51-6.389,4.119-7.119,8.02
		c-0.66,3.49-0.75,7.09-1.041,10.65c-0.059,0.709,0.381,1.561,0.131,2.15c-0.82,1.9-1.859,3.709-2.961,5.859l-1.219,2.32
		c-1.43,2.77-2.83,5.6-3.83,8.549c-2.359,6.932-2.34,13.701,2.16,19.951c0.26,0.369,0.199,1.029,0.16,1.549
		c-0.271,3-0.871,6.012-0.82,9c0.08,4.801,3.129,7.641,7.959,7.971c3.111,0.221,6.041,0.59,8.34,3.26c1.74,2,4.461,2.52,7.002,2.23
		c2.09-0.24,3.25,0.619,4.549,1.949c3.74,3.871,7.99,6.611,13.75,5.971c1.031-0.109,2.271,0.189,3.18,0.721
		c5.811,3.389,13.012,2.24,17.371-2.9c0.209,0.9,0.289,1.859,0.66,2.68c0.609,1.301,0.879,2.52,0.66,4.02
		c-0.641,4.141,0.209,7.881,3.689,10.67c5.74,4.602,11.9,6.271,18.881,2.941c2.148-1.041,2.199-0.98,2.879,1.189
		c2.07,6.641,9.721,11.709,15.18,10.83c3.051-0.49,6.201-1.26,8.92-2.631c2.83-1.439,5.352-1.209,8.08-0.35
		c0.59,0.721,1.191,1.43,1.781,2.15c4.26,5.15,8.84,9.891,15.289,12.34c2.061,0.779,4.08,1.67,6.211,2.539
		c-5.031,6.682-3.381,13.301,0.389,19.941c0.67,1.129,1.111,1.41,1.43,1.82c3.561,4.709,7.932,8.568,12.701,11.949
		c5.08,3.59,8.67,8.039,9.6,14.359c0.189,1.33,0.5,2.67,0.949,3.93c0.211,0.58,0.891,0.98,1.352,1.471
		c0.199-0.67,0.639-1.359,0.57-2c-0.16-1.33-0.621-2.629-0.881-3.959c-0.25-1.301-0.58-2.551-1-3.74c0,0,1.859-4.57,6.311-7.09
		c0.809,1.898,1.43,3.889,1.959,5.93c0.621,2.43,1.09,4.91,1.711,7.34c0.109,0.41,0.66,0.709,1,1.061
		c0.1-0.42,0.35-0.861,0.279-1.23c-0.529-2.471-1.1-4.92-1.709-7.361c-0.551-2.17-1.211-4.289-2.08-6.318
		c2.209-0.971,4.969-1.4,8.33-0.682c0.979,4.012,1.959,8.031,2.959,12.041c0.121,0.5,0.57,0.93,0.859,1.391
		c0.121-0.58,0.461-1.221,0.34-1.74c-0.898-3.77-1.77-7.541-2.658-11.301c1.76,0.531,3.658,1.359,5.729,2.58
		c0.771,2.65,1.68,5.27,2.701,7.859c0.16,0.432,1,0.602,1.51,0.881c0.119-0.52,0.311-1.039,0.33-1.57
		c0.01-0.35-0.18-0.709-0.33-1.049c-3.41-7.811-4.451-16.102-5.041-24.5c-0.26-3.801-0.939-7.592-1.629-11.352
		c-0.77-4.27-3.041-7.889-5.461-11.41c1.76-0.379,3.021,0.15,4.01,1.781c0.951,1.58,2.201,2.99,3.381,4.43
		c3.52,4.311,7.619,7.84,13.279,8.891c3.15,0.58,6.352,0.91,9.531,1.299c7.35,0.9,14.66,0.26,21.639-1.98
		c13.83-4.439,24.432-12.549,28.691-27.209c0.43-1.49,0.83-2.99,1.24-4.49c0.219-0.119,0.85-4.66,1.068-4.779
		c7.971-4.57,10.84-11.08,8.58-20.35c-0.57-2.352-1.729-4.561-2.619-6.83c2.279-0.92,4.27-2.182,5.699-4.291
		c3.66-5.4,5.141-11.48,5.49-17.859C318.517,257.744,318.437,253.744,318.316,249.775z M235.177,158.495
		c-0.07-0.08-0.15-0.18-0.221-0.279c0.16,0.02,0.32,0.039,0.49,0.061C235.357,158.344,235.267,158.415,235.177,158.495z"/>
</g>
<g>
	<path fill-rule="evenodd" clip-rule="evenodd" fill="#6D6E71" stroke="#6D6E71" stroke-miterlimit="10" d="M170.943,201.91v0.012
		c0.049-0.004,0.098-0.004,0.146-0.004C171.041,201.918,170.992,201.916,170.943,201.91z"/>
	<path fill="#6D6E71" stroke="#6D6E71" stroke-miterlimit="10" d="M170.943,201.922c0-0.004,0-0.006,0-0.012"/>
	<path fill-rule="evenodd" clip-rule="evenodd" fill="#6D6E71" stroke="#6D6E71" stroke-miterlimit="10" d="M214.175,386.852
		c-0.344-0.346-0.889-0.641-0.996-1.051c-0.623-2.436-1.098-4.91-1.717-7.344c-1.285-5.055-3.24-9.793-6.953-13.65
		c0.143-0.188,0.279-0.373,0.422-0.564c0.627,0.406,1.398,0.688,1.852,1.236c3.09,3.736,4.793,8.15,5.965,12.791
		c0.609,2.439,1.176,4.889,1.703,7.352C214.529,385.994,214.277,386.439,214.175,386.852z"/>
	<path fill-rule="evenodd" clip-rule="evenodd" fill="#6D6E71" stroke="#6D6E71" stroke-miterlimit="10" d="M235.441,158.274
		c-0.086,0.074-0.176,0.148-0.262,0.223c-0.076-0.084-0.156-0.182-0.223-0.279C235.117,158.237,235.277,158.254,235.441,158.274z"/>
	<path fill-rule="evenodd" clip-rule="evenodd" fill="#6D6E71" stroke="#6D6E71" stroke-miterlimit="10" d="M318.31,249.781
		c-0.113-3.465-0.338-6.932-0.766-10.369c-0.477-3.826-2.238-7.178-4.693-10.232l-0.246-0.508c-1.582-0.801-2.725-1.383-3.428-1.74
		c-0.199-3.25,0.051-6.301-0.65-9.113c-1.51-6.049-4.227-11.42-10.531-13.984c-0.402-0.166-0.711-0.744-0.908-1.195
		c-0.863-1.971-1.404-4.133-2.541-5.92c-2.615-4.111-6.133-7.113-11.248-7.662c-3.014-5.182-7.363-8.568-13.229-10.023
		c-0.598-0.15-1.213-0.932-1.482-1.566c-1.852-4.275-4.973-7.119-9.518-8.043c-1.484-0.299-2.277-0.877-2.928-2.094
		c-2.734-5.08-6.678-8.713-12.398-10.154c-1.461-0.363-2.934-0.686-4.99-1.164l-0.422-0.08c-1.559-0.457-1.977,0.793-2.973-1.43
		c-1.938-4.334-7.314-8.535-13.174-6.834c-1.393,0.402-2.713,1.061-4.094,1.607c-1.836-2.789-4.363-4.551-7.717-4.883
		c-3.266-0.324-6.115,0.914-8.271,2.477c-1.527-1.592-2.66-3.451-4.309-4.324c-2.055-1.088-4.51-1.686-6.85-1.924
		c-4.568-0.467-8.91,0.973-13.219,2.316c-1.762-2.037-4.221-2.578-6.674-3.125v2.244c0.779,0.143,1.592,0.191,2.342,0.438
		c3.451,1.145,4.219,3.994,1.762,6.73c-1.277,1.42-2.73,2.676-4.104,4.008l-1.201,1.121c-2.537,1.973-5.074,3.949-7.645,5.945
		c-1.758-3.525-4.961-4.514-8.453-4.789c-2.287-0.18-4.604-0.113-6.893,0.021c-0.568,0.033-1.09,0.768-1.631,1.18
		c0.574,0.316,1.137,0.879,1.723,0.908c2.529,0.121,5.074-0.07,7.592,0.131c4.824,0.385,6.33,2.861,6.699,7.32
		c0.404,4.869-1.82,8.912-4.797,12.475c-1.846,2.209-3.99,4.264-6.314,5.957c-2.947,2.145-4.559,4.838-5.295,8.346
		c-1.365,6.527-4.744,7.539-9.623,3.02c-0.273-0.252-0.504-0.666-0.818-0.734c-0.477-0.107-1.006,0.023-1.51,0.053
		c0.045,0.492-0.094,1.16,0.176,1.447c0.828,0.889,1.809,1.627,2.994,2.645c-1.711,0.18-3.092,0.324-4.469,0.471
		c-6.027,0.627-9.023-4.666-9.037-9.02c-0.012-3.383,0.502-6.768,0.73-10.154c0.029-0.434-0.27-0.889-0.414-1.336
		c-0.25,0.406-0.68,0.795-0.732,1.227c-0.418,3.605-1.604,4.775-5.236,5.087c-2.063,0.18-3.385-0.879-4.313-2.628
		c-0.193,0.037-0.389,0.072-0.582,0.109c0.061,0.58-0.064,1.275,0.213,1.719c1.088,1.758,3.621,2.469,6.182,1.82
		c0.943-0.238,1.861-0.596,2.994-0.965c-0.451,6.064-0.328,11.861,6.387,15.158c-5.141,4.992-3.734,10.912-2.924,16.762
		c0.297,0.029,0.6,0.059,0.902,0.09c0-1.242,0.176-2.518-0.033-3.727c-0.754-4.391-0.492-8.521,2.705-11.971
		c0.416-0.451,1.148-0.75,1.775-0.844c1.637-0.242,3.297-0.4,4.953-0.465c1.861-0.08,3.727-0.02,5.611-0.02
		c0.406,4.852-0.83,9.068-2.766,13.127c-2.156,4.523-3.535,9.266-3.15,14.293c0.289,3.807,1.113,7.564,1.596,11.357
		c0.295,2.33,0.578,4.689,0.529,7.027c-0.059,3.074-2.365,4.295-5.043,2.865c-0.381-0.207-0.734-0.455-1.111-0.664
		c-1.738-0.967-2.209-0.623-2.393,1.381c-0.539,5.84-2.281,11.014-8.131,13.734c-2.877,1.336-5.918,1.078-8.945,0.918
		c-0.217-0.012-0.498-0.16-0.623-0.336c-1.453-1.992-3.559-2.398-5.842-2.701c-2.627-0.346-4.053-2.703-4.014-6.396
		c0.031-3.627-0.598-7.092-1.906-10.475c-1.877-4.852-5.824-7.15-10.436-8.662c-0.287-0.094-0.666,0.104-1.002,0.172
		c0.174,0.33,0.268,0.793,0.545,0.965c0.563,0.355,1.207,0.607,1.85,0.807c5.443,1.674,8.25,5.793,8.926,11.008
		c0.564,4.35,0.016,8.844-0.063,13.271c-0.02,0.855-0.148,1.703-0.229,2.574c1.238-0.084,1.303-0.166,1.492-1.879
		c0.098-0.904,0.176-1.807,0.318-3.275c1.582,3.045,4.207,3.01,6.508,3.775c-0.357,0.025-0.789-0.064-1.051,0.107
		c-0.359,0.234-0.742,0.646-0.807,1.029c-0.037,0.236,0.453,0.668,0.791,0.832c0.373,0.18,0.848,0.135,1.275,0.209
		c2.459,0.432,2.955,1.377,2.035,3.719c-1.941,4.936-8.801,10.006-13.748,9.482c-1.506-0.16-2.148,0.459-1.832,2.049
		c-6.311,1.066-12.424,1.082-18.264-2.174c-0.088,0.289-0.182,0.584-0.271,0.875c0.521,0.369,1.018,0.785,1.57,1.102
		c0.578,0.334,1.209,0.578,1.885,0.891c-3.385,1.553-6.029,2.455-12.211-1.381c0.172,0.426,0.221,1.021,0.537,1.25
		c4.111,2.959,8.416,3.574,13.039,1.094c0.625-0.34,1.633-0.111,2.436,0.025c4.609,0.799,9.109,0.207,13.566-1
		c0.363,5.992-1.939,9.344-6.273,10.785c-3.637,1.209-6.895,1.467-10.203-0.813c-1.045-0.721-2.521-1.059-3.824-1.119
		c-7.105-0.344-9.049-1.225-13.451-6.195c0.553-2.113,1.127-3.861,1.398-5.66c0.074-0.496-0.734-1.596-1.16-1.607
		c-1.131-0.029-0.988,0.803-0.771,1.723c0.42,1.799-0.98,3.67-2.852,3.838c-3.15,0.279-6.133,0.137-8.482-2.6
		c-1.689-1.969-4.162-2.623-6.711-2.582c-6.809,0.102-8.391-3.855-7.867-9.332c0.156-1.633,0.598-3.242,0.918-4.918
		c1.256,0.424,2.377,0.908,3.543,1.129c0.41,0.078,0.945-0.496,1.418-0.773c-0.336-0.357-0.604-0.914-1.014-1.053
		c-5.045-1.711-6.834-5.777-7.51-10.518c-1.037-7.266,1.877-13.521,5.494-19.93l0.27-0.594c0.787-1.441,1.457-2.682,2.287-4.203
		c0.592,1.635,1.021,3.068,1.652,4.402c0.219,0.459,0.959,0.674,1.457,1c0.139-0.553,0.494-1.15,0.381-1.641
		c-0.801-3.533-2.07-7.004-2.463-10.57c-0.416-3.793,0.094-7.672,2.049-11.113c0.619-1.088,1.611-2.014,2.57-2.859
		c1.291-1.143,2.463-1.574,3.686,0.398c1.1,1.768,3.951,2.156,5.467,1.033c0.346-0.258,0.537-0.918,0.521-1.383
		c-0.008-0.199-0.811-0.617-1.111-0.516c-0.996,0.332-2.07,1.07-2.865-0.049c-0.898-1.268-1.893-2.664-2.18-4.133
		c-0.533-2.697,0.611-5.156,2.35-7.178c4.09-4.764,9.141-8.307,14.725-11.113c0.352-0.178,0.988-0.398,1.146-0.246
		c1.391,1.367,2.129,0.102,2.85-0.722c1.018-1.156,1.836-2.488,2.842-3.66c1.691-1.955,2.574-1.969,4.521-0.357
		c0.238,0.201,0.904,0.266,1.078,0.092c0.299-0.293,0.549-0.854,0.479-1.244c-0.102-0.572-0.5-1.09-1.172-2.008
		c4.305-3.996,8.441-8.199,12.967-11.93c5.637-4.645,12.154-5.316,19.021-3.021c0.291,0.098,0.582,0.295,0.869,0.287
		c0.771-0.021,1.545-0.127,2.316-0.201c-0.533-0.564-0.98-1.25-1.615-1.656c-0.676-0.438-1.521-0.604-2.521-0.971
		c6.789-4.309,13.836-6.746,21.715-6.148c2.9,0.225,5.154,1.877,7.334,3.68c0.869,0.717,1.961,2.428,3.029,1.215
		c1.242-1.412-1.023-1.818-1.668-2.689c-0.566-0.764-1.504-1.256-2.373-1.943c3.238-4.498,7.691-7.068,12.783-8.43
		c5.553-1.484,11.256-1.566,16.959-0.857c0.676,0.08,1.365,0.047,2.049,0.07c0.008-0.635,0.01-1.266,0.018-1.898
		c-1.969-0.18-3.936-0.459-5.908-0.523c-7.502-0.242-14.881,0.324-21.33,4.684c-2.422,1.633-4.502,3.771-6.402,5.389
		c-2.842-0.328-5.539-1.029-8.184-0.865c-6.615,0.406-12.83,2.414-18.32,6.186c-1.701,1.168-3.316,1.678-5.313,1.545
		c-5.24-0.355-10,1.234-13.881,4.629c-4.375,3.822-8.355,8.1-12.516,12.172c-0.381,0.377-0.756,1.012-1.178,1.049
		c-2.578,0.223-4.01,1.961-5.447,3.787c-0.395,0.502-0.951,0.992-1.537,1.215c-5.375,2.053-10.164,5.08-14.518,8.777
		c-4.402,3.734-8.25,7.834-7.125,14.373c-3.775,1.506-6.395,4.117-7.125,8.02c-0.654,3.488-0.748,7.09-1.037,10.645
		c-0.061,0.713,0.379,1.563,0.125,2.146c-0.82,1.906-1.854,3.721-2.957,5.863l-1.219,2.318c-1.434,2.777-2.828,5.604-3.828,8.551
		c-2.357,6.932-2.344,13.699,2.156,19.955c0.264,0.363,0.205,1.033,0.16,1.547c-0.273,3.004-0.865,6.006-0.816,9.002
		c0.08,4.799,3.133,7.639,7.955,7.973c3.111,0.211,6.047,0.59,8.346,3.252c1.734,2.002,4.463,2.525,6.998,2.234
		c2.09-0.24,3.25,0.619,4.549,1.955c3.736,3.869,7.994,6.605,13.754,5.967c1.025-0.115,2.271,0.188,3.174,0.713
		c5.809,3.391,13.012,2.244,17.369-2.891c0.211,0.895,0.291,1.854,0.668,2.676c0.604,1.305,0.879,2.518,0.652,4.023
		c-0.635,4.141,0.213,7.875,3.693,10.666c5.736,4.6,11.9,6.273,18.879,2.936c2.152-1.033,2.205-0.977,2.885,1.199
		c2.066,6.631,9.721,11.701,15.182,10.828c3.047-0.488,6.193-1.258,8.916-2.637c2.83-1.439,5.35-1.209,8.08-0.344
		c0.594,0.715,1.189,1.432,1.783,2.148c4.256,5.15,8.84,9.889,15.287,12.336c2.063,0.785,4.084,1.672,6.211,2.545
		c-5.037,6.676-3.387,13.295,0.387,19.941c0.676,1.129,1.111,1.402,1.43,1.82c3.559,4.709,7.934,8.568,12.705,11.945
		c5.082,3.596,8.672,8.039,9.596,14.357c0.193,1.332,0.504,2.672,0.953,3.938c0.207,0.578,0.885,0.98,1.35,1.465
		c0.203-0.668,0.641-1.361,0.568-1.996c-0.156-1.334-0.625-2.633-0.885-3.961c-1.1-5.678-3.668-10.338-8.414-13.914
		c-4.1-3.092-7.822-6.678-11.674-10.088c-0.738-0.652-1.281-1.521-2.293-2.742l-3.17-4.93c-2.064-4.799-2.65-9.5,0.715-14.008
		c0.615-0.828,1.146-1.385,2.434-0.979c1.625,0.512,3.387,0.66,5.105,0.787c0.508,0.033,1.061-0.545,1.59-0.842
		c-0.467-0.385-0.891-0.863-1.422-1.131c-0.418-0.213-0.967-0.172-1.459-0.236c-6.842-0.906-13.258-3.223-18.809-7.191
		c-3.473-2.484-6.162-6.059-9.201-9.143c1.238-0.023,2.477-0.064,3.715-0.061c7.355,0.029,14-1.791,19.387-7.166
		c0.488-0.488,1.727-0.219,2.619-0.297c1.604,7.035,4.871,12.967,11.15,16.941c3.242,2.053,6.703,3.541,10.449,4.377
		c2.768,2.816,4.721,6.143,6.02,9.852c1.275,3.656,2.686,7.281,3.652,11.02c2.559,9.871,4.906,19.797,7.367,29.695
		c0.127,0.502,0.57,0.932,0.865,1.395c0.121-0.582,0.459-1.221,0.332-1.742c-2.188-9.203-4.264-18.436-6.715-27.564
		c-2.098-7.836-4.191-15.742-9.338-22.334c2.871,0.02,5.734,0.039,8.604,0.053c1.756,3.029,3.92,5.9,5.186,9.125
		c2.447,6.217,2.479,12.947,2.988,19.504c0.551,7.115,2.48,13.801,5.047,20.363c0.168,0.424,1,0.592,1.518,0.879
		c0.119-0.527,0.303-1.047,0.324-1.578c0.016-0.342-0.182-0.705-0.326-1.041c-3.41-7.814-4.449-16.102-5.037-24.508
		c-0.266-3.801-0.945-7.588-1.631-11.344c-0.775-4.275-3.045-7.895-5.469-11.412c1.768-0.377,3.025,0.15,4.012,1.779
		c0.953,1.582,2.203,2.992,3.379,4.432c3.521,4.313,7.621,7.838,13.287,8.891c3.148,0.58,6.346,0.908,9.527,1.301
		c7.352,0.898,14.656,0.254,21.645-1.984c13.83-4.439,24.43-12.553,28.684-27.209c0.432-1.492,0.83-2.992,1.244-4.488
		c0.217-0.119,0.852-4.662,1.072-4.783c7.967-4.572,10.84-11.082,8.578-20.35c-0.57-2.348-1.734-4.557-2.625-6.832
		c2.277-0.922,4.271-2.178,5.699-4.287c3.66-5.402,5.141-11.482,5.496-17.857C318.517,257.744,318.437,253.752,318.31,249.781z
		 M140.613,211.916c1.498-3.779,2.391-7.621,2.439-11.688c0.006-0.66,0.465-1.439,0.947-1.943c1.789-1.869,2.691-4.174,3.055-6.609
		c0.43-2.881,1.965-4.779,4.252-6.395c5.664-4,9.875-9.14,11.58-15.984c0.41-1.641,0.369-3.451,0.23-5.16
		c-0.119-1.436,0.393-2.313,1.463-3.105c1.787-1.326,3.521-2.713,5.281-4.074l1.191-1.098c1.727-1.566,3.492-3.092,5.17-4.711
		c1.775-1.713,2.57-3.838,2.285-6.322c3.48-0.766,6.932-1.773,10.453-2.221c3.027-0.389,6.051,0.273,8.645,2.074
		c2.174,1.51,2.703,4.754,1.32,7.371c-1.826,3.443-6.186,5.111-9.889,3.877c-0.658-0.221-1.453-0.027-2.184-0.023
		c0.262,0.699,0.527,1.398,0.807,2.15c-8.178,4.756-11.277,12.436-10.609,21.766c0.189,2.673,1.6,5.251,2.373,7.896
		c0.182,0.623,0.115,1.352,0.037,2.012c-0.176,1.457-0.695,2.922-0.598,4.35c0.262,3.879-1.82,7.184-6.793,6.547
		c-0.221-0.027-0.439-0.023-0.664-0.016c-0.645-0.023-1.607-0.328-1.607-0.328c-1.533-0.139-3.066-0.418-4.592-0.381
		c-2.48,0.068-3.836,2.582-2.529,5.316c0.242-0.844,0.41-1.336,0.525-1.84c0.414-1.787,1.441-2.588,3.168-2.334
		c0.973,0.145,1.932,0.371,2.895,0.582c0.004,0,0.008,0.004,0.012,0.004c0.045,0.01,0.096,0.021,0.152,0.033
		c0.34,0.082,0.877,0.213,1.514,0.248c0.049,0.006,0.098,0.008,0.146,0.008c0.223-0.008,0.451-0.01,0.682-0.01h0.027
		c1.201-0.008,2.414,0.041,3.555-0.217c2.793-0.623,4.48-3.021,4.604-5.973c0.074-1.809,0.271-3.615,0.428-5.615
		c2.213,2.17,4.127,4.045,6.037,5.916c0.258-0.186,0.514-0.367,0.771-0.555c-0.27-0.439-0.432-1.014-0.816-1.297
		c-10.039-7.514-11.076-23.416-1.977-32.085c2.178-2.074,4.576-3.604,7.959-3.756c4.119-0.191,7.334-2.484,8.854-6.559
		c1.395-3.744,5.676-6.027,9.998-5.219c3.438,0.645,6.4,4.402,6.395,8.121c0,0.434-0.189,0.895-0.08,1.287
		c0.111,0.398,0.48,0.727,0.736,1.086c0.396-0.299,1.109-0.568,1.141-0.895c0.104-1.229-0.078-2.475-0.02-3.705
		c0.027-0.564,0.182-1.381,0.57-1.627c6-3.809,12.607,0.566,13.684,5.428c-0.709,0.262-1.494,0.439-2.152,0.836
		c-0.332,0.197-0.43,0.787-0.631,1.195c0.408,0.195,0.836,0.592,1.221,0.551c0.969-0.098,1.92-0.393,2.883-0.609
		c0.16,0.02,0.32,0.037,0.484,0.057c-0.086,0.074-0.176,0.148-0.262,0.223c-0.949,1.377-2.043,2.217-3.922,2.266
		c-3.148,0.082-5.223,2.666-5.514,6.289c-2.537,0.75-5.168,1.242-7.559,2.287c-8.277,3.623-12.09,10.352-12.91,19.103
		c-0.32,3.436-0.738,6.883-1.4,10.266c-1.129,5.773-5.563,7.174-10.412,5.229c-1.941-0.777-3.576-2.342-5.348-3.557
		c-0.492-0.336-0.971-0.705-1.82-1.324c0.082,0.76,0.037,1.018,0.137,1.189c2.291,3.943,8.707,6.52,13.143,5.4
		c2.246-0.566,3.865-1.912,4.566-3.965c0.873-2.543,1.439-5.219,1.854-7.877c0.203-1.289,0.668-1.941,1.852-2.072
		c5.768-0.648,10.475-3.531,14.951-6.949c3.318-2.527,6.83-4.529,11.111-5.169c6.119-0.918,12.686,2.585,15.201,7.468
		c3.137,6.072,4.01,12.426,1.984,19.018c-0.469,1.529-1.424,2.912-2.154,4.359c0.141,0.143,0.283,0.285,0.424,0.426
		c0.504-0.463,1.145-0.84,1.492-1.398c2.492-4.029,3.037-8.49,2.371-13.053c-0.4-2.719-1.391-5.35-1.986-8.047
		c-0.385-1.73-0.631-3.502-0.783-5.268c-0.25-2.841,2.201-4.89,5.219-4.498c0.455,0.061,0.939-0.086,1.414-0.139
		c-0.408-0.361-0.75-0.902-1.223-1.059c-2.008-0.66-3.691,0.242-5.061,1.527c-1.271,1.191-2.252,2.672-1.6,4.625
		c0.074,0.227,0.068,0.48,0.131,0.992c-0.475-0.389-0.795-0.602-1.059-0.867c-5.861-5.939-13.457-7.236-20.869-3.357
		c-2.398,1.254-4.643,2.849-6.816,4.48c-3.672,2.758-7.656,4.744-12.174,5.617c-0.303,0.061-0.615,0.084-0.922,0.098
		c-0.295,0.016-0.594,0.004-0.865,0.004c-1.48-9.892,8.539-21.898,18.164-21.513l0.941-0.178c1.352,2.367,2.426,4.502,5.334,4.887
		c-1.174-1.34-2.125-2.344-2.982-3.418l-0.98-3.768c0.008-0.152,0.018-0.301,0.025-0.453c0.697-2.719,1.951-3.84,4.324-3.879
		l0.32,0.135l4.836,2.119c0.277,0.652,0.555,1.303,0.969,2.275c0.91-2.484-0.064-4.203-2.971-6.031
		c2.059-2.861,2.674-2.906,6.609-2.135c6.332,1.236,10.67,4.887,13.631,10.449c0.807,1.516,1.756,2.955,2.9,4.875
		c0.588-1.027,0.934-1.633,1.361-2.383c4.234,1.012,6.852,3.936,8.035,8.125c1.484,5.246,0.594,10.273-1.932,15.048
		c-0.174,0.324-0.523,0.615-0.561,0.947c-0.082,0.689-0.008,1.402,0.004,2.104c0.574-0.324,1.463-0.516,1.672-1
		c1.141-2.648,2.377-5.307,3.059-8.088c0.564-2.301,0.41-4.777,0.578-7.191c5.092-0.209,11.449,6.181,13.984,14.216
		c2.611,8.256,0.287,16.648-5.662,20.461c-1.047-1.707-2.02-3.469-3.186-5.092c-0.361-0.504-1.256-0.623-1.91-0.918
		c0.127,0.738,0.012,1.672,0.422,2.188c2.08,2.621,3.293,5.621,3.25,8.889c-0.07,4.943-0.537,9.879-1.105,14.895
		c-4.029-6.006-10.113-10.311-13.041-17.055c-0.191-0.441-0.955-0.633-1.453-0.943c-0.129,0.537-0.539,1.23-0.336,1.582
		c1.369,2.404,2.695,4.863,4.357,7.064c2.426,3.213,5.217,6.152,7.686,9.338c3.697,4.77,4.529,9.926,1.543,15.408
		c-2.373,4.355-7.164,6.592-12.305,5.766c-5.457-0.881-8.445-3.686-9.527-8.955c-0.148-0.719-0.266-1.441-0.428-2.334
		c3.938,0.525,7.52-0.012,10.551-2.549c2.68-2.236,3.096-6.045,0.879-8.184c-0.336-0.324-1.021-0.283-1.549-0.414
		c0.008,0.527-0.186,1.176,0.049,1.555c1.496,2.402,1.219,4.307-1.18,5.885c-3.412,2.244-7.072,2.791-10.639,0.529
		c-2.432-1.541-4.602-3.5-6.887-5.271c0.135-0.102,0.268-0.201,0.406-0.301c0.074-0.594,0.15-1.191,0.225-1.785
		c-0.607-0.07-1.229-0.252-1.822-0.193c-2.475,0.246-4.881-0.168-6.463-2.078c-2.334-2.826-5.305-3.938-8.752-4.654
		c-3.998-0.83-6.934-3.406-9.053-6.898c-0.656-1.078-0.377-1.689,0.652-2.387c4.637-3.16,6.186-9.469,3.51-14.285
		c-0.313-0.566-1.289-1.322-1.686-1.189c-1.164,0.393-0.494,1.287-0.115,1.965c2.689,4.803,0.428,12.26-7.598,13.941
		c-6.07,1.277-10.92-3.129-11.883-7.781c0.943,0.746,1.646,1.426,2.467,1.9c0.484,0.281,1.152,0.248,1.738,0.357
		c-0.146-0.602-0.096-1.402-0.467-1.773c-3.477-3.457-7.707-4.859-12.553-4.129c-5.518,0.83-8.99,4.033-10.564,9.4
		c-0.188,0.631-1.07,1.484-1.656,1.504c-2.689,0.092-5.387-0.072-8.08-0.154c-0.369-0.01-0.736-0.08-1.104-0.121l-0.893-0.352
		c-1.664-0.736-3.328-1.465-4.996-2.197c0.15-0.133,0.299-0.27,0.453-0.398c-0.119-0.705-0.238-1.41-0.359-2.115
		c-0.652,0.402-1.301,0.801-1.947,1.209c-0.049,0.029-0.063,0.104-0.096,0.156c-5.719,8.621-16.322,11.441-25.658,6.822
		C138.318,218.631,139.306,215.211,140.613,211.916z M170.708,307.582c-0.508-0.057-1.07,0.406-1.607,0.627
		c0.447,0.443,0.836,1.189,1.342,1.287c2.594,0.48,5.213,0.799,8.119,1.211c-7.342,6.98-16.064,6.395-24.76,5.91
		c-0.063-0.25-0.131-0.504-0.193-0.758c2.219-0.611,4.457-1.166,6.65-1.865c0.684-0.221,1.779-0.846,1.762-1.242
		c-0.057-1.227-1.066-0.947-1.975-0.814c-5.232,0.76-9.672,3.523-14.395,5.582c-1.852,0.807-3.764,1.508-5.709,2.061
		c-6.672,1.883-14.246-4.135-15.588-10.02c-0.557-2.441-1.652-3.057-4.033-2.232c-1.451,0.504-2.809,1.303-4.275,1.725
		c-5.18,1.486-12.336-1.117-15.529-5.555c-1.365-1.9-1.719-3.564-1.365-6.533c1.008,0.844,1.936,1.721,2.98,2.43
		c0.314,0.211,0.943-0.045,1.43-0.088c-0.078-0.477,0.012-1.092-0.258-1.41c-1.115-1.314-2.512-2.426-3.488-3.83
		c-2.23-3.211-2.689-6.686-0.992-10.332c0.723-1.557,1.354-3.152,2.025-4.73c3.156-1.627,6.227-3.424,8.158-6.521
		c1.238-1.988,2.164-4.17,3.391-6.582c4.189,0.252,8.715-0.375,12.445-3.666c3.678-3.244,4.957-7.627,5.617-12.436
		c2.91,1.857,5.459,1.633,7.625-1.02c3.377-0.873,6.801-1.6,10.125-2.645c5.879-1.85,7.375-6.93,7.023-11.811
		c-0.123-1.693-0.539-3.561-2.268-4.719c-0.02,1.135,0.234,2.172,0.557,3.189c1.682,5.313-0.676,10.391-5.918,12.18
		c-2.826,0.967-5.801,1.504-8.705,2.232c0.488-5.779-0.893-11.379-1.627-17.041c-0.25-1.943-0.139-3.932-0.193-5.902
		c10.369,4.199,19.133,1.732,26.385-6.24c2.164,0.906,4.248,1.775,6.334,2.648l0.889,0.102c5.363,1.322,10.541,1.268,15.189-2.213
		c0.775-0.582,1.42-1.381,1.984-2.178c0.18-0.256,0.037-1-0.213-1.209c-0.238-0.201-0.98-0.16-1.213,0.066
		c-0.705,0.688-1.271,1.514-2.145,2.07c0.186-2.209,1.295-3.805,2.959-5.004c2.916-2.09,6.199-2.67,9.672-1.916
		c0.537,0.115,1.111,0.877,1.344,1.467c1.689,4.303,4.219,7.814,8.654,9.639c-1.709,8.635-8.273,14.553-16.721,15.314
		c-1.771,0.16-3.568,0.08-5.348,0.018c-1.725-0.064-3.439-0.246-5.266-0.385c1.199-3.014,1.221-5.93,0.338-8.846
		c-0.188-0.615-0.684-1.133-1.041-1.697c-0.045,0.639-0.266,1.32-0.117,1.912c1.75,6.805-1.26,11.906-8.078,13.395l-0.889,0.275
		c-2.439,0-4.775,0.027-7.109-0.006c-1.986-0.029-3.967-0.166-5.955-0.176c-0.385-0.004-0.771,0.344-1.156,0.525
		c0.045,0.15,0.09,0.295,0.131,0.445c2.078,0.168,4.152,0.313,6.227,0.514c0.596,0.061,1.223,0.176,1.768,0.418
		c3.748,1.652,3.652,1.664,3.588,5.719c-0.021,1.563,0.334,3.172,0.754,4.695c0.605,2.201,0.045,4.463-1.768,5.988
		c-1.598,1.348-3.1,0.57-4.637-0.189c-0.389-0.191-0.938-0.064-1.41-0.082c0.268,0.414,0.451,0.936,0.82,1.219
		c0.516,0.4,1.164,0.627,1.762,0.926c-2.078,3.607-5.771,4.887-10.26,3.916c-2.047-0.443-4.197-0.541-6.301-0.566
		c-0.693-0.008-1.492,0.582-2.082,1.086c-3.104,2.641-3.77,2.533-8.602,3.301c0.266-2.709,0.527-5.371,0.783-8.039
		c-0.242-0.066-0.484-0.135-0.73-0.205c-0.273,0.857-0.656,1.693-0.803,2.57c-0.287,1.764-0.373,3.563-0.67,5.324
		c-0.938,5.49-4.561,7.283-9.156,7.848c-0.92,0.117-1.85,0.201-2.756,0.398c-0.355,0.08-0.656,0.426-1.279,0.855
		c5.813,0.635,11.799-1.18,13.836-6.275c0.23-0.574,1.096-1.152,1.742-1.254c3.014-0.477,5.838-1.121,8.244-3.305
		c1.053-0.955,2.82-1.123,4.26-1.648c0.139,0.232,0.275,0.463,0.414,0.693c-0.414,0.471-0.803,0.963-1.25,1.398
		c-2.082,2.037-2.629,4.377-1.488,7.09c0.549,1.301,1.023,2.637,1.611,3.916c0.131,0.279,0.619,0.393,0.943,0.582
		c0.086-0.365,0.33-0.787,0.225-1.082c-0.463-1.27-1.045-2.492-1.547-3.75c-0.859-2.148-0.658-4.092,1.121-5.754
		c0.721-0.672,1.32-1.467,2.049-2.283c4.178,1.402,8.125,1.104,11.414-2.229c1.197-1.211,2.303-2.33,3.939-3.125
		c1.422-0.691,2.275-2.529,3.426-3.912l0.494-0.188c4.553-1.385,9.324,1.578,8.738,5.154c-0.434,2.65-1.754,4.854-3.791,6.611
		c-0.555,0.479-1.148,0.908-1.73,1.373c2.336,2.309,7.543-5.541,6.686-9.904c-0.523-2.668-3.434-4.674-7.271-4.992
		c-0.73-0.059-1.469-0.008-2.301-0.008l-0.955-0.57c-0.754-2.23-1.766-3.98-1.119-6.244c0.541-1.906-0.012-3.764-2.111-5.34
		c1.418-0.072,2.271-0.119,3.23-0.166l0.955-0.15c3.084-0.592,5.67-2.031,7.721-4.42c0.27-0.313,0.949-0.371,1.441-0.377
		c4.371-0.021,8.904,0.742,13.082-0.16c7.908-1.709,13.02-6.932,14.992-14.951c0.07-0.295,0.225-0.57,0.34-0.854
		c2.387-0.146,4.771-0.291,7.359-0.453c1.352,3.053,3.637,5.752,6.85,7.387c2.158,1.102,4.637,1.559,6.928,2.426
		c1.109,0.426,2.346,0.91,3.133,1.738c2.201,2.309,4.523,4.189,7.898,4.309c0.4,0.014,0.818,0.463,1.18,0.771
		c2.582,2.195,5.164,4.395,7.707,6.629c0.377,0.328,0.57,0.861,0.852,1.301v0.006c-0.75,5.93-3.6,9.623-8.791,10.504
		c-5.824,0.992-11.641,1.201-16.098-3.883c-0.176-0.203-0.707-0.094-1.066-0.131c0.025,0.322-0.029,0.688,0.102,0.955
		c0.158,0.32,0.477,0.563,0.732,0.83c3.268,3.461,7.498,3.93,11.93,3.949c6.344,0.025,11.328-2.086,13.832-8.357l3.291,5.977
		c-1.744,1.037-3.588,1.947-5.227,3.133c-5.838,4.227-6.885,11.971-2.482,17.682c0.604,0.783,1.24,1.541,1.859,2.305
		c-1.73,1.035-3.727,1.787-5.148,3.146c-4.199,4.021-8.914,5.469-14.604,4.063c-1.762-0.434-3.717-0.566-5.502-0.299
		c-7.486,1.111-11.855,6.066-14.807,12.582c-0.168,0.369,0.072,0.922,0.119,1.391c0.344-0.279,0.795-0.496,1.012-0.848
		c0.922-1.531,1.648-3.188,2.676-4.635c4.047-5.723,9.43-8.266,16.508-6.83c5.281,1.07,10.092,0.377,14.328-3.508
		c1.883-1.727,4.49-2.67,6.77-3.973c3.854,2.891,8.338,4.43,12.824,5.951h0.004c-2.754,6.879-7.531,11.664-14.615,14
		c-4.865,1.605-9.838,1.234-15.137,0.836c0.631-0.773,1.154-1.232,1.408-1.807c0.188-0.424,0.008-1.006-0.008-1.518
		c-0.488,0.064-1.158-0.061-1.436,0.217c-7.443,7.434-17.086,9.709-26.918,11.463c-7.26,1.295-14.549,0.959-21.826,0.037
		C179.527,308.635,175.121,308.063,170.708,307.582z M307.998,299.604c-1.148,5.799-5.494,8.869-10.676,10.889l-2.119,1.398
		c-0.029,0.951,0.295,1.637,1.219,1.309c1.955-0.693,1.955,0.545,1.721,1.703c-2.234,11.064-7.723,19.824-17.607,25.787
		c-8.965,5.408-18.637,7.352-28.904,6.904c-3.875-0.17-7.754-0.631-11.584-1.246c-5.863-0.939-9.977-4.619-13.449-9.16
		c-1.84-2.41-3.658-4.844-5.572-7.193c-0.402-0.496-1.186-0.688-1.799-1.016c-0.234,0.568-0.475,1.139-0.73,1.75
		c-5.6,0.414-11.305,0.877-16.818-1.055c-8.277-2.9-13.668-8.6-16.063-17.07c-0.1-0.348-0.053-0.738-0.07-1.107
		c5.445,0.096,10.93,0.619,16.34,0.193c9.088-0.713,17.908-2.906,25.818-7.629c2.516-1.504,4.84-1.328,7.389-1.025
		c12.484,1.48,24.68-3.68,29.225-16.57c6.832,1.441,13.713,2.502,20.727,2.182c3.992-0.178,8.049-0.127,11.947-0.865
		c2.74-0.523,5.264-2.201,7.885-3.365C308.042,289.043,309.068,294.213,307.998,299.604z M311.339,230.758
		c2.607,2.791,4.002,6.066,4.307,9.6c0.742,8.717,1.506,17.477,0.031,26.184c-0.826,4.9-2.26,9.666-5.916,13.365
		c-0.543,0.549-1.236,0.947-2.234,1.189c0.168-0.719,0.449-1.439,0.471-2.168c0.014-0.455-0.354-0.92-0.551-1.379
		c-0.441,0.25-1.154,0.402-1.273,0.762c-2.104,6.18-7.01,7.596-12.781,7.756c-2.967,0.08-5.926,0.648-8.887,0.629
		c-3.781-0.025-7.582-0.234-11.326-0.709c-6.021-0.756-11.908-2.166-17.449-4.756c-3.121-1.459-5.967-3.285-7.957-6.223
		c-3.486-5.154-2.35-11.365,2.844-14.805c1.693-1.123,3.572-1.967,5.363-2.941c2.111,0.65,4.184,1.572,6.342,1.9
		c9.428,1.422,14.553-5.168,15.668-11.453c0.326-1.832,0.053-3.768,0.068-5.654c0.021-3.135-0.012-6.271,0.107-9.4
		c0.156-4.004,0.516-7.998,0.639-12c0.037-1.348,0.143-2.318,1.316-3.324c6.959-5.984,8.758-14.322,5.279-23.617
		c-0.303-0.807-0.639-1.602-0.961-2.4c5.303,1.311,10.289,7.307,10.785,12.732c0.367,3.959-0.152,7.428-3.939,9.666
		c-0.309,0.182-0.285,0.926-0.416,1.406c0.441,0.1,0.898,0.316,1.326,0.275c0.395-0.041,0.76-0.361,1.43-0.707
		c-0.188,3.162,0.078,6.285-1.877,8.643c-1.816,2.193-4.225,3.891-6.775,6.162c1.182-0.328,2.105-0.426,2.871-0.828
		c4.678-2.459,6.814-6.527,6.957-11.67c0.053-2.027,0.357-3.826,1.395-5.658c0.881-1.543,1.086-3.473,1.592-5.248
		c4.555,0.854,10.49,10.959,9.152,18.895c-0.586-0.281-1.109-0.514-1.615-0.779c-5.373-2.783-10.445,1.365-10.191,6.129
		c0.129,2.514-0.023,5.088-0.416,7.576c-0.377,2.383-1.859,4.127-4.23,5.023c-0.891,0.34-1.689,0.926-2.424,1.576
		c3.117,0.709,6.316-2.074,8.359-7.178c0.777,1.508,1.52,2.738,2.023,4.059l0.094,1.316c2.355,3.414,0.055,5.836-0.859,8.602
		c2.982-1.066,3.645-5.02,2.922-7.58l-1.08-3.416c-1.451-2.682-3.52-5.67-3.221-9.584c0.174-2.293,0.764-4.268,2.875-5.457
		c2.184-1.232,4.268-0.848,6.246,0.533c0.121,0.139,0.24,0.279,0.365,0.418L311.339,230.758z"/>
	<path fill-rule="evenodd" clip-rule="evenodd" fill="#6D6E71" stroke="#6D6E71" stroke-miterlimit="10" d="M122.244,206.295
		c-0.471,0.313-0.9,0.742-1.414,0.914c-2.033,0.684-4.129,1.189-6.137,1.936c-4.719,1.758-7.621,5.803-7.445,10.805
		c0.104,2.994,0.75,5.969,1.162,8.951c0.072,0.5,0.203,0.992,0.061,1.57c-1.984-0.998-1.297-3.227-2.316-4.707
		c-1.596-0.074-3.301-0.152-5.006-0.246c-0.115-0.004-0.225-0.102-0.336-0.154c-1.992-0.902-3.943-2.215-6.178-0.51
		c-0.123,0.094-0.57-0.236-0.869-0.369c-0.123,0.439-0.295,0.871-0.365,1.32c-0.541,3.43-2.025,6.051-5.678,6.949
		c-1.922,0.475-3.82,1.041-5.73,1.564c-0.1-0.215-0.197-0.426-0.295-0.635c0.467-0.328,0.893-0.781,1.41-0.955
		c1.045-0.355,2.141-0.545,3.213-0.83c4.17-1.111,5.801-3.303,5.969-7.742c0.063-1.631,0.418-3.25,0.936-4.865
		c1.295,1.512,0.18,3.227,0.496,4.793c5.223-1.461,5.883-5.986,6.686-10.262c0.686-3.654,0.705-7.359-0.291-11.027
		c-0.877-3.24-2.629-5.695-5.791-6.99c-2.154-0.885-3.74-2.271-4.662-4.469c-0.91-2.164-2.01-2.666-4.271-2.217
		c-0.6,0.119-1.197,0.273-1.805,0.334c-3.936,0.406-5.379-1.262-4.492-5.152c0.068-0.299,0.068-0.613,0.102-0.914
		c-3.385-0.795-6.111,0.182-7.785,3.031c-1.061,1.799-1.881,3.742-2.697,5.67c-1.68,3.959-4.943,6.082-8.518,7.873
		c-0.148-0.131-0.301-0.258-0.451-0.389c0.295-0.398,0.508-0.971,0.902-1.168c4.309-2.152,6.682-5.781,8.338-10.164
		c1.053-2.791,2.68-5.398,5.924-6.16c1.217-0.287,2.529-0.156,4.309-0.238c-0.959-0.799-1.604-1.219-2.078-1.783
		c-0.238-0.283-0.168-0.828-0.234-1.252c0.365,0.084,0.771,0.096,1.086,0.271c1.932,1.096,2.674,2.775,2.361,4.964
		c-0.09,0.611-0.061,1.242-0.064,1.861c-0.006,2.025,0.385,2.455,2.381,2.381c1.045-0.039,2.078-0.289,3.119-0.361
		c3.051-0.225,3.715,0.338,5.26,3.02c0.75,1.303,1.916,2.705,3.234,3.277c4.883,2.125,7.117,6.031,7.629,10.955
		c0.498,4.816,0.1,9.635-1.609,14.246c-0.402,1.09-0.969,2.115-1.469,3.193c1.645,1.898,4.596,2.477,7.225,1.316
		c-0.813-3.408-0.174-6.695,1.25-9.84c1.225-2.705,3.197-4.746,5.998-5.775c2.828-1.037,5.727-1.869,8.596-2.795
		C122.011,205.779,122.128,206.037,122.244,206.295z"/>
	<path fill-rule="evenodd" clip-rule="evenodd" fill="#6D6E71" stroke="#6D6E71" stroke-miterlimit="10" d="M85.537,202.99
		c-0.705,0.328-1.426,0.971-2.115,0.943c-10.002-0.404-16.225,5.77-21.846,12.721c-2.6,3.215-2.346,6.592,0.018,9.557
		c0.359,0.447,1.307,0.668,1.947,0.611c2.012-0.182,4-0.629,6.012-0.791c0.637-0.051,1.32,0.471,1.984,0.729
		c-0.072,0.221-0.143,0.439-0.213,0.664c-1.385,0-2.783-0.119-4.152,0.018c-7.475,0.742-9.527,5.469-10.248,10.891
		c-0.35,2.633-0.088,5.408,0.27,8.068c0.5,3.699,3.383,5.904,5.838,8.34c0.672,0.672,1.242,1.447,1.537,2.438
		c-3.846-2.701-7.695-5.531-8.662-10.428c-1.393-7.023-0.734-13.672,4.949-18.748c-0.857-1.928-1.719-3.861-2.666-5.984
		c-2.971,1.279-5.898,0.656-8.412-1.793c0.051-0.205,0.104-0.406,0.16-0.613c0.645,0.213,1.287,0.449,1.943,0.631
		c1.219,0.344,2.434,0.861,3.67,0.93c1.811,0.104,2.949-0.684,3.615-2.668c1.369-4.088,4.693-6.777,7.854-9.465
		c1.875-1.592,3.965-2.949,6.051-4.27c3.244-2.057,4.711-6.289,3.297-9.842c-0.156-0.387-0.164-0.836-0.238-1.256
		c2.66,1.611,2.697,4.691,0.465,9.512c2.34-0.213,4.57-0.463,6.809-0.592C84.103,202.553,84.824,202.848,85.537,202.99z"/>
	<path fill-rule="evenodd" clip-rule="evenodd" fill="#6D6E71" stroke="#6D6E71" stroke-miterlimit="10" d="M72.607,246.527
		c-0.156,1.328-0.08,2.975,0.586,4.051c1.215,1.977,2.928,3.652,4.461,5.428c0.932,1.082,1.951,2.086,2.85,3.193
		c0.254,0.314,0.221,0.865,0.352,1.447c-2.164-1.885-4.066-3.537-5.861-5.1c-1.592,3.973-0.115,7.379,2.672,10.494
		c1.324,1.477,2.551,3.039,3.773,4.604c0.17,0.211,0.072,0.633,0.094,0.957c-0.313-0.006-0.799,0.119-0.918-0.035
		c-2.613-3.41-6.172-6.254-7.314-10.572c-0.475-1.787,0.18-3.852,0.145-5.787c-0.014-0.902-0.287-1.895-0.73-2.678
		c-1.152-2.016-2.418-3.988-1.316-6.395c0.459-0.996,1.25-1.844,2.059-3.002c-1.529-2.396-1.518-5.313-1.305-8.223
		c0.137-1.932,1.477-3.293,3.359-3.699c1.023-0.225,2.057-0.426,3.094-0.537c0.307-0.035,0.652,0.275,0.98,0.424
		c-0.264,0.283-0.48,0.699-0.809,0.82c-0.57,0.217-1.205,0.246-1.813,0.359c-2.918,0.541-3.639,1.408-3.717,4.313
		c-0.123,4.502,1.922,7.807,5.549,10.273c1.121,0.764,2.264,1.51,3.357,2.32c0.363,0.264,0.604,0.699,0.902,1.059
		c-0.109,0.145-0.213,0.291-0.322,0.436c-0.473-0.17-1.014-0.244-1.406-0.529c-1.998-1.449-3.99-2.916-5.92-4.461
		C74.08,244.629,72.8,244.855,72.607,246.527z"/>
	<path fill-rule="evenodd" clip-rule="evenodd" fill="#6D6E71" stroke="#6D6E71" stroke-miterlimit="10" d="M80.761,178.161
		c5.148-5.41,10.592-8.789,17.77-8.521c4.119,0.152,7.535-1.494,10.533-4.246c2.504-2.297,5.016-4.941,8.578-5.16
		c3.674-0.225,7.391,0.271,11.084,0.494c0.168,0.01,0.311,0.412,0.465,0.633c-0.285,0.154-0.578,0.455-0.854,0.441
		c-1.975-0.098-3.98-0.084-5.914-0.439c-3.676-0.676-6.828,0.309-9.666,2.568c-1.211,0.965-2.387,1.979-3.521,3.033
		c-3.439,3.203-7.715,4.158-12.16,4.123c-4.775-0.035-8.611,1.787-12.037,4.869c-0.736,0.664-1.492,1.322-2.322,1.854
		C82.33,178.059,81.748,178,80.761,178.161z"/>
	<path fill-rule="evenodd" clip-rule="evenodd" fill="#6D6E71" stroke="#6D6E71" stroke-miterlimit="10" d="M72.886,272.307
		c-2.033,1.654-4.824,1.332-5.924-0.309c-0.311-0.459-0.557-0.967-0.762-1.48c-0.67-1.695-1.771-2.66-3.711-2.793
		c-2.791-0.191-5.111-1.535-6.711-3.799c-1.066-1.508-2.316-1.955-4.045-1.762c-3.322,0.367-5.818-1.279-7.949-3.568
		c-0.51-0.551-0.689-1.406-1.021-2.123c0.213-0.154,0.426-0.307,0.641-0.459c2.422,3.469,5.402,5.658,9.73,4.564
		c-0.236-2.645-0.496-5.314-0.68-7.994c-0.023-0.299,0.381-0.629,0.586-0.943c0.268,0.336,0.73,0.654,0.764,1.012
		c0.199,1.963,0.188,3.951,0.445,5.9c0.463,3.492,4.305,7.301,7.77,7.707c2.693,0.314,4.684,1.426,5.578,4.119
		c0.521,1.57,1.664,2.004,3.23,1.734C71.365,272.023,71.947,272.211,72.886,272.307z"/>
	<path fill-rule="evenodd" clip-rule="evenodd" fill="#6D6E71" stroke="#6D6E71" stroke-miterlimit="10" d="M123.205,168.36
		c-2.547,4.854-6.908,6.139-11.686,6.512c-6.371,0.496-11.693,3.211-16.367,7.408c-0.318,0.287-0.666,0.584-1.057,0.736
		c-0.281,0.109-0.654-0.016-0.986-0.037c0.098-0.32,0.09-0.781,0.305-0.941c4.123-3.087,7.859-6.826,13.334-7.578
		c2.613-0.359,5.18-1.066,7.795-1.4c2.908-0.371,5.045-1.811,6.764-4.084C121.748,168.391,122.181,167.235,123.205,168.36z"/>
	<path fill-rule="evenodd" clip-rule="evenodd" fill="#6D6E71" stroke="#6D6E71" stroke-miterlimit="10" d="M215.347,281.752
		c-3.168,5.217-7.207,5.684-10.111,1.41c-3.029-4.457-7.336-6.572-12.271-7.949c-3.025-0.846-6.047-1.779-8.391-4.08
		c-2.994-2.943-3.67-7.125-1.723-10.889c1.48-2.857,5.275-4.336,9.221-3.598c1.213,0.225,2.438,0.4,3.629,0.699
		c0.307,0.074,0.52,0.518,1.1,1.133c-2.832-0.182-5.098-0.373-7.365-0.463c-2.566-0.1-4.682,0.811-5.654,3.322
		c-1.105,2.852-1.117,5.662,1.027,8.16c2.033,2.369,4.828,3.328,7.666,4.227c3.631,1.156,7.422,2.012,10.307,4.73
		c1.211,1.139,2.244,2.479,3.277,3.789c2.352,2.986,4.342,3.16,7.117,0.627C213.765,282.332,214.525,281.98,215.347,281.752z"/>
	<path fill-rule="evenodd" clip-rule="evenodd" fill="#6D6E71" stroke="#6D6E71" stroke-miterlimit="10" d="M183.642,294.209
		c-1.426,1.951-7.219,3.32-9.096,1.861c-1.834-1.422-3.313-3.299-4.941-4.984c-0.129-0.131-0.188-0.32-0.303-0.463
		c-3.004-3.828-5.408-4.002-8.223-0.055c-3.215,4.506-7.777,5.527-12.758,5.916c-1.756,0.135-3.514,0.223-5.27,0.332
		c-0.068-0.232-0.131-0.463-0.195-0.699c0.779-0.248,1.549-0.615,2.35-0.734c2.922-0.42,5.877-0.648,8.779-1.174
		c2.047-0.369,3.711-1.521,4.994-3.258c0.877-1.189,1.914-2.291,3.018-3.273c1.873-1.67,3.719-1.814,5.707-0.254
		c1.445,1.129,2.609,2.615,3.873,3.965c0.719,0.766,1.357,1.611,2.094,2.361c1.846,1.889,3.363,2.176,5.838,1.152
		c1.309-0.541,2.611-1.092,4.072-1.707C183.626,293.857,183.724,294.098,183.642,294.209z"/>
	<path fill-rule="evenodd" clip-rule="evenodd" fill="#6D6E71" stroke="#6D6E71" stroke-miterlimit="10" d="M148.669,288.143
		c-3.783,2.441-11.84,4.342-13.824,2.883c1.23-0.305,2.162-0.666,3.117-0.748c8.252-0.713,13.992-5.309,18.553-11.822
		c1.08-1.545,2.338-2.963,3.77-4.76C160.826,276.225,153.187,285.23,148.669,288.143z"/>
	<path fill-rule="evenodd" clip-rule="evenodd" fill="#6D6E71" stroke="#6D6E71" stroke-miterlimit="10" d="M246.863,223.824
		c0.043,2.691-0.988,5.41-1.619,8.094c-0.111,0.479-0.666,0.855-1.014,1.279c-0.182-0.148-0.365-0.295-0.549-0.443
		c0.451-1.328,1.176-2.629,1.299-3.986c0.254-2.738,0.59-5.578,0.143-8.25c-0.617-3.662-2.967-5.225-6.727-5.375
		c-0.373-0.016-0.779,0.064-1.111-0.063c-0.49-0.184-0.922-0.514-1.381-0.779c0.459-0.213,0.92-0.613,1.381-0.605
		C243.212,213.773,246.75,216.459,246.863,223.824z"/>
	<path fill-rule="evenodd" clip-rule="evenodd" fill="#6D6E71" stroke="#6D6E71" stroke-miterlimit="10" d="M244.638,201.953
		c-3.121,4.887-11.84,6.102-15.842,2.521c-1.162-1.045-1.785-2.719-2.549-4.164c-0.129-0.246,0.301-0.783,0.473-1.186
		c0.275,0.277,0.688,0.5,0.809,0.836c1.701,4.656,5.836,6.594,10.826,4.867c1.676-0.582,3.201-1.584,4.809-2.365
		C243.625,202.236,244.144,202.119,244.638,201.953z"/>
	<path fill-rule="evenodd" clip-rule="evenodd" fill="#6D6E71" stroke="#6D6E71" stroke-miterlimit="10" d="M310.525,274.469
		c-0.736-0.557-1.191-0.773-1.463-1.131c-0.789-1.037-1.482-2.137-2.242-3.195c-2.543-3.531-6.145-5.027-10.354-5.355
		c-4.254-0.332-8.195,0.947-12.123,2.309c-0.701,0.242-1.379,0.561-2.098,0.736c-0.334,0.082-0.729-0.096-1.104-0.154
		c0.197-0.324,0.328-0.869,0.598-0.951c3.543-1.059,7.072-2.186,10.67-3.035c3.385-0.799,6.721,0,9.996,1.121
		c-0.25-4.387,1.35-7.207,4.943-7.848c-0.559,0.758-0.986,1.689-1.701,2.25c-2.627,2.045-2.611,5.223-0.217,7.639
		c1.854,1.869,3.32,4.127,4.928,6.234C310.507,273.281,310.437,273.643,310.525,274.469z"/>
	<path fill-rule="evenodd" clip-rule="evenodd" fill="#6D6E71" stroke="#6D6E71" stroke-miterlimit="10" d="M268.857,331.18
		c-0.34,0.254-0.67,0.684-1.039,0.729c-5.275,0.594-10.553,1.824-15.873,0.742c-4.746-0.971-9.438-2.217-14.143-3.387
		c-6.135-1.529-12.234-3.227-18.404-4.596c-2.498-0.553-5.141-0.43-7.721-0.613c-0.035-0.23-0.072-0.461-0.109-0.693
		c0.559-0.131,1.113-0.369,1.674-0.375c5.416-0.08,10.666,0.949,15.859,2.416c6.736,1.902,13.42,4.07,20.262,5.477
		c3.992,0.82,8.242,0.459,12.373,0.465c1.967,0,3.934-0.412,5.902-0.57C268.033,330.744,268.451,331.039,268.857,331.18z"/>
	<path fill-rule="evenodd" clip-rule="evenodd" fill="#6D6E71" stroke="#6D6E71" stroke-miterlimit="10" d="M276.718,305.377
		c-0.168,0.443-0.205,1.057-0.525,1.307c-3.25,2.57-7.031,4.07-11.004,5.021c-2.688,0.645-5.451,0.945-7.555,1.297
		c-4-0.311-7.313-0.668-10.238-2.492c-0.424-0.264-0.635-0.869-0.951-1.316c0.525,0.074,1.121,0.008,1.553,0.248
		c4.857,2.641,9.994,2.426,15.146,1.4c4.494-0.895,8.789-2.395,12.455-5.318C275.849,305.324,276.337,305.42,276.718,305.377z"/>
	<path fill-rule="evenodd" clip-rule="evenodd" fill="#6D6E71" stroke="#6D6E71" stroke-miterlimit="10" d="M171.771,201.908
		c-0.234,0.021-0.463,0.021-0.682,0.01C171.312,201.91,171.541,201.908,171.771,201.908z"/>
</g>
<g>
	<path fill="#CE9CC7" stroke="#662D91" stroke-width="2" stroke-miterlimit="10" d="M234.083,122.927l0.152,0.538
		c0.516,1.945,0.775,4.146,0.701,6.672c-0.104,3.385-2.889,7.904-7.637,13.192c-2.699-1.502-5.117-3.054-6.732-5.119
		c-0.373-0.478-0.674-1.028-0.891-1.655l-0.004-0.01l-0.002-0.021l-0.363-1.469l-0.01-0.018l-0.01-0.054l-8.732-35.149
		c0.211,0.876,0.537,1.646,1,2.277c2.975,4.088,9.018,6.389,14.219,10.061C229.398,114.733,232.597,117.959,234.083,122.927z"/>
	<path fill="#CE9CC7" stroke="#662D91" stroke-width="2" stroke-miterlimit="10" d="M219.308,135.055
		c0.08,0.533,0.193,1.023,0.363,1.469"/>
	<path fill="#CE9CC7" stroke="#662D91" stroke-width="2" stroke-miterlimit="10" d="M243.998,158.88
		c0.086,0.309,0.174,0.617,0.244,0.936"/>
	<path fill="#CE9CC7" stroke="#662D91" stroke-width="2" stroke-miterlimit="10" d="M103.468,421.303
		c0.373,0.676,0.686,1.348,0.936,2.012"/>
	<path fill="#CE9CC7" stroke="#662D91" stroke-width="2" stroke-miterlimit="10" d="M85.402,382.49l18.066,38.813l0.936,2.012
		l0.01,0.018c0.438,1.182,0.697,2.354,0.705,3.492c0.197,15.268-37.023,29.387-50.178,46c-1.344,1.705-2.4,3.402-3.215,5.096
		l-20.537-44.111c1.047-1.041,2.143-2.041,3.266-3.012c11.846-10.203,33.313-22.031,44.895-32.646
		c4.109-3.766,6.754-7.598,6.838-11.59C86.224,385.24,85.937,383.879,85.402,382.49z"/>
	<path fill="#CE9CC7" stroke="#662D91" stroke-width="2" stroke-miterlimit="10" d="M84.527,380.623
		c0.344,0.625,0.627,1.246,0.863,1.85"/>
	<path fill="#CE9CC7" stroke="#662D91" stroke-width="2" stroke-miterlimit="10" d="M234.236,123.465l9.691,35.179l0.07,0.236
		l0.244,0.936c0.416,1.657,0.645,3.516,0.662,5.595c0.117,18.867-82.209,75.771-119.768,104.302
		c-29.531,22.432-51.652,65.77-59.414,91.113c-7.521-6.625-15.018-13.301-18.361-19.582l-0.031-0.053l-0.031-0.072l-1.256-3.057
		l-0.006-0.006c-0.311-1.025-0.467-2.023-0.484-3.02c-0.178-16.125,27.549-77.584,66.076-104.803
		c31.605-22.328,94.002-62.705,115.672-86.905c4.748-5.288,7.533-9.808,7.637-13.192
		C235.011,127.612,234.751,125.411,234.236,123.465z"/>
	<path fill="#CE9CC7" stroke="#662D91" stroke-width="2" stroke-miterlimit="10" d="M46.042,338.063
		c0.285,1.004,0.713,2.029,1.256,3.057"/>
	<path fill="#CE9CC7" stroke="#662D91" stroke-width="2" stroke-miterlimit="10" d="M307.675,44.612l6.963,32.803
		c-14.926-14.214-59.363-0.268-72.121,11.372c-5.793,5.284-12.129,14.33-16.742,23.386c-5.201-3.672-11.244-5.973-14.219-10.061
		c-0.463-0.631-0.789-1.401-1-2.277c-2.379-10.323,12.533-36.046,24.652-46.359C248.357,42.291,293.248,29.886,307.675,44.612z"/>
	<path fill="#CE9CC7" stroke="#662D91" stroke-width="2" stroke-miterlimit="10" d="M63.437,380.121
		c0.139,0.395,0.305,0.795,0.492,1.195"/>
	<path fill="#CE9CC7" stroke="#662D91" stroke-width="2" stroke-miterlimit="10" d="M84.46,380.49l0.066,0.133l0.863,1.85
		l0.012,0.018c0.535,1.389,0.822,2.75,0.785,4.07c-0.084,3.992-2.729,7.824-6.838,11.59c-6.742-5.646-12.828-11.307-15.373-16.734
		l-0.047-0.1l-0.492-1.195l-16.076-38.877c3.344,6.281,10.84,12.957,18.361,19.582C73.414,367.598,81.126,374.309,84.46,380.49z"/>
	<path fill="#CE9CC7" stroke="#662D91" stroke-width="2" stroke-miterlimit="10" d="M238.269,375.889"/>
</g>
<g>
	<path fill="#662D91" d="M65.578,302.678c0.314,0.166,0.543,0.502,0.553,0.887l0.408,9.861l9.277,4.912
		c0.445,0.236,0.963,0.248,1.418,0.061c0.189-0.088,0.398-0.215,0.545-0.4l-1.867,3.525c0.195-0.727-0.145-1.477-0.813-1.83
		l-14.01-7.418c-0.668-0.354-1.479-0.213-1.971,0.357l5.039-9.518c0.139-0.26,0.35-0.434,0.605-0.512
		C65.017,302.523,65.318,302.541,65.578,302.678z M65.025,304.168c-0.549-0.174-1.148,0.104-1.412,0.605l-2.328,4.396
		c-0.324,0.613-0.109,1.418,0.504,1.74l4.436,2.35l-0.35-8.002c-0.004-0.217-0.066-0.414-0.166-0.586
		C65.556,304.424,65.316,304.25,65.025,304.168z"/>
	<path fill="#662D91" d="M68.849,295.037l2.164-3.525c1.199-1.949,3.77-2.564,5.719-1.365l9.107,5.592
		c1.951,1.197,2.566,3.768,1.369,5.719l-2.166,3.525c-1.207,1.967-3.777,2.582-5.729,1.385l-9.107-5.594
		C68.255,299.576,67.642,297.006,68.849,295.037z M85.689,297.469l-10.432-6.406c-1.449-0.889-3.346-0.451-4.234,0.998l-1.691,2.756
		c-0.891,1.449-0.424,3.338,1.025,4.229l10.432,6.404c1.449,0.891,3.344,0.451,4.234-0.996l1.693-2.756
		C87.605,300.248,87.138,298.357,85.689,297.469z"/>
	<path fill="#662D91" d="M97.742,286.025l-6.787,9.498c0.139-0.34,0.141-0.701,0.053-1.047c-0.102-0.33-0.318-0.639-0.625-0.859
		l-12.9-9.215c-0.615-0.439-1.436-0.406-1.988,0.076l2.318-3.246c-0.139,0.34-0.15,0.717-0.051,1.047
		c0.088,0.346,0.305,0.656,0.613,0.875l12.916,9.229c0.574,0.385,1.379,0.236,1.781-0.328l2.99-4.186
		c0.365-0.512,0.506-1.107,0.457-1.686c-0.053-0.58-0.326-1.137-0.76-1.576L97.742,286.025z"/>
	<path fill="#662D91" d="M88.224,270.066l12.313,9.998c0.586,0.475,1.41,0.494,2.004,0.029l-0.781,0.963l-0.967,1.189l-0.781,0.963
		c0.332-0.678,0.146-1.479-0.443-1.955l-12.311-9.996c-0.588-0.479-1.412-0.498-2.006-0.031l0.781-0.963L87,269.072l0.781-0.961
		C87.449,268.789,87.636,269.59,88.224,270.066z"/>
	<path fill="#662D91" d="M98.078,256.605l1.797,1.678c-0.504-0.355-1.104-0.514-1.682-0.449c-0.576,0.064-1.133,0.322-1.561,0.783
		l-1.406,1.504l12.527,11.695c0.277,0.26,0.607,0.396,0.951,0.428c0.371,0.033,0.727-0.039,1.031-0.242l-2.725,2.916
		c0.35-0.65,0.219-1.463-0.318-1.965l-12.527-11.697l-1.391,1.49c-0.43,0.461-0.648,1.031-0.672,1.611
		c-0.025,0.582,0.158,1.186,0.545,1.662l-1.795-1.678l3.082-3.301l1.061-1.135L98.078,256.605z"/>
	<path fill="#662D91" d="M104.843,252.467l10.664,11.732c0.508,0.561,1.318,0.703,1.975,0.332l-0.916,0.834l-1.135,1.031
		l-0.918,0.832c0.432-0.619,0.367-1.438-0.143-1.998l-10.662-11.734c-0.51-0.559-1.32-0.701-1.977-0.33l0.916-0.834l1.135-1.031
		l0.918-0.834C104.267,251.086,104.333,251.908,104.843,252.467z"/>
	<path fill="#662D91" d="M120.482,243.381l0.711,0.963l-0.695,1.639l-1.711-2.314c-1.01-1.369-2.949-1.66-4.318-0.65l-2.602,1.924
		c-1.369,1.012-1.643,2.939-0.631,4.307l7.279,9.85c1.01,1.369,2.932,1.672,4.303,0.66l3.09-2.283
		c0.506-0.375,0.826-0.898,0.955-1.465c0.131-0.566,0.043-1.182-0.234-1.732l1.447,1.959l-5.439,4.021
		c-1.857,1.373-4.473,0.98-5.834-0.861l-6.355-8.6c-1.361-1.842-0.969-4.457,0.891-5.83l3.328-2.459
		C116.507,241.148,119.121,241.539,120.482,243.381z"/>
	<path fill="#662D91" d="M142.291,245.92l-3.232,2.338c0.48-0.555,0.506-1.377,0.074-1.973l-6.426-8.885l-3.484,7.939l3.852,5.328
		c0.432,0.596,1.223,0.828,1.9,0.545l-3.252,2.354l0.018-0.014c0.479-0.555,0.506-1.377,0.076-1.975l-7.793-10.773
		c-1.344-1.854-0.924-4.465,0.947-5.82l6.18-4.469c-0.48,0.557-0.508,1.379-0.064,1.99l9.307,12.867
		C140.826,245.969,141.615,246.201,142.291,245.92z M132.498,237.111l-2.684-3.711c-0.406-0.561-1.232-0.664-1.795-0.258
		l-2.518,1.822c-1.379,0.998-1.674,2.92-0.676,4.301l4.188,5.785L132.498,237.111z"/>
	<path fill="#662D91" d="M155.066,236.707l-9.473,6.832c0.242-0.277,0.355-0.619,0.385-0.977c0.01-0.344-0.096-0.707-0.316-1.016
		l-9.277-12.861c-0.443-0.613-1.232-0.846-1.908-0.564l3.236-2.334c-0.242,0.275-0.375,0.631-0.383,0.975
		c-0.029,0.357,0.078,0.721,0.299,1.027l9.287,12.879c0.424,0.549,1.23,0.666,1.793,0.262l4.176-3.012
		c0.512-0.367,0.834-0.889,0.971-1.451c0.137-0.564,0.055-1.182-0.215-1.736L155.066,236.707z"/>
	<path fill="#662D91" d="M179.529,218.846l-3.215,2.365c0.475-0.559,0.496-1.383,0.047-1.992l-9.809-13.33l0.059,0.217l3.74,12.92
		l-11.662-5.893l8.912,12.113c0.287,0.391,0.672,0.629,1.09,0.738c0.42,0.107,0.889,0.074,1.313-0.131l-2.775,2.041
		c0.627-0.672,0.678-1.699,0.119-2.461l-9-12.23c-0.16-0.223-0.344-0.4-0.553-0.508c-0.012-0.016-0.012-0.016-0.012-0.016
		l-0.264-0.146c-0.088-0.012-0.172-0.055-0.26-0.068c-0.42-0.109-0.891-0.076-1.297,0.117l0.66-0.482l1.406-1.035l0.291,0.15
		l11.059,5.605l-3.141-10.936l-0.207-0.707l0.254-0.188l1.979-1.455c-0.492,0.57-0.514,1.393-0.064,2.002l9.396,12.775
		c0.225,0.303,0.537,0.516,0.887,0.6C178.812,219.008,179.191,218.988,179.529,218.846z"/>
	<path fill="#662D91" d="M190.669,207.408l1.467,1.941l-2.414,1.822l-2.346,1.771l-0.25,0.189c-1.844,1.391-4.459,1.027-5.84-0.801
		l-7.994-10.588c-0.229-0.303-0.545-0.512-0.877-0.602c-0.33-0.092-0.709-0.07-1.045,0.078l2.732-2.063l6.584-4.973l1.469,1.943
		c-0.436-0.434-0.998-0.693-1.578-0.729c-0.58-0.037-1.172,0.121-1.674,0.5l-4.105,3.1c-0.553,0.418-0.697,1.236-0.279,1.789
		c0,0,0,0,0.014,0.018l2.631,3.486l2.697-2.037c0.855-0.646,1.125-1.822,0.629-2.791l1.113,1.477l0.189,0.25l1.113,1.475
		c-0.795-0.74-2-0.805-2.855-0.158l-2.697,2.035l5.643,7.475c1.023,1.355,2.965,1.629,4.307,0.615l2.244-1.693l0.453-0.344
		c0.504-0.379,0.816-0.906,0.939-1.473C191.064,208.557,190.968,207.945,190.669,207.408z"/>
	<path fill="#662D91" d="M207.416,197.426l-3.137,2.465c0.457-0.572,0.451-1.395-0.016-1.99l-10.227-13.002l0.064,0.217
		l4.152,12.785l-11.84-5.512l9.293,11.816c0.299,0.377,0.689,0.605,1.111,0.701c0.422,0.094,0.893,0.045,1.307-0.174l-2.707,2.129
		c0.607-0.689,0.625-1.721,0.041-2.463l-9.383-11.93c-0.168-0.215-0.357-0.387-0.57-0.486c-0.012-0.018-0.012-0.018-0.012-0.018
		l-0.268-0.135c-0.088-0.012-0.174-0.051-0.262-0.063c-0.424-0.096-0.893-0.047-1.289,0.16l0.643-0.508l1.369-1.076l0.297,0.141
		l11.229,5.244l-3.49-10.822l-0.23-0.699l0.248-0.195l1.932-1.52c-0.475,0.588-0.469,1.41-0.002,2.004l9.799,12.457
		c0.232,0.299,0.553,0.5,0.902,0.572C206.705,197.611,207.082,197.58,207.416,197.426z"/>
	<path fill="#662D91" d="M201.076,178.018l3.168-2.658c1.754-1.473,4.389-1.24,5.859,0.514l6.869,8.189
		c1.471,1.756,1.24,4.387-0.516,5.859l-3.168,2.658c-1.77,1.484-4.404,1.254-5.875-0.5l-6.869-8.189
		C199.074,182.135,199.304,179.502,201.076,178.018z M216.281,185.656l-7.869-9.38c-1.092-1.303-3.029-1.488-4.332-0.395
		l-2.479,2.078c-1.303,1.094-1.459,3.033-0.365,4.335l7.867,9.381c1.094,1.305,3.031,1.486,4.334,0.395l2.479-2.078
		C217.218,188.9,217.373,186.961,216.281,185.656z"/>
	<path fill="#662D91" d="M229.927,176.15l-12.93-4.366l-0.678,2.282l7.209,7.669c0.346,0.365,0.83,0.544,1.307,0.501
		c0.223-0.01,0.447-0.078,0.66-0.189l-2.908,2.734c0.391-0.627,0.313-1.447-0.191-1.982l-10.879-11.57
		c-0.504-0.535-1.316-0.665-1.969-0.313l7.854-7.383c0.213-0.203,0.482-0.283,0.75-0.275s0.531,0.107,0.732,0.32
		c0.262,0.275,0.338,0.664,0.236,1.018l-1.676,5.701l13.607,4.594c0.75,0.246,1.584,0.184,2.264-0.197l-2.908,2.734
		C230.691,176.932,230.458,176.315,229.927,176.15z M218.345,166.133c0.066-0.206,0.072-0.414,0.021-0.623
		c-0.068-0.254-0.238-0.527-0.469-0.684c-0.467-0.342-1.123-0.273-1.553,0.131l-3.611,3.396c-0.52,0.489-0.574,1.289-0.1,1.794
		l3.453,3.674L218.345,166.133z"/>
	<path fill="#662D91" d="M228.769,150.75c-0.344,0.75-0.375,1.619-0.059,2.393l3.182,7.725l6.686,5.461
		c0.293,0.238,0.633,0.354,0.99,0.348c0.361,0.023,0.709-0.071,1.014-0.311l-2.537,3.105c0.318-0.688,0.133-1.49-0.436-1.955
		l-6.408-5.235l-8.254-2.079c-0.383-0.094-0.787-0.1-1.168-0.03c-0.383,0.067-0.754,0.225-1.088,0.467l2.525-3.089
		c-0.217,0.527,0.086,1.154,0.65,1.291l7.66,1.945l-3.041-7.365c-0.061-0.158-0.164-0.297-0.295-0.402
		c-0.342-0.28-0.852-0.317-1.256-0.023L228.769,150.75z"/>
</g>
<path fill="none" stroke="#662D91" stroke-width="2" stroke-miterlimit="10" d="M342.992,496.008
	c0,9.395-7.615,17.008-17.008,17.008H19.843c-9.395,0-17.008-7.613-17.008-17.008V19.79c0-9.394,7.613-17.008,17.008-17.008h306.141
	c9.393,0,17.008,7.614,17.008,17.008V496.008z"/>
<path fill="none" stroke="#662D91" stroke-width="2" stroke-miterlimit="10" d="M19.843,507.348c-6.252,0-11.339-5.088-11.339-11.34
	V19.79c0-6.252,5.087-11.339,11.339-11.339h306.141c6.252,0,11.34,5.087,11.34,11.339v476.218c0,6.252-5.088,11.34-11.34,11.34
	H19.843z"/>
</svg>
