<?xml version="1.0" encoding="utf-8"?>
<!-- Generator: Adobe Illustrator 16.0.0, SVG Export Plug-In . SVG Version: 6.00 Build 0)  -->
<!DOCTYPE svg PUBLIC "-//W3C//DTD SVG 1.1//EN" "http://www.w3.org/Graphics/SVG/1.1/DTD/svg11.dtd">
<svg version="1.1" id="Layer_1" xmlns="http://www.w3.org/2000/svg" xmlns:xlink="http://www.w3.org/1999/xlink" x="0px" y="0px"
	 width="345.827px" height="515.904px" viewBox="0 0 345.827 515.904" enable-background="new 0 0 345.827 515.904"
	 xml:space="preserve">
<path fill="#FFFFFF" d="M19.842,515.904C8.901,515.904,0,507.003,0,496.062V19.842C0,8.901,8.901,0,19.842,0h306.142
	c10.941,0,19.843,8.901,19.843,19.842v476.219c0,10.941-8.901,19.843-19.843,19.843H19.842z"/>
<path fill="#F3D7E8" stroke="#000000" stroke-miterlimit="10" d="M342.992,496.062c0,9.395-7.615,17.008-17.008,17.008H19.842
	c-9.394,0-17.008-7.613-17.008-17.008V19.842c0-9.393,7.614-17.008,17.008-17.008h306.142c9.393,0,17.008,7.615,17.008,17.008
	V496.062z"/>
<g opacity="0.6">
	<path fill-rule="evenodd" clip-rule="evenodd" fill="#A7A9AC" d="M235.446,158.329c-0.09,0.069-0.18,0.14-0.27,0.22
		c-0.07-0.08-0.15-0.18-0.221-0.28C235.116,158.289,235.276,158.308,235.446,158.329z"/>
	<path fill-rule="evenodd" clip-rule="evenodd" fill="#A7A9AC" d="M318.316,249.829c-0.12-3.461-0.34-6.932-0.771-10.361
		c-0.479-3.83-2.239-7.179-4.689-10.24l-0.25-0.5c-1.58-0.8-2.721-1.39-3.43-1.75c-0.2-3.25,0.05-6.3-0.65-9.109
		c-1.51-6.051-4.22-11.42-10.529-13.98c-0.4-0.17-0.711-0.75-0.91-1.2c-0.86-1.97-1.4-4.13-2.541-5.92
		c-2.609-4.109-6.129-7.109-11.25-7.66c-3.01-5.18-7.359-8.569-13.229-10.02c-0.59-0.15-1.21-0.94-1.479-1.57
		c-1.851-4.279-4.971-7.12-9.521-8.04c-1.479-0.3-2.271-0.88-2.92-2.1c-2.74-5.08-6.681-8.71-12.399-10.15
		c-1.461-0.359-2.94-0.689-4.99-1.16l-0.42-0.09c-1.561-0.45-1.98,0.8-2.98-1.43c-1.93-4.33-7.311-8.53-13.17-6.83
		c-1.391,0.4-2.71,1.06-4.09,1.61c-1.84-2.79-4.37-4.551-7.721-4.88c-3.27-0.33-6.119,0.909-8.27,2.47
		c-1.529-1.59-2.66-3.45-4.311-4.32c-2.06-1.09-4.51-1.689-6.85-1.92c-4.57-0.47-8.91,0.97-13.22,2.311
		c-1.761-2.04-4.22-2.58-6.67-3.12l-1.15-0.011c-1.97-0.18-3.93-0.46-5.909-0.52c-7.5-0.25-14.881,0.32-21.33,4.68
		c-2.42,1.63-4.5,3.771-6.4,5.391c-2.84-0.33-5.54-1.03-8.18-0.87c-6.621,0.41-12.83,2.42-18.32,6.189
		c-1.7,1.16-3.32,1.681-5.32,1.54c-5.24-0.35-10,1.24-13.88,4.63c-4.37,3.82-8.351,8.101-12.51,12.17
		c-0.38,0.381-0.761,1.011-1.181,1.051c-2.58,0.22-4.01,1.96-5.449,3.79c-0.391,0.5-0.95,0.989-1.53,1.21
		c-5.38,2.06-10.17,5.08-14.521,8.779c-4.41,3.73-8.25,7.83-7.129,14.37c-3.77,1.51-6.39,4.12-7.12,8.021
		c-0.66,3.489-0.75,7.09-1.04,10.649c-0.06,0.71,0.38,1.561,0.13,2.15c-0.82,1.9-1.86,3.71-2.96,5.86l-1.22,2.319
		c-1.43,2.771-2.83,5.601-3.83,8.549c-2.36,6.932-2.34,13.701,2.16,19.951c0.26,0.369,0.2,1.029,0.16,1.549
		c-0.27,3-0.87,6.012-0.82,9c0.08,4.801,3.13,7.641,7.96,7.971c3.11,0.221,6.04,0.59,8.34,3.26c1.74,2,4.459,2.52,7,2.23
		c2.09-0.24,3.25,0.619,4.55,1.949c3.739,3.871,7.989,6.611,13.75,5.971c1.03-0.109,2.271,0.189,3.18,0.721
		c5.81,3.389,13.011,2.24,17.37-2.9c0.21,0.9,0.29,1.859,0.66,2.68c0.609,1.301,0.88,2.52,0.66,4.02
		c-0.641,4.141,0.209,7.881,3.689,10.67c5.74,4.602,11.9,6.271,18.881,2.941c2.149-1.041,2.199-0.98,2.879,1.189
		c2.07,6.641,9.721,11.709,15.181,10.83c3.05-0.49,6.2-1.26,8.92-2.631c2.83-1.439,5.351-1.209,8.08-0.35
		c0.59,0.721,1.19,1.43,1.78,2.15c4.26,5.15,8.84,9.891,15.289,12.34c2.061,0.779,4.08,1.67,6.211,2.539
		c-5.03,6.682-3.381,13.301,0.39,19.941c0.67,1.129,1.11,1.41,1.43,1.82c3.56,4.709,7.931,8.568,12.7,11.949
		c5.08,3.59,8.67,8.039,9.6,14.359c0.19,1.33,0.5,2.67,0.95,3.93c0.21,0.58,0.89,0.98,1.351,1.471c0.199-0.67,0.64-1.359,0.57-2
		c-0.16-1.33-0.621-2.629-0.881-3.959c-0.25-1.301-0.58-2.551-1-3.74c0,0,1.86-4.57,6.311-7.09c0.81,1.898,1.43,3.889,1.959,5.93
		c0.621,2.43,1.091,4.91,1.711,7.34c0.109,0.41,0.66,0.709,1,1.061c0.1-0.42,0.35-0.861,0.279-1.23
		c-0.529-2.471-1.1-4.92-1.709-7.361c-0.551-2.17-1.211-4.289-2.08-6.318c2.209-0.971,4.969-1.4,8.33-0.682
		c0.979,4.012,1.959,8.031,2.959,12.041c0.121,0.5,0.57,0.93,0.86,1.391c0.12-0.58,0.46-1.221,0.34-1.74
		c-0.899-3.77-1.771-7.541-2.659-11.301c1.76,0.531,3.659,1.359,5.729,2.58c0.771,2.65,1.68,5.27,2.7,7.859
		c0.16,0.432,1,0.602,1.51,0.881c0.12-0.52,0.311-1.039,0.33-1.57c0.01-0.35-0.18-0.709-0.33-1.049
		c-3.41-7.811-4.45-16.102-5.04-24.5c-0.261-3.801-0.94-7.592-1.63-11.352c-0.77-4.27-3.04-7.889-5.46-11.41
		c1.76-0.379,3.021,0.15,4.01,1.781c0.95,1.58,2.2,2.99,3.38,4.43c3.52,4.311,7.62,7.84,13.28,8.891
		c3.149,0.58,6.351,0.91,9.53,1.299c7.35,0.9,14.66,0.26,21.64-1.98c13.83-4.439,24.431-12.549,28.69-27.209
		c0.43-1.49,0.83-2.99,1.24-4.49c0.219-0.119,0.85-4.66,1.069-4.779c7.97-4.57,10.84-11.08,8.58-20.35
		c-0.57-2.352-1.729-4.561-2.62-6.83c2.279-0.92,4.27-2.182,5.7-4.291c3.659-5.4,5.14-11.48,5.489-17.859
		C318.516,257.798,318.436,253.798,318.316,249.829z M235.176,158.548c-0.07-0.08-0.15-0.18-0.221-0.28
		c0.16,0.021,0.32,0.04,0.49,0.061C235.356,158.398,235.266,158.468,235.176,158.548z"/>
</g>
<g>
	<path fill-rule="evenodd" clip-rule="evenodd" fill="#6D6E71" stroke="#6D6E71" stroke-miterlimit="10" d="M170.943,201.964v0.012
		c0.048-0.005,0.097-0.005,0.146-0.005C171.04,201.971,170.991,201.969,170.943,201.964z"/>
	<path fill="#6D6E71" stroke="#6D6E71" stroke-miterlimit="10" d="M170.943,201.976c0-0.005,0-0.007,0-0.012"/>
	<path fill-rule="evenodd" clip-rule="evenodd" fill="#6D6E71" stroke="#6D6E71" stroke-miterlimit="10" d="M214.174,386.905
		c-0.344-0.346-0.889-0.641-0.996-1.051c-0.623-2.436-1.098-4.91-1.716-7.344c-1.286-5.055-3.241-9.793-6.954-13.65
		c0.143-0.188,0.28-0.373,0.422-0.564c0.627,0.406,1.398,0.688,1.852,1.236c3.091,3.736,4.793,8.15,5.965,12.791
		c0.61,2.439,1.177,4.889,1.704,7.352C214.529,386.048,214.276,386.493,214.174,386.905z"/>
	<path fill-rule="evenodd" clip-rule="evenodd" fill="#6D6E71" stroke="#6D6E71" stroke-miterlimit="10" d="M235.441,158.327
		c-0.086,0.075-0.176,0.148-0.262,0.224c-0.077-0.085-0.156-0.183-0.223-0.279C235.117,158.29,235.277,158.307,235.441,158.327z"/>
	<path fill-rule="evenodd" clip-rule="evenodd" fill="#6D6E71" stroke="#6D6E71" stroke-miterlimit="10" d="M318.309,249.835
		c-0.113-3.465-0.338-6.932-0.766-10.369c-0.477-3.827-2.238-7.177-4.693-10.232l-0.246-0.508c-1.582-0.801-2.725-1.384-3.428-1.741
		c-0.199-3.25,0.051-6.301-0.65-9.113c-1.51-6.048-4.227-11.419-10.531-13.984c-0.402-0.165-0.711-0.744-0.908-1.195
		c-0.863-1.97-1.404-4.133-2.541-5.919c-2.615-4.111-6.133-7.114-11.248-7.663c-3.014-5.182-7.363-8.568-13.229-10.023
		c-0.598-0.149-1.213-0.932-1.482-1.566c-1.852-4.275-4.973-7.119-9.518-8.043c-1.484-0.299-2.277-0.877-2.928-2.094
		c-2.734-5.079-6.678-8.713-12.398-10.153c-1.461-0.364-2.934-0.686-4.99-1.164l-0.421-0.081c-1.559-0.456-1.977,0.793-2.973-1.43
		c-1.938-4.334-7.315-8.535-13.175-6.834c-1.393,0.403-2.713,1.061-4.094,1.607c-1.835-2.789-4.363-4.551-7.717-4.883
		c-3.266-0.324-6.115,0.914-8.271,2.478c-1.526-1.593-2.66-3.452-4.309-4.324c-2.055-1.089-4.51-1.686-6.849-1.924
		c-4.569-0.467-8.911,0.973-13.22,2.316c-1.762-2.037-4.221-2.579-6.674-3.126v2.244c0.779,0.143,1.593,0.191,2.343,0.438
		c3.45,1.145,4.218,3.995,1.761,6.73c-1.276,1.42-2.73,2.677-4.104,4.009l-1.201,1.12c-2.537,1.973-5.074,3.949-7.645,5.945
		c-1.757-3.525-4.961-4.513-8.453-4.789c-2.286-0.179-4.603-0.112-6.893,0.021c-0.568,0.034-1.09,0.769-1.631,1.18
		c0.574,0.317,1.138,0.88,1.723,0.909c2.53,0.12,5.074-0.071,7.592,0.131c4.824,0.384,6.33,2.861,6.7,7.32
		c0.403,4.868-1.82,8.911-4.798,12.474c-1.846,2.209-3.99,4.264-6.314,5.958c-2.947,2.145-4.559,4.837-5.295,8.345
		c-1.365,6.527-4.744,7.539-9.623,3.021c-0.273-0.253-0.504-0.667-0.817-0.735c-0.478-0.107-1.007,0.023-1.511,0.054
		c0.045,0.491-0.094,1.159,0.176,1.446c0.828,0.889,1.809,1.627,2.995,2.646c-1.712,0.18-3.093,0.324-4.469,0.47
		c-6.028,0.627-9.024-4.666-9.038-9.02c-0.012-3.383,0.503-6.768,0.73-10.154c0.029-0.433-0.27-0.888-0.414-1.336
		c-0.25,0.407-0.68,0.795-0.731,1.227c-0.418,3.605-1.604,4.775-5.237,5.089c-2.063,0.18-3.384-0.88-4.313-2.629
		c-0.193,0.037-0.389,0.071-0.582,0.108c0.061,0.58-0.063,1.275,0.213,1.719c1.089,1.758,3.622,2.47,6.182,1.82
		c0.943-0.238,1.861-0.596,2.994-0.965c-0.451,6.064-0.328,11.862,6.388,15.159c-5.142,4.991-3.734,10.911-2.925,16.761
		c0.298,0.029,0.601,0.06,0.902,0.09c0-1.242,0.176-2.518-0.033-3.727c-0.754-4.391-0.492-8.521,2.705-11.971
		c0.417-0.451,1.148-0.75,1.775-0.844c1.637-0.242,3.297-0.399,4.953-0.465c1.862-0.08,3.727-0.02,5.611-0.02
		c0.406,4.853-0.829,9.068-2.765,13.127c-2.156,4.524-3.536,9.266-3.151,14.294c0.29,3.807,1.114,7.563,1.596,11.357
		c0.295,2.33,0.578,4.689,0.529,7.027c-0.059,3.074-2.365,4.295-5.043,2.865c-0.381-0.207-0.734-0.455-1.111-0.664
		c-1.738-0.967-2.209-0.623-2.392,1.381c-0.54,5.84-2.282,11.014-8.132,13.734c-2.877,1.336-5.917,1.078-8.945,0.918
		c-0.217-0.012-0.497-0.16-0.623-0.336c-1.452-1.992-3.559-2.398-5.842-2.701c-2.627-0.346-4.052-2.703-4.014-6.396
		c0.032-3.627-0.598-7.092-1.906-10.475c-1.877-4.852-5.824-7.151-10.435-8.663c-0.287-0.094-0.667,0.104-1.003,0.172
		c0.175,0.331,0.268,0.793,0.545,0.965c0.563,0.355,1.208,0.608,1.85,0.807c5.443,1.674,8.251,5.793,8.927,11.008
		c0.563,4.35,0.015,8.844-0.063,13.271c-0.02,0.855-0.148,1.703-0.229,2.574c1.239-0.084,1.303-0.166,1.493-1.879
		c0.097-0.904,0.175-1.807,0.317-3.275c1.582,3.045,4.207,3.01,6.509,3.775c-0.357,0.025-0.79-0.064-1.052,0.107
		c-0.358,0.234-0.742,0.646-0.806,1.029c-0.037,0.236,0.452,0.668,0.791,0.832c0.372,0.18,0.847,0.135,1.275,0.209
		c2.458,0.432,2.955,1.377,2.034,3.719c-1.94,4.936-8.801,10.006-13.747,9.482c-1.507-0.16-2.149,0.459-1.832,2.049
		c-6.312,1.066-12.425,1.082-18.265-2.174c-0.088,0.289-0.182,0.584-0.271,0.875c0.522,0.369,1.019,0.785,1.57,1.102
		c0.578,0.334,1.209,0.578,1.885,0.891c-3.384,1.553-6.029,2.455-12.211-1.381c0.172,0.426,0.221,1.021,0.537,1.25
		c4.111,2.959,8.416,3.574,13.039,1.094c0.625-0.34,1.633-0.111,2.436,0.025c4.61,0.799,9.109,0.207,13.566-1
		c0.363,5.992-1.939,9.344-6.273,10.785c-3.637,1.209-6.895,1.467-10.203-0.813c-1.045-0.721-2.521-1.059-3.823-1.119
		c-7.106-0.344-9.05-1.225-13.452-6.195c0.553-2.113,1.127-3.861,1.398-5.66c0.074-0.496-0.734-1.596-1.16-1.607
		c-1.13-0.029-0.988,0.803-0.771,1.723c0.421,1.799-0.98,3.67-2.851,3.838c-3.151,0.279-6.133,0.137-8.482-2.6
		c-1.69-1.969-4.163-2.623-6.711-2.582c-6.809,0.102-8.39-3.855-7.868-9.332c0.157-1.633,0.597-3.242,0.918-4.918
		c1.257,0.424,2.376,0.908,3.543,1.129c0.411,0.078,0.944-0.496,1.417-0.773c-0.335-0.357-0.604-0.914-1.014-1.053
		c-5.043-1.711-6.834-5.777-7.51-10.518c-1.037-7.266,1.877-13.521,5.496-19.93l0.268-0.593c0.787-1.442,1.458-2.682,2.287-4.204
		c0.593,1.636,1.021,3.068,1.652,4.402c0.22,0.46,0.959,0.675,1.458,1c0.138-0.552,0.493-1.149,0.381-1.641
		c-0.802-3.533-2.07-7.003-2.463-10.569c-0.417-3.793,0.094-7.673,2.048-11.113c0.619-1.089,1.612-2.014,2.57-2.86
		c1.291-1.142,2.462-1.574,3.686,0.399c1.1,1.768,3.95,2.156,5.466,1.033c0.346-0.258,0.537-0.919,0.521-1.384
		c-0.008-0.199-0.81-0.617-1.111-0.516c-0.996,0.332-2.07,1.07-2.865-0.048c-0.898-1.269-1.892-2.665-2.179-4.134
		c-0.533-2.697,0.612-5.156,2.35-7.177c4.089-4.764,9.139-8.308,14.724-11.113c0.351-0.179,0.988-0.399,1.146-0.246
		c1.392,1.366,2.129,0.101,2.85-0.724c1.019-1.156,1.836-2.488,2.843-3.66c1.69-1.955,2.573-1.969,4.521-0.357
		c0.239,0.201,0.904,0.266,1.079,0.093c0.298-0.294,0.548-0.854,0.478-1.245c-0.102-0.571-0.5-1.09-1.172-2.008
		c4.305-3.995,8.441-8.199,12.967-11.929c5.637-4.646,12.154-5.317,19.021-3.022c0.291,0.098,0.582,0.295,0.869,0.287
		c0.771-0.021,1.545-0.126,2.316-0.201c-0.533-0.564-0.98-1.25-1.615-1.656c-0.675-0.438-1.521-0.604-2.521-0.97
		c6.789-4.309,13.836-6.747,21.715-6.148c2.901,0.224,5.155,1.877,7.334,3.679c0.869,0.717,1.962,2.428,3.029,1.215
		c1.242-1.412-1.022-1.818-1.668-2.688c-0.566-0.765-1.504-1.257-2.373-1.943c3.238-4.498,7.692-7.069,12.784-8.431
		c5.552-1.484,11.255-1.566,16.958-0.857c0.676,0.081,1.365,0.047,2.049,0.07c0.008-0.634,0.011-1.266,0.018-1.898
		c-1.969-0.18-3.935-0.459-5.908-0.522c-7.502-0.243-14.881,0.323-21.33,4.683c-2.422,1.633-4.502,3.771-6.401,5.389
		c-2.843-0.328-5.54-1.029-8.185-0.865c-6.614,0.407-12.829,2.414-18.32,6.186c-1.701,1.168-3.316,1.679-5.312,1.545
		c-5.241-0.355-10.001,1.234-13.882,4.629c-4.375,3.823-8.355,8.1-12.515,12.172c-0.381,0.377-0.757,1.012-1.179,1.049
		c-2.578,0.223-4.01,1.961-5.447,3.787c-0.395,0.503-0.95,0.992-1.536,1.215c-5.376,2.053-10.165,5.08-14.519,8.777
		c-4.402,3.734-8.249,7.834-7.125,14.374c-3.775,1.506-6.395,4.117-7.125,8.02c-0.653,3.488-0.747,7.089-1.037,10.644
		c-0.06,0.713,0.38,1.563,0.126,2.147c-0.821,1.906-1.854,3.72-2.958,5.862l-1.219,2.319c-1.433,2.776-2.828,5.604-3.828,8.55
		c-2.357,6.932-2.342,13.699,2.157,19.955c0.265,0.363,0.205,1.033,0.16,1.547c-0.272,3.004-0.865,6.006-0.817,9.002
		c0.082,4.799,3.133,7.639,7.957,7.973c3.111,0.211,6.047,0.59,8.345,3.252c1.734,2.002,4.462,2.525,6.998,2.234
		c2.089-0.24,3.249,0.619,4.548,1.955c3.736,3.869,7.994,6.605,13.754,5.967c1.025-0.115,2.271,0.188,3.174,0.713
		c5.809,3.391,13.012,2.244,17.369-2.891c0.212,0.895,0.291,1.854,0.668,2.676c0.604,1.305,0.88,2.518,0.652,4.023
		c-0.635,4.141,0.213,7.875,3.693,10.666c5.736,4.6,11.9,6.273,18.879,2.936c2.153-1.033,2.205-0.977,2.885,1.199
		c2.066,6.631,9.721,11.701,15.182,10.828c3.048-0.488,6.193-1.258,8.916-2.637c2.831-1.439,5.35-1.209,8.08-0.344
		c0.594,0.715,1.189,1.432,1.783,2.148c4.256,5.15,8.841,9.889,15.287,12.336c2.063,0.785,4.084,1.672,6.211,2.545
		c-5.036,6.676-3.387,13.295,0.388,19.941c0.675,1.129,1.111,1.402,1.429,1.82c3.559,4.709,7.935,8.568,12.706,11.945
		c5.081,3.596,8.671,8.039,9.595,14.357c0.194,1.332,0.504,2.672,0.954,3.938c0.206,0.578,0.885,0.98,1.349,1.465
		c0.203-0.668,0.641-1.361,0.569-1.996c-0.157-1.334-0.626-2.633-0.885-3.961c-1.1-5.678-3.669-10.338-8.415-13.914
		c-4.1-3.092-7.822-6.678-11.673-10.088c-0.738-0.652-1.282-1.521-2.294-2.742l-3.17-4.93c-2.063-4.799-2.649-9.5,0.715-14.008
		c0.615-0.828,1.146-1.385,2.434-0.979c1.626,0.512,3.387,0.66,5.106,0.787c0.507,0.033,1.06-0.545,1.589-0.842
		c-0.467-0.385-0.891-0.863-1.421-1.131c-0.419-0.213-0.967-0.172-1.459-0.236c-6.842-0.906-13.258-3.223-18.809-7.191
		c-3.474-2.484-6.163-6.059-9.202-9.143c1.238-0.023,2.477-0.064,3.715-0.061c7.355,0.029,14-1.791,19.387-7.166
		c0.488-0.488,1.727-0.219,2.619-0.297c1.604,7.035,4.871,12.967,11.15,16.941c3.242,2.053,6.703,3.541,10.449,4.377
		c2.768,2.816,4.722,6.143,6.02,9.852c1.275,3.656,2.687,7.281,3.652,11.02c2.56,9.871,4.906,19.797,7.367,29.695
		c0.127,0.502,0.571,0.932,0.865,1.395c0.121-0.582,0.459-1.221,0.333-1.742c-2.188-9.203-4.265-18.436-6.716-27.564
		c-2.098-7.836-4.191-15.742-9.338-22.334c2.871,0.02,5.735,0.039,8.604,0.053c1.757,3.029,3.92,5.9,5.186,9.125
		c2.447,6.217,2.479,12.947,2.988,19.504c0.551,7.115,2.48,13.801,5.047,20.363c0.168,0.424,1,0.592,1.519,0.879
		c0.119-0.527,0.302-1.047,0.323-1.578c0.016-0.342-0.182-0.705-0.326-1.041c-3.41-7.814-4.448-16.102-5.037-24.508
		c-0.265-3.801-0.945-7.588-1.631-11.344c-0.775-4.275-3.044-7.895-5.469-11.412c1.768-0.377,3.025,0.15,4.012,1.779
		c0.953,1.582,2.203,2.992,3.379,4.432c3.521,4.313,7.621,7.838,13.288,8.891c3.147,0.58,6.345,0.908,9.526,1.301
		c7.352,0.898,14.656,0.254,21.645-1.984c13.83-4.439,24.43-12.553,28.684-27.209c0.432-1.492,0.83-2.992,1.244-4.488
		c0.217-0.119,0.852-4.662,1.072-4.783c7.967-4.572,10.84-11.082,8.578-20.35c-0.57-2.348-1.734-4.557-2.625-6.832
		c2.277-0.922,4.271-2.178,5.699-4.287c3.66-5.402,5.141-11.482,5.496-17.857C318.516,257.798,318.436,253.806,318.309,249.835z
		 M140.612,211.969c1.498-3.778,2.391-7.62,2.439-11.688c0.007-0.659,0.465-1.439,0.947-1.942c1.79-1.87,2.692-4.175,3.055-6.61
		c0.43-2.88,1.966-4.778,4.252-6.395c5.664-4,9.875-9.14,11.58-15.984c0.41-1.641,0.369-3.45,0.231-5.159
		c-0.12-1.437,0.392-2.313,1.462-3.106c1.787-1.325,3.521-2.713,5.281-4.074l1.191-1.098c1.727-1.566,3.492-3.092,5.17-4.71
		c1.775-1.714,2.57-3.839,2.286-6.323c3.48-0.766,6.932-1.772,10.453-2.221c3.026-0.389,6.051,0.273,8.644,2.074
		c2.174,1.511,2.704,4.754,1.32,7.372c-1.825,3.442-6.186,5.11-9.889,3.876c-0.657-0.221-1.452-0.027-2.184-0.022
		c0.262,0.698,0.527,1.398,0.807,2.149c-8.178,4.756-11.277,12.436-10.609,21.766c0.189,2.674,1.6,5.252,2.373,7.896
		c0.183,0.623,0.115,1.352,0.037,2.012c-0.176,1.458-0.694,2.922-0.598,4.35c0.262,3.879-1.82,7.184-6.793,6.547
		c-0.22-0.027-0.439-0.022-0.664-0.015c-0.645-0.024-1.607-0.329-1.607-0.329c-1.533-0.138-3.066-0.418-4.592-0.381
		c-2.48,0.068-3.836,2.582-2.529,5.316c0.242-0.843,0.41-1.336,0.525-1.84c0.414-1.787,1.441-2.588,3.168-2.334
		c0.973,0.146,1.932,0.372,2.895,0.582c0.004,0,0.008,0.004,0.012,0.004c0.045,0.01,0.097,0.021,0.152,0.033
		c0.34,0.082,0.877,0.213,1.515,0.249c0.048,0.005,0.097,0.007,0.146,0.007c0.224-0.007,0.451-0.01,0.683-0.01h0.026
		c1.201-0.008,2.414,0.041,3.555-0.217c2.794-0.622,4.48-3.021,4.604-5.973c0.074-1.809,0.271-3.615,0.429-5.614
		c2.212,2.169,4.126,4.044,6.036,5.916c0.258-0.186,0.514-0.368,0.772-0.555c-0.27-0.44-0.433-1.015-0.817-1.298
		c-10.039-7.514-11.075-23.416-1.977-32.086c2.178-2.073,4.576-3.603,7.96-3.756c4.119-0.191,7.334-2.484,8.853-6.559
		c1.396-3.744,5.676-6.027,9.998-5.219c3.438,0.646,6.4,4.402,6.395,8.121c0,0.434-0.189,0.896-0.08,1.287
		c0.111,0.398,0.481,0.727,0.736,1.086c0.396-0.299,1.109-0.568,1.141-0.895c0.104-1.229-0.078-2.475-0.02-3.705
		c0.027-0.564,0.183-1.381,0.571-1.627c5.999-3.808,12.606,0.566,13.684,5.428c-0.71,0.262-1.495,0.439-2.152,0.836
		c-0.333,0.197-0.43,0.787-0.632,1.196c0.408,0.194,0.836,0.591,1.221,0.55c0.969-0.098,1.921-0.393,2.884-0.608
		c0.16,0.019,0.32,0.036,0.484,0.056c-0.086,0.075-0.176,0.148-0.262,0.224c-0.949,1.376-2.044,2.216-3.923,2.265
		c-3.148,0.082-5.223,2.666-5.513,6.289c-2.538,0.751-5.169,1.242-7.56,2.287c-8.277,3.623-12.09,10.352-12.91,19.104
		c-0.32,3.436-0.738,6.883-1.399,10.266c-1.13,5.774-5.563,7.174-10.412,5.229c-1.942-0.778-3.577-2.342-5.349-3.558
		c-0.492-0.336-0.971-0.705-1.82-1.324c0.082,0.761,0.037,1.018,0.138,1.189c2.291,3.943,8.706,6.52,13.142,5.401
		c2.246-0.566,3.865-1.913,4.566-3.966c0.873-2.543,1.439-5.218,1.854-7.877c0.203-1.289,0.668-1.94,1.852-2.071
		c5.768-0.649,10.475-3.532,14.951-6.949c3.318-2.528,6.831-4.529,11.112-5.171c6.118-0.917,12.685,2.586,15.2,7.469
		c3.137,6.073,4.01,12.426,1.984,19.018c-0.469,1.529-1.424,2.913-2.154,4.359c0.141,0.143,0.283,0.285,0.424,0.426
		c0.504-0.462,1.145-0.839,1.492-1.398c2.492-4.028,3.037-8.49,2.371-13.053c-0.4-2.719-1.391-5.35-1.986-8.047
		c-0.385-1.73-0.631-3.502-0.783-5.268c-0.25-2.842,2.201-4.89,5.219-4.498c0.455,0.061,0.939-0.086,1.414-0.139
		c-0.408-0.36-0.75-0.902-1.223-1.059c-2.008-0.66-3.691,0.242-5.061,1.528c-1.271,1.19-2.252,2.672-1.6,4.624
		c0.074,0.227,0.068,0.48,0.131,0.992c-0.475-0.389-0.795-0.602-1.059-0.866c-5.861-5.939-13.456-7.237-20.868-3.357
		c-2.399,1.253-4.644,2.85-6.817,4.48c-3.672,2.757-7.656,4.744-12.174,5.617c-0.303,0.06-0.615,0.083-0.922,0.097
		c-0.294,0.016-0.593,0.005-0.865,0.005c-1.48-9.894,8.539-21.898,18.164-21.515l0.942-0.178c1.351,2.368,2.426,4.503,5.334,4.887
		c-1.175-1.34-2.126-2.344-2.983-3.418l-0.98-3.768c0.008-0.152,0.018-0.301,0.025-0.453c0.697-2.718,1.951-3.84,4.324-3.878
		l0.32,0.134l4.837,2.12c0.277,0.651,0.554,1.303,0.968,2.275c0.911-2.484-0.063-4.204-2.97-6.032
		c2.059-2.861,2.674-2.905,6.609-2.135c6.331,1.236,10.669,4.888,13.63,10.45c0.807,1.515,1.756,2.954,2.9,4.875
		c0.588-1.028,0.934-1.634,1.361-2.383c4.234,1.011,6.852,3.936,8.035,8.125c1.484,5.245,0.594,10.272-1.932,15.048
		c-0.174,0.324-0.523,0.615-0.561,0.947c-0.082,0.689-0.008,1.402,0.004,2.104c0.574-0.324,1.463-0.515,1.672-0.999
		c1.141-2.649,2.377-5.308,3.059-8.089c0.564-2.301,0.41-4.777,0.578-7.191c5.092-0.209,11.449,6.182,13.984,14.218
		c2.611,8.255,0.287,16.647-5.662,20.46c-1.047-1.707-2.02-3.469-3.186-5.092c-0.361-0.503-1.256-0.622-1.91-0.918
		c0.127,0.738,0.012,1.672,0.422,2.188c2.08,2.621,3.293,5.621,3.25,8.889c-0.07,4.943-0.537,9.879-1.105,14.895
		c-4.029-6.005-10.113-10.311-13.041-17.055c-0.191-0.44-0.955-0.633-1.453-0.943c-0.129,0.537-0.539,1.231-0.336,1.582
		c1.369,2.404,2.695,4.863,4.357,7.064c2.426,3.213,5.217,6.152,7.686,9.338c3.697,4.77,4.529,9.926,1.543,15.409
		c-2.373,4.355-7.164,6.592-12.305,5.766c-5.457-0.881-8.445-3.686-9.527-8.955c-0.148-0.719-0.266-1.441-0.428-2.334
		c3.938,0.525,7.52-0.012,10.551-2.549c2.68-2.236,3.096-6.045,0.879-8.184c-0.336-0.324-1.021-0.283-1.549-0.413
		c0.008,0.526-0.186,1.175,0.049,1.555c1.496,2.402,1.219,4.306-1.18,5.884c-3.412,2.244-7.072,2.791-10.639,0.529
		c-2.432-1.541-4.602-3.5-6.887-5.272c0.135-0.102,0.268-0.201,0.406-0.301c0.074-0.594,0.15-1.191,0.225-1.785
		c-0.607-0.07-1.229-0.252-1.822-0.193c-2.475,0.247-4.881-0.168-6.462-2.077c-2.335-2.827-5.306-3.938-8.753-4.655
		c-3.998-0.829-6.934-3.406-9.053-6.898c-0.656-1.077-0.377-1.689,0.652-2.387c4.637-3.16,6.186-9.469,3.511-14.285
		c-0.313-0.566-1.29-1.322-1.687-1.188c-1.163,0.392-0.494,1.286-0.115,1.965c2.689,4.802,0.429,12.259-7.598,13.94
		c-6.07,1.277-10.92-3.129-11.882-7.781c0.943,0.746,1.646,1.426,2.466,1.9c0.484,0.282,1.152,0.248,1.738,0.357
		c-0.146-0.601-0.095-1.402-0.467-1.772c-3.477-3.458-7.707-4.86-12.553-4.13c-5.518,0.831-8.99,4.033-10.564,9.4
		c-0.188,0.631-1.07,1.484-1.656,1.504c-2.689,0.092-5.387-0.071-8.08-0.153c-0.369-0.011-0.735-0.081-1.104-0.122l-0.893-0.352
		c-1.663-0.735-3.327-1.465-4.995-2.197c0.149-0.133,0.299-0.27,0.452-0.398c-0.119-0.705-0.238-1.41-0.358-2.115
		c-0.653,0.402-1.302,0.801-1.948,1.209c-0.048,0.029-0.063,0.104-0.096,0.156c-5.719,8.621-16.321,11.441-25.658,6.823
		C138.317,218.684,139.305,215.264,140.612,211.969z M170.708,307.636c-0.507-0.057-1.07,0.406-1.607,0.627
		c0.447,0.443,0.836,1.189,1.342,1.287c2.594,0.48,5.213,0.799,8.119,1.211c-7.342,6.98-16.064,6.395-24.76,5.91
		c-0.063-0.25-0.131-0.504-0.193-0.758c2.22-0.611,4.457-1.166,6.65-1.865c0.684-0.221,1.78-0.846,1.762-1.242
		c-0.057-1.227-1.066-0.947-1.974-0.814c-5.233,0.76-9.673,3.523-14.396,5.582c-1.851,0.807-3.764,1.508-5.708,2.061
		c-6.673,1.883-14.247-4.135-15.589-10.02c-0.557-2.441-1.652-3.057-4.033-2.232c-1.451,0.504-2.809,1.303-4.274,1.725
		c-5.181,1.486-12.337-1.117-15.53-5.555c-1.365-1.9-1.719-3.564-1.365-6.533c1.008,0.844,1.937,1.721,2.98,2.43
		c0.314,0.211,0.943-0.045,1.43-0.088c-0.078-0.477,0.012-1.092-0.258-1.41c-1.115-1.314-2.511-2.426-3.487-3.83
		c-2.231-3.211-2.69-6.686-0.993-10.332c0.724-1.557,1.354-3.152,2.026-4.73c3.155-1.627,6.226-3.424,8.157-6.521
		c1.238-1.988,2.164-4.17,3.392-6.582c4.189,0.252,8.714-0.375,12.444-3.666c3.678-3.244,4.958-7.627,5.618-12.436
		c2.909,1.857,5.458,1.633,7.625-1.02c3.376-0.873,6.8-1.6,10.124-2.645c5.879-1.85,7.375-6.93,7.023-11.81
		c-0.122-1.694-0.539-3.562-2.268-4.719c-0.019,1.134,0.235,2.171,0.557,3.189c1.682,5.312-0.676,10.39-5.917,12.179
		c-2.827,0.967-5.801,1.504-8.706,2.232c0.488-5.779-0.892-11.379-1.627-17.042c-0.25-1.943-0.138-3.932-0.193-5.901
		c10.369,4.199,19.133,1.731,26.385-6.241c2.164,0.906,4.248,1.775,6.334,2.648l0.889,0.102c5.363,1.322,10.541,1.268,15.189-2.213
		c0.775-0.581,1.421-1.381,1.984-2.178c0.18-0.256,0.037-1-0.213-1.209c-0.238-0.201-0.98-0.16-1.213,0.066
		c-0.705,0.688-1.271,1.514-2.145,2.07c0.187-2.209,1.295-3.805,2.959-5.003c2.917-2.091,6.199-2.67,9.672-1.917
		c0.538,0.115,1.111,0.877,1.344,1.467c1.69,4.304,4.219,7.814,8.654,9.639c-1.709,8.636-8.273,14.553-16.72,15.314
		c-1.771,0.16-3.569,0.08-5.349,0.018c-1.724-0.063-3.439-0.246-5.265-0.385c1.198-3.013,1.221-5.93,0.337-8.845
		c-0.188-0.615-0.684-1.134-1.041-1.697c-0.045,0.639-0.266,1.32-0.116,1.911c1.75,6.805-1.261,11.907-8.079,13.395l-0.889,0.275
		c-2.439,0-4.774,0.027-7.109-0.006c-1.985-0.029-3.966-0.166-5.955-0.176c-0.384-0.004-0.771,0.344-1.156,0.525
		c0.045,0.15,0.09,0.295,0.131,0.445c2.078,0.168,4.152,0.313,6.227,0.514c0.597,0.061,1.223,0.176,1.768,0.418
		c3.749,1.652,3.652,1.664,3.589,5.719c-0.022,1.563,0.333,3.172,0.753,4.695c0.605,2.201,0.045,4.463-1.768,5.988
		c-1.597,1.348-3.1,0.57-4.637-0.189c-0.389-0.191-0.937-0.064-1.41-0.082c0.269,0.414,0.451,0.936,0.82,1.219
		c0.516,0.4,1.164,0.627,1.762,0.926c-2.078,3.607-5.771,4.887-10.26,3.916c-2.047-0.443-4.196-0.541-6.301-0.566
		c-0.693-0.008-1.491,0.582-2.081,1.086c-3.104,2.641-3.771,2.533-8.603,3.301c0.266-2.709,0.527-5.371,0.783-8.039
		c-0.242-0.066-0.484-0.135-0.73-0.205c-0.272,0.857-0.656,1.693-0.803,2.57c-0.287,1.764-0.373,3.563-0.67,5.324
		c-0.938,5.49-4.56,7.283-9.156,7.848c-0.92,0.117-1.85,0.201-2.756,0.398c-0.354,0.08-0.656,0.426-1.279,0.855
		c5.813,0.635,11.799-1.18,13.836-6.275c0.231-0.574,1.097-1.152,1.742-1.254c3.014-0.477,5.838-1.121,8.244-3.305
		c1.053-0.955,2.82-1.123,4.26-1.648c0.139,0.232,0.276,0.463,0.414,0.693c-0.414,0.471-0.803,0.963-1.25,1.398
		c-2.081,2.037-2.629,4.377-1.488,7.09c0.549,1.301,1.023,2.637,1.611,3.916c0.131,0.279,0.62,0.393,0.944,0.582
		c0.085-0.365,0.329-0.787,0.224-1.082c-0.463-1.27-1.044-2.492-1.547-3.75c-0.859-2.148-0.658-4.092,1.121-5.754
		c0.721-0.672,1.32-1.467,2.049-2.283c4.178,1.402,8.125,1.104,11.415-2.229c1.197-1.211,2.302-2.33,3.938-3.125
		c1.422-0.691,2.276-2.529,3.426-3.912l0.495-0.188c4.552-1.385,9.323,1.578,8.737,5.154c-0.434,2.65-1.754,4.854-3.791,6.611
		c-0.555,0.479-1.148,0.908-1.73,1.373c2.336,2.309,7.543-5.541,6.686-9.904c-0.522-2.668-3.433-4.674-7.271-4.992
		c-0.731-0.059-1.47-0.008-2.302-0.008l-0.955-0.57c-0.754-2.23-1.766-3.98-1.119-6.244c0.541-1.906-0.012-3.764-2.111-5.34
		c1.418-0.072,2.271-0.119,3.23-0.166l0.955-0.15c3.084-0.592,5.67-2.031,7.721-4.42c0.27-0.313,0.949-0.372,1.441-0.376
		c4.371-0.022,8.904,0.742,13.082-0.161c7.908-1.709,13.02-6.931,14.992-14.951c0.071-0.295,0.225-0.57,0.34-0.854
		c2.387-0.146,4.771-0.291,7.359-0.453c1.352,3.054,3.637,5.753,6.851,7.387c2.157,1.102,4.636,1.559,6.927,2.426
		c1.109,0.426,2.346,0.91,3.133,1.738c2.202,2.309,4.524,4.189,7.898,4.309c0.401,0.015,0.819,0.463,1.18,0.771
		c2.582,2.196,5.164,4.395,7.707,6.629c0.377,0.328,0.57,0.861,0.852,1.301v0.006c-0.75,5.93-3.6,9.623-8.791,10.504
		c-5.824,0.992-11.641,1.201-16.098-3.883c-0.176-0.203-0.706-0.094-1.066-0.131c0.025,0.322-0.029,0.688,0.102,0.955
		c0.158,0.32,0.477,0.563,0.732,0.83c3.268,3.461,7.498,3.93,11.931,3.949c6.343,0.025,11.327-2.086,13.831-8.357l3.291,5.977
		c-1.744,1.037-3.588,1.947-5.227,3.133c-5.838,4.227-6.885,11.971-2.482,17.682c0.604,0.783,1.24,1.541,1.859,2.305
		c-1.73,1.035-3.727,1.787-5.148,3.146c-4.198,4.021-8.913,5.469-14.603,4.063c-1.762-0.434-3.717-0.566-5.503-0.299
		c-7.486,1.111-11.855,6.066-14.806,12.582c-0.168,0.369,0.071,0.922,0.119,1.391c0.343-0.279,0.795-0.496,1.011-0.848
		c0.922-1.531,1.649-3.188,2.676-4.635c4.047-5.723,9.43-8.266,16.508-6.83c5.281,1.07,10.093,0.377,14.328-3.508
		c1.883-1.727,4.49-2.67,6.77-3.973c3.854,2.891,8.338,4.43,12.824,5.951h0.004c-2.754,6.879-7.531,11.664-14.615,14
		c-4.865,1.605-9.837,1.234-15.137,0.836c0.631-0.773,1.155-1.232,1.409-1.807c0.187-0.424,0.008-1.006-0.008-1.518
		c-0.488,0.064-1.159-0.061-1.437,0.217c-7.442,7.434-17.085,9.709-26.918,11.463c-7.26,1.295-14.549,0.959-21.826,0.037
		C179.526,308.688,175.121,308.116,170.708,307.636z M307.997,299.657c-1.148,5.799-5.494,8.869-10.676,10.889l-2.119,1.398
		c-0.029,0.951,0.295,1.637,1.219,1.309c1.955-0.693,1.955,0.545,1.721,1.703c-2.234,11.064-7.723,19.824-17.607,25.787
		c-8.965,5.408-18.637,7.352-28.904,6.904c-3.875-0.17-7.754-0.631-11.584-1.246c-5.862-0.939-9.977-4.619-13.448-9.16
		c-1.84-2.41-3.659-4.844-5.573-7.193c-0.402-0.496-1.186-0.688-1.799-1.016c-0.234,0.568-0.474,1.139-0.73,1.75
		c-5.6,0.414-11.304,0.877-16.818-1.055c-8.277-2.9-13.668-8.6-16.063-17.07c-0.1-0.348-0.052-0.738-0.07-1.107
		c5.446,0.096,10.93,0.619,16.34,0.193c9.088-0.713,17.908-2.906,25.818-7.629c2.517-1.504,4.841-1.328,7.389-1.025
		c12.484,1.48,24.68-3.68,29.225-16.57c6.832,1.441,13.713,2.502,20.727,2.182c3.992-0.178,8.049-0.127,11.947-0.865
		c2.74-0.523,5.264-2.201,7.885-3.365C308.042,289.097,309.067,294.267,307.997,299.657z M311.338,230.812
		c2.607,2.791,4.002,6.065,4.307,9.599c0.742,8.717,1.506,17.477,0.031,26.184c-0.826,4.9-2.26,9.666-5.916,13.365
		c-0.543,0.549-1.236,0.947-2.234,1.189c0.168-0.719,0.449-1.439,0.471-2.168c0.014-0.455-0.354-0.92-0.551-1.379
		c-0.441,0.25-1.154,0.402-1.273,0.762c-2.104,6.18-7.01,7.596-12.781,7.756c-2.967,0.08-5.926,0.648-8.887,0.629
		c-3.781-0.025-7.582-0.234-11.326-0.709c-6.021-0.756-11.908-2.166-17.449-4.756c-3.121-1.459-5.967-3.285-7.957-6.223
		c-3.486-5.154-2.35-11.365,2.844-14.805c1.693-1.123,3.572-1.967,5.363-2.941c2.111,0.65,4.184,1.572,6.342,1.9
		c9.428,1.422,14.553-5.168,15.668-11.453c0.326-1.832,0.053-3.768,0.068-5.654c0.021-3.135-0.012-6.271,0.107-9.401
		c0.156-4.004,0.516-7.998,0.639-12c0.037-1.348,0.143-2.317,1.316-3.324c6.959-5.984,8.758-14.322,5.279-23.617
		c-0.303-0.807-0.639-1.601-0.961-2.4c5.303,1.311,10.289,7.307,10.785,12.733c0.367,3.958-0.152,7.427-3.939,9.665
		c-0.309,0.182-0.285,0.926-0.416,1.406c0.441,0.101,0.898,0.316,1.326,0.275c0.395-0.041,0.76-0.361,1.43-0.707
		c-0.188,3.162,0.078,6.285-1.877,8.643c-1.816,2.193-4.225,3.891-6.775,6.162c1.182-0.328,2.105-0.426,2.871-0.828
		c4.678-2.459,6.814-6.527,6.957-11.669c0.053-2.028,0.357-3.827,1.395-5.658c0.881-1.544,1.086-3.474,1.592-5.249
		c4.555,0.854,10.49,10.96,9.152,18.895c-0.586-0.28-1.109-0.514-1.615-0.779c-5.373-2.783-10.445,1.365-10.191,6.129
		c0.129,2.515-0.023,5.088-0.416,7.576c-0.377,2.383-1.859,4.127-4.23,5.024c-0.891,0.34-1.689,0.926-2.424,1.576
		c3.117,0.709,6.316-2.074,8.359-7.178c0.777,1.508,1.52,2.739,2.023,4.059l0.094,1.316c2.355,3.414,0.055,5.836-0.859,8.602
		c2.982-1.066,3.645-5.02,2.922-7.58l-1.08-3.416c-1.451-2.682-3.52-5.67-3.221-9.584c0.174-2.293,0.764-4.268,2.875-5.457
		c2.184-1.231,4.268-0.848,6.246,0.533c0.121,0.139,0.24,0.28,0.365,0.418L311.338,230.812z"/>
	<path fill-rule="evenodd" clip-rule="evenodd" fill="#6D6E71" stroke="#6D6E71" stroke-miterlimit="10" d="M122.243,206.348
		c-0.471,0.313-0.899,0.743-1.414,0.914c-2.033,0.684-4.129,1.189-6.137,1.936c-4.719,1.758-7.621,5.804-7.445,10.805
		c0.104,2.995,0.75,5.969,1.163,8.952c0.071,0.499,0.202,0.991,0.061,1.57c-1.985-0.999-1.298-3.227-2.317-4.707
		c-1.596-0.075-3.301-0.153-5.006-0.247c-0.115-0.004-0.224-0.101-0.336-0.153c-1.992-0.902-3.943-2.216-6.178-0.511
		c-0.123,0.094-0.57-0.236-0.869-0.369c-0.123,0.439-0.294,0.872-0.365,1.321c-0.541,3.429-2.025,6.05-5.678,6.949
		c-1.921,0.474-3.819,1.04-5.729,1.563c-0.101-0.214-0.198-0.426-0.295-0.635c0.466-0.328,0.892-0.78,1.41-0.955
		c1.044-0.355,2.141-0.545,3.212-0.829c4.17-1.111,5.801-3.304,5.969-7.743c0.063-1.63,0.418-3.249,0.936-4.864
		c1.295,1.511,0.18,3.227,0.496,4.793c5.223-1.462,5.883-5.986,6.686-10.263c0.687-3.654,0.705-7.359-0.291-11.026
		c-0.877-3.241-2.629-5.696-5.79-6.99c-2.155-0.885-3.741-2.272-4.662-4.469c-0.911-2.164-2.011-2.667-4.272-2.217
		c-0.6,0.119-1.197,0.272-1.805,0.333c-3.936,0.406-5.379-1.262-4.492-5.152c0.068-0.299,0.068-0.612,0.102-0.914
		c-3.384-0.795-6.11,0.183-7.785,3.032c-1.061,1.799-1.881,3.741-2.697,5.67c-1.68,3.958-4.943,6.081-8.517,7.872
		c-0.149-0.131-0.302-0.258-0.452-0.389c0.295-0.398,0.508-0.97,0.903-1.167c4.309-2.152,6.681-5.782,8.337-10.165
		c1.053-2.791,2.68-5.398,5.924-6.159c1.217-0.287,2.53-0.156,4.31-0.238c-0.959-0.8-1.604-1.22-2.078-1.784
		c-0.239-0.283-0.168-0.827-0.235-1.252c0.366,0.084,0.772,0.097,1.086,0.271c1.933,1.097,2.675,2.775,2.361,4.965
		c-0.09,0.612-0.061,1.242-0.063,1.862c-0.007,2.025,0.384,2.454,2.38,2.38c1.045-0.038,2.078-0.288,3.119-0.361
		c3.051-0.225,3.715,0.338,5.26,3.02c0.75,1.303,1.917,2.706,3.234,3.277c4.883,2.125,7.117,6.031,7.629,10.955
		c0.499,4.816,0.1,9.636-1.609,14.246c-0.402,1.09-0.969,2.115-1.469,3.193c1.646,1.899,4.596,2.477,7.226,1.316
		c-0.813-3.408-0.175-6.695,1.249-9.84c1.225-2.704,3.197-4.746,5.999-5.774c2.827-1.038,5.727-1.87,8.595-2.796
		C122.011,205.833,122.127,206.09,122.243,206.348z"/>
	<path fill-rule="evenodd" clip-rule="evenodd" fill="#6D6E71" stroke="#6D6E71" stroke-miterlimit="10" d="M85.536,203.043
		c-0.705,0.328-1.425,0.971-2.115,0.943c-10.002-0.403-16.225,5.771-21.846,12.721c-2.6,3.215-2.346,6.592,0.019,9.558
		c0.358,0.447,1.306,0.667,1.947,0.61c2.011-0.182,3.999-0.629,6.011-0.79c0.637-0.052,1.32,0.47,1.984,0.728
		c-0.071,0.221-0.143,0.439-0.213,0.664c-1.385,0-2.783-0.119-4.152,0.019c-7.475,0.742-9.527,5.468-10.247,10.89
		c-0.351,2.633-0.089,5.408,0.269,8.068c0.5,3.699,3.384,5.904,5.838,8.34c0.672,0.672,1.242,1.447,1.537,2.438
		c-3.846-2.701-7.695-5.531-8.662-10.428c-1.392-7.023-0.734-13.672,4.95-18.749c-0.858-1.928-1.72-3.861-2.667-5.983
		c-2.97,1.278-5.898,0.656-8.412-1.794c0.052-0.205,0.104-0.406,0.16-0.613c0.646,0.214,1.288,0.449,1.944,0.632
		c1.22,0.343,2.433,0.86,3.67,0.929c1.81,0.104,2.948-0.684,3.615-2.667c1.368-4.089,4.692-6.778,7.853-9.465
		c1.876-1.593,3.965-2.95,6.051-4.271c3.244-2.057,4.711-6.289,3.297-9.842c-0.156-0.387-0.164-0.836-0.238-1.256
		c2.66,1.611,2.697,4.691,0.466,9.513c2.339-0.214,4.569-0.464,6.809-0.593C84.102,202.606,84.823,202.901,85.536,203.043z"/>
	<path fill-rule="evenodd" clip-rule="evenodd" fill="#6D6E71" stroke="#6D6E71" stroke-miterlimit="10" d="M72.606,246.581
		c-0.156,1.328-0.079,2.975,0.586,4.051c1.216,1.977,2.928,3.652,4.461,5.428c0.933,1.082,1.951,2.086,2.85,3.193
		c0.254,0.314,0.221,0.865,0.352,1.447c-2.164-1.885-4.066-3.537-5.861-5.1c-1.592,3.973-0.115,7.379,2.672,10.494
		c1.324,1.477,2.551,3.039,3.774,4.604c0.169,0.211,0.071,0.633,0.094,0.957c-0.313-0.006-0.799,0.119-0.918-0.035
		c-2.614-3.41-6.173-6.254-7.315-10.572c-0.474-1.787,0.18-3.852,0.146-5.787c-0.015-0.902-0.287-1.895-0.731-2.678
		c-1.152-2.016-2.417-3.988-1.316-6.395c0.459-0.996,1.25-1.844,2.06-3.002c-1.529-2.396-1.519-5.313-1.306-8.222
		c0.138-1.933,1.477-3.294,3.36-3.7c1.022-0.225,2.056-0.426,3.093-0.537c0.307-0.034,0.652,0.275,0.98,0.425
		c-0.264,0.282-0.48,0.698-0.809,0.82c-0.57,0.216-1.205,0.245-1.813,0.358c-2.917,0.541-3.638,1.409-3.716,4.313
		c-0.123,4.502,1.921,7.807,5.548,10.274c1.121,0.764,2.264,1.51,3.357,2.32c0.364,0.264,0.604,0.699,0.902,1.059
		c-0.109,0.145-0.213,0.291-0.321,0.436c-0.474-0.17-1.015-0.244-1.407-0.529c-1.998-1.449-3.99-2.916-5.919-4.461
		C74.079,244.683,72.799,244.909,72.606,246.581z"/>
	<path fill-rule="evenodd" clip-rule="evenodd" fill="#6D6E71" stroke="#6D6E71" stroke-miterlimit="10" d="M80.76,178.213
		c5.148-5.41,10.592-8.788,17.771-8.521c4.118,0.152,7.534-1.494,10.532-4.245c2.505-2.298,5.016-4.942,8.579-5.161
		c3.673-0.224,7.39,0.272,11.083,0.494c0.168,0.01,0.311,0.412,0.465,0.633c-0.285,0.154-0.578,0.455-0.853,0.442
		c-1.976-0.099-3.98-0.084-5.915-0.44c-3.676-0.676-6.828,0.31-9.666,2.568c-1.211,0.965-2.387,1.979-3.521,3.034
		c-3.439,3.202-7.714,4.158-12.16,4.123c-4.775-0.036-8.611,1.787-12.037,4.869c-0.735,0.663-1.492,1.322-2.322,1.854
		C82.33,178.112,81.747,178.053,80.76,178.213z"/>
	<path fill-rule="evenodd" clip-rule="evenodd" fill="#6D6E71" stroke="#6D6E71" stroke-miterlimit="10" d="M72.885,272.36
		c-2.033,1.654-4.823,1.332-5.924-0.309c-0.31-0.459-0.556-0.967-0.761-1.48c-0.671-1.695-1.771-2.66-3.712-2.793
		c-2.79-0.191-5.11-1.535-6.711-3.799c-1.066-1.508-2.316-1.955-4.043-1.762c-3.324,0.367-5.82-1.279-7.95-3.568
		c-0.511-0.551-0.69-1.406-1.022-2.123c0.212-0.154,0.425-0.307,0.642-0.459c2.421,3.469,5.401,5.658,9.729,4.564
		c-0.235-2.645-0.496-5.314-0.679-7.994c-0.022-0.299,0.38-0.629,0.585-0.943c0.269,0.336,0.732,0.654,0.765,1.012
		c0.198,1.963,0.187,3.951,0.444,5.9c0.463,3.492,4.305,7.301,7.77,7.707c2.694,0.314,4.684,1.426,5.578,4.119
		c0.521,1.57,1.664,2.004,3.23,1.734C71.364,272.077,71.946,272.265,72.885,272.36z"/>
	<path fill-rule="evenodd" clip-rule="evenodd" fill="#6D6E71" stroke="#6D6E71" stroke-miterlimit="10" d="M123.204,168.413
		c-2.547,4.854-6.907,6.14-11.686,6.512c-6.371,0.496-11.693,3.211-16.366,7.408c-0.319,0.287-0.667,0.585-1.057,0.736
		c-0.282,0.109-0.654-0.016-0.986-0.037c0.097-0.32,0.089-0.781,0.304-0.941c4.123-3.087,7.86-6.826,13.334-7.578
		c2.613-0.359,5.181-1.065,7.795-1.4c2.908-0.371,5.045-1.81,6.764-4.084C121.747,168.444,122.18,167.288,123.204,168.413z"/>
	<path fill-rule="evenodd" clip-rule="evenodd" fill="#6D6E71" stroke="#6D6E71" stroke-miterlimit="10" d="M215.346,281.806
		c-3.168,5.217-7.207,5.684-10.11,1.41c-3.029-4.457-7.337-6.572-12.272-7.949c-3.025-0.846-6.047-1.779-8.391-4.08
		c-2.994-2.943-3.67-7.125-1.723-10.889c1.481-2.857,5.275-4.336,9.222-3.598c1.212,0.225,2.437,0.4,3.629,0.699
		c0.306,0.074,0.519,0.518,1.099,1.133c-2.832-0.182-5.097-0.373-7.365-0.463c-2.566-0.1-4.682,0.811-5.654,3.322
		c-1.105,2.852-1.116,5.662,1.028,8.16c2.032,2.369,4.827,3.328,7.666,4.227c3.63,1.156,7.421,2.012,10.307,4.73
		c1.21,1.139,2.243,2.479,3.276,3.789c2.353,2.986,4.343,3.16,7.117,0.627C213.764,282.386,214.524,282.034,215.346,281.806z"/>
	<path fill-rule="evenodd" clip-rule="evenodd" fill="#6D6E71" stroke="#6D6E71" stroke-miterlimit="10" d="M183.641,294.263
		c-1.425,1.951-7.219,3.32-9.095,1.861c-1.835-1.422-3.313-3.299-4.942-4.984c-0.128-0.131-0.188-0.32-0.303-0.463
		c-3.003-3.828-5.408-4.002-8.222-0.055c-3.216,4.506-7.778,5.527-12.759,5.916c-1.756,0.135-3.514,0.223-5.27,0.332
		c-0.068-0.232-0.131-0.463-0.195-0.699c0.78-0.248,1.549-0.615,2.351-0.734c2.921-0.42,5.876-0.648,8.778-1.174
		c2.047-0.369,3.711-1.521,4.994-3.258c0.877-1.189,1.914-2.291,3.018-3.273c1.873-1.67,3.72-1.814,5.708-0.254
		c1.444,1.129,2.608,2.615,3.872,3.965c0.72,0.766,1.357,1.611,2.094,2.361c1.846,1.889,3.364,2.176,5.838,1.152
		c1.309-0.541,2.611-1.092,4.073-1.707C183.626,293.911,183.723,294.151,183.641,294.263z"/>
	<path fill-rule="evenodd" clip-rule="evenodd" fill="#6D6E71" stroke="#6D6E71" stroke-miterlimit="10" d="M148.668,288.196
		c-3.783,2.441-11.84,4.342-13.824,2.883c1.23-0.305,2.162-0.666,3.118-0.748c8.252-0.713,13.992-5.309,18.552-11.822
		c1.081-1.545,2.338-2.963,3.771-4.76C160.826,276.278,153.186,285.284,148.668,288.196z"/>
	<path fill-rule="evenodd" clip-rule="evenodd" fill="#6D6E71" stroke="#6D6E71" stroke-miterlimit="10" d="M246.862,223.877
		c0.043,2.692-0.988,5.41-1.619,8.095c-0.111,0.478-0.666,0.854-1.014,1.278c-0.182-0.148-0.365-0.294-0.549-0.442
		c0.451-1.329,1.176-2.63,1.299-3.987c0.254-2.738,0.59-5.578,0.143-8.249c-0.617-3.663-2.967-5.226-6.726-5.376
		c-0.373-0.015-0.779,0.064-1.112-0.063c-0.489-0.184-0.921-0.514-1.381-0.779c0.46-0.213,0.921-0.612,1.381-0.605
		C243.211,213.827,246.749,216.513,246.862,223.877z"/>
	<path fill-rule="evenodd" clip-rule="evenodd" fill="#6D6E71" stroke="#6D6E71" stroke-miterlimit="10" d="M244.637,202.006
		c-3.12,4.887-11.84,6.102-15.841,2.521c-1.163-1.045-1.786-2.719-2.55-4.163c-0.128-0.246,0.301-0.783,0.473-1.187
		c0.275,0.277,0.688,0.5,0.81,0.836c1.7,4.656,5.835,6.594,10.826,4.867c1.676-0.581,3.2-1.584,4.808-2.365
		C243.624,202.29,244.143,202.173,244.637,202.006z"/>
	<path fill-rule="evenodd" clip-rule="evenodd" fill="#6D6E71" stroke="#6D6E71" stroke-miterlimit="10" d="M310.524,274.522
		c-0.736-0.557-1.191-0.773-1.463-1.131c-0.789-1.037-1.482-2.137-2.242-3.195c-2.543-3.531-6.145-5.027-10.354-5.355
		c-4.254-0.332-8.195,0.947-12.123,2.309c-0.701,0.242-1.379,0.561-2.098,0.736c-0.334,0.082-0.729-0.096-1.104-0.154
		c0.197-0.324,0.328-0.869,0.598-0.951c3.543-1.059,7.072-2.186,10.67-3.035c3.385-0.799,6.721,0,9.996,1.121
		c-0.25-4.387,1.35-7.207,4.943-7.848c-0.559,0.758-0.986,1.689-1.701,2.25c-2.627,2.045-2.611,5.223-0.217,7.639
		c1.854,1.869,3.32,4.127,4.928,6.234C310.506,273.335,310.436,273.696,310.524,274.522z"/>
	<path fill-rule="evenodd" clip-rule="evenodd" fill="#6D6E71" stroke="#6D6E71" stroke-miterlimit="10" d="M268.856,331.233
		c-0.34,0.254-0.67,0.684-1.039,0.729c-5.275,0.594-10.553,1.824-15.873,0.742c-4.746-0.971-9.438-2.217-14.143-3.387
		c-6.135-1.529-12.234-3.227-18.404-4.596c-2.497-0.553-5.141-0.43-7.72-0.613c-0.035-0.23-0.073-0.461-0.11-0.693
		c0.56-0.131,1.114-0.369,1.674-0.375c5.416-0.08,10.666,0.949,15.859,2.416c6.736,1.902,13.42,4.07,20.262,5.477
		c3.992,0.82,8.242,0.459,12.373,0.465c1.967,0,3.934-0.412,5.902-0.57C268.032,330.798,268.45,331.093,268.856,331.233z"/>
	<path fill-rule="evenodd" clip-rule="evenodd" fill="#6D6E71" stroke="#6D6E71" stroke-miterlimit="10" d="M276.717,305.431
		c-0.168,0.443-0.205,1.057-0.525,1.307c-3.25,2.57-7.031,4.07-11.004,5.021c-2.688,0.645-5.451,0.945-7.555,1.297
		c-4-0.311-7.313-0.668-10.238-2.492c-0.424-0.264-0.635-0.869-0.951-1.316c0.525,0.074,1.121,0.008,1.553,0.248
		c4.857,2.641,9.994,2.426,15.146,1.4c4.494-0.895,8.789-2.395,12.455-5.318C275.848,305.378,276.336,305.474,276.717,305.431z"/>
	<path fill-rule="evenodd" clip-rule="evenodd" fill="#6D6E71" stroke="#6D6E71" stroke-miterlimit="10" d="M171.771,201.961
		c-0.235,0.022-0.463,0.022-0.683,0.01C171.312,201.964,171.54,201.961,171.771,201.961z"/>
</g>
<g>
	<path fill="#CE9CC7" stroke="#662D91" stroke-width="2" stroke-miterlimit="10" d="M234.083,122.98l0.152,0.538
		c0.516,1.946,0.774,4.147,0.701,6.672c-0.104,3.385-2.889,7.905-7.638,13.192c-2.699-1.502-5.117-3.054-6.732-5.119
		c-0.372-0.477-0.674-1.028-0.891-1.655l-0.004-0.009l-0.002-0.022l-0.363-1.468l-0.01-0.017l-0.009-0.054l-8.733-35.149
		c0.211,0.876,0.537,1.646,1,2.277c2.976,4.087,9.018,6.388,14.219,10.061C229.397,114.786,232.596,118.012,234.083,122.98z"/>
	<path fill="#CE9CC7" stroke="#662D91" stroke-width="2" stroke-miterlimit="10" d="M219.307,135.108
		c0.081,0.533,0.194,1.023,0.363,1.468"/>
	<path fill="#CE9CC7" stroke="#662D91" stroke-width="2" stroke-miterlimit="10" d="M243.997,158.934
		c0.086,0.309,0.174,0.617,0.245,0.936"/>
	<path fill="#CE9CC7" stroke="#662D91" stroke-width="2" stroke-miterlimit="10" d="M103.467,421.356
		c0.373,0.675,0.686,1.347,0.937,2.012"/>
	<path fill="#CE9CC7" stroke="#662D91" stroke-width="2" stroke-miterlimit="10" d="M85.401,382.544l18.066,38.813l0.937,2.012
		l0.009,0.018c0.438,1.182,0.697,2.353,0.705,3.492c0.197,15.268-37.023,29.387-50.178,46c-1.343,1.704-2.4,3.401-3.215,5.096
		l-20.536-44.111c1.047-1.041,2.142-2.042,3.265-3.012c11.847-10.203,33.313-22.032,44.895-32.647
		c4.109-3.765,6.755-7.598,6.838-11.589C86.224,385.294,85.936,383.932,85.401,382.544z"/>
	<path fill="#CE9CC7" stroke="#662D91" stroke-width="2" stroke-miterlimit="10" d="M84.527,380.677
		c0.343,0.625,0.627,1.246,0.863,1.85"/>
	<path fill="#CE9CC7" stroke="#662D91" stroke-width="2" stroke-miterlimit="10" d="M234.236,123.518l9.691,35.179l0.069,0.236
		l0.245,0.936c0.415,1.657,0.645,3.516,0.661,5.595c0.118,18.867-82.209,75.771-119.768,104.302
		c-29.531,22.433-51.652,65.771-59.413,91.114c-7.521-6.625-15.018-13.302-18.362-19.582l-0.031-0.053l-0.03-0.073l-1.257-3.056
		l-0.005-0.006c-0.312-1.025-0.468-2.024-0.484-3.021c-0.178-16.124,27.549-77.583,66.075-104.802
		c31.605-22.328,94.003-62.706,115.672-86.905c4.749-5.288,7.534-9.807,7.638-13.192
		C235.01,127.666,234.751,125.464,234.236,123.518z"/>
	<path fill="#CE9CC7" stroke="#662D91" stroke-width="2" stroke-miterlimit="10" d="M46.042,338.116
		c0.286,1.004,0.713,2.028,1.257,3.056"/>
	<path fill="#CE9CC7" stroke="#662D91" stroke-width="2" stroke-miterlimit="10" d="M307.674,44.666l6.963,32.802
		c-14.926-14.214-59.363-0.268-72.121,11.372c-5.793,5.285-12.128,14.33-16.742,23.386c-5.201-3.673-11.243-5.974-14.219-10.061
		c-0.463-0.631-0.789-1.401-1-2.277c-2.378-10.323,12.533-36.046,24.653-46.359C248.356,42.344,293.247,29.939,307.674,44.666z"/>
	<path fill="#CE9CC7" stroke="#662D91" stroke-width="2" stroke-miterlimit="10" d="M63.437,380.175
		c0.138,0.395,0.304,0.794,0.491,1.194"/>
	<path fill="#CE9CC7" stroke="#662D91" stroke-width="2" stroke-miterlimit="10" d="M84.459,380.543l0.067,0.134l0.863,1.85
		l0.011,0.018c0.535,1.388,0.823,2.75,0.785,4.07c-0.083,3.991-2.729,7.824-6.838,11.589c-6.741-5.646-12.828-11.306-15.372-16.733
		l-0.048-0.101l-0.491-1.194L47.36,341.298c3.345,6.28,10.841,12.957,18.362,19.582C73.414,367.651,81.125,374.361,84.459,380.543z"
		/>
	<path fill="#CE9CC7" stroke="#662D91" stroke-width="2" stroke-miterlimit="10" d="M238.268,375.942"/>
</g>
<g>
	<path fill="#662D91" d="M65.577,302.73c0.315,0.167,0.543,0.502,0.553,0.888l0.408,9.861l9.278,4.912
		c0.445,0.236,0.962,0.248,1.417,0.061c0.189-0.089,0.399-0.215,0.545-0.4l-1.867,3.525c0.195-0.727-0.145-1.478-0.813-1.83
		l-14.01-7.418c-0.668-0.354-1.479-0.214-1.971,0.357l5.04-9.519c0.138-0.26,0.35-0.433,0.604-0.511
		C65.017,302.577,65.318,302.595,65.577,302.73z M65.025,304.222c-0.55-0.174-1.148,0.104-1.413,0.605l-2.328,4.396
		c-0.324,0.613-0.108,1.417,0.504,1.74l4.436,2.35l-0.35-8.002c-0.004-0.217-0.065-0.415-0.165-0.586
		C65.555,304.478,65.315,304.304,65.025,304.222z"/>
	<path fill="#662D91" d="M68.849,295.091l2.164-3.525c1.198-1.949,3.769-2.564,5.719-1.365l9.107,5.592
		c1.95,1.197,2.565,3.768,1.368,5.719l-2.165,3.524c-1.208,1.968-3.778,2.583-5.729,1.385l-9.107-5.593
		C68.254,299.63,67.641,297.06,68.849,295.091z M85.689,297.522l-10.433-6.406c-1.449-0.89-3.345-0.452-4.234,0.998l-1.691,2.756
		c-0.89,1.449-0.424,3.337,1.026,4.228l10.431,6.405c1.449,0.89,3.345,0.451,4.234-0.997l1.693-2.755
		C87.605,300.301,87.138,298.411,85.689,297.522z"/>
	<path fill="#662D91" d="M97.741,286.078l-6.786,9.499c0.139-0.34,0.14-0.701,0.052-1.047c-0.101-0.33-0.317-0.64-0.625-0.859
		l-12.899-9.215c-0.615-0.439-1.437-0.407-1.989,0.076l2.318-3.247c-0.139,0.34-0.15,0.718-0.051,1.048
		c0.088,0.346,0.305,0.656,0.613,0.875l12.916,9.228c0.575,0.385,1.379,0.237,1.781-0.327l2.99-4.186
		c0.366-0.512,0.507-1.107,0.457-1.687c-0.053-0.579-0.325-1.136-0.76-1.575L97.741,286.078z"/>
	<path fill="#662D91" d="M88.223,270.12l12.313,9.997c0.587,0.476,1.41,0.495,2.004,0.03l-0.781,0.963l-0.967,1.189l-0.781,0.963
		c0.333-0.678,0.146-1.479-0.442-1.955l-12.312-9.996c-0.587-0.479-1.411-0.498-2.005-0.032l0.781-0.963l0.967-1.19l0.781-0.961
		C87.448,268.842,87.635,269.644,88.223,270.12z"/>
	<path fill="#662D91" d="M98.078,256.659l1.796,1.678c-0.503-0.355-1.103-0.514-1.681-0.449c-0.576,0.064-1.133,0.322-1.562,0.782
		l-1.406,1.504l12.527,11.696c0.277,0.259,0.608,0.396,0.951,0.428c0.372,0.033,0.727-0.039,1.032-0.243l-2.725,2.917
		c0.35-0.65,0.218-1.463-0.319-1.965L94.165,261.31l-1.39,1.489c-0.43,0.461-0.648,1.032-0.673,1.612
		c-0.024,0.582,0.159,1.186,0.546,1.662l-1.795-1.678l3.082-3.301l1.061-1.135L98.078,256.659z"/>
	<path fill="#662D91" d="M104.842,252.521l10.664,11.732c0.508,0.56,1.318,0.703,1.975,0.332l-0.916,0.833l-1.135,1.031
		l-0.918,0.833c0.432-0.619,0.367-1.438-0.142-1.998l-10.663-11.734c-0.509-0.559-1.32-0.701-1.977-0.33l0.917-0.834l1.135-1.031
		l0.917-0.834C104.267,251.14,104.333,251.961,104.842,252.521z"/>
	<path fill="#662D91" d="M120.482,243.435l0.711,0.963l-0.695,1.638l-1.711-2.313c-1.011-1.369-2.95-1.66-4.319-0.65l-2.602,1.924
		c-1.368,1.012-1.643,2.938-0.631,4.307l7.279,9.849c1.011,1.369,2.933,1.673,4.303,0.661l3.091-2.284
		c0.506-0.375,0.826-0.897,0.955-1.464c0.131-0.566,0.042-1.182-0.235-1.732l1.448,1.959l-5.44,4.021
		c-1.857,1.373-4.473,0.98-5.833-0.861l-6.355-8.6c-1.361-1.842-0.969-4.457,0.89-5.83l3.328-2.459
		C116.506,241.201,119.121,241.593,120.482,243.435z"/>
	<path fill="#662D91" d="M142.29,245.973l-3.232,2.339c0.48-0.555,0.507-1.377,0.075-1.973l-6.426-8.885l-3.485,7.939l3.853,5.328
		c0.432,0.596,1.222,0.828,1.899,0.545l-3.251,2.353l0.018-0.013c0.479-0.556,0.506-1.377,0.075-1.975l-7.793-10.773
		c-1.343-1.854-0.924-4.465,0.948-5.82l6.179-4.469c-0.48,0.556-0.508,1.378-0.063,1.99l9.307,12.867
		C140.825,246.022,141.614,246.255,142.29,245.973z M132.498,237.166l-2.684-3.711c-0.406-0.562-1.233-0.665-1.795-0.258
		l-2.519,1.822c-1.378,0.997-1.673,2.92-0.676,4.299l4.188,5.786L132.498,237.166z"/>
	<path fill="#662D91" d="M155.066,236.76l-9.473,6.833c0.241-0.277,0.355-0.62,0.384-0.978c0.011-0.344-0.096-0.707-0.316-1.015
		l-9.276-12.861c-0.443-0.614-1.232-0.846-1.909-0.565l3.237-2.334c-0.242,0.276-0.375,0.632-0.384,0.976
		c-0.029,0.357,0.078,0.72,0.299,1.027l9.288,12.879c0.423,0.549,1.23,0.665,1.793,0.261l4.175-3.01
		c0.512-0.369,0.835-0.889,0.972-1.452c0.137-0.564,0.055-1.181-0.216-1.736L155.066,236.76z"/>
	<path fill="#662D91" d="M179.528,218.898l-3.215,2.366c0.476-0.559,0.496-1.383,0.047-1.991l-9.808-13.332l0.058,0.218
		l3.741,12.919l-11.663-5.892L167.6,225.3c0.287,0.389,0.672,0.627,1.09,0.737c0.42,0.108,0.89,0.075,1.313-0.131l-2.775,2.041
		c0.628-0.671,0.679-1.699,0.119-2.459l-8.999-12.232c-0.161-0.221-0.345-0.399-0.553-0.506c-0.013-0.017-0.013-0.017-0.013-0.017
		l-0.264-0.145c-0.088-0.013-0.172-0.055-0.26-0.069c-0.419-0.109-0.89-0.076-1.296,0.118l0.66-0.484l1.405-1.035l0.292,0.15
		l11.059,5.605l-3.141-10.935l-0.207-0.707l0.253-0.187l1.979-1.456c-0.492,0.571-0.514,1.393-0.065,2.002l9.397,12.774
		c0.224,0.303,0.537,0.517,0.886,0.6C178.812,219.061,179.19,219.042,179.528,218.898z"/>
	<path fill="#662D91" d="M190.668,207.461l1.468,1.942l-2.414,1.823l-2.346,1.771l-0.251,0.189c-1.843,1.391-4.459,1.027-5.839-0.8
		l-7.995-10.589c-0.228-0.302-0.544-0.51-0.876-0.601c-0.331-0.092-0.709-0.071-1.045,0.078l2.731-2.062l6.585-4.972l1.468,1.943
		c-0.436-0.435-0.998-0.694-1.577-0.729c-0.58-0.036-1.172,0.121-1.675,0.5l-4.104,3.1c-0.554,0.418-0.697,1.237-0.279,1.79
		c0,0,0,0,0.013,0.017l2.631,3.486l2.697-2.036c0.855-0.646,1.125-1.823,0.63-2.791l1.113,1.475l0.189,0.251l1.113,1.474
		c-0.795-0.74-2.001-0.804-2.855-0.158l-2.698,2.037l5.643,7.474c1.024,1.356,2.965,1.628,4.307,0.616l2.245-1.695l0.452-0.342
		c0.504-0.38,0.816-0.907,0.94-1.474S190.968,207.998,190.668,207.461z"/>
	<path fill="#662D91" d="M207.415,197.479l-3.137,2.466c0.458-0.573,0.451-1.396-0.015-1.991l-10.227-13.001l0.063,0.217
		l4.152,12.785l-11.839-5.512l9.292,11.815c0.299,0.378,0.69,0.605,1.112,0.701c0.422,0.095,0.893,0.046,1.306-0.173l-2.706,2.128
		c0.606-0.689,0.625-1.72,0.041-2.462l-9.383-11.93c-0.169-0.215-0.358-0.386-0.57-0.486c-0.013-0.018-0.013-0.018-0.013-0.018
		l-0.268-0.136c-0.088-0.012-0.174-0.05-0.262-0.062c-0.423-0.095-0.892-0.047-1.289,0.16l0.643-0.507l1.369-1.076l0.298,0.14
		l11.229,5.244l-3.49-10.823l-0.23-0.698l0.247-0.196l1.932-1.518c-0.475,0.587-0.468,1.409-0.001,2.003l9.798,12.457
		c0.233,0.298,0.553,0.5,0.903,0.573C206.704,197.664,207.082,197.634,207.415,197.479z"/>
	<path fill="#662D91" d="M201.075,178.071l3.169-2.658c1.754-1.473,4.388-1.24,5.858,0.513l6.869,8.19
		c1.472,1.754,1.24,4.387-0.515,5.858l-3.168,2.658c-1.771,1.485-4.404,1.254-5.875-0.5l-6.87-8.19
		C199.074,182.189,199.304,179.556,201.075,178.071z M216.28,185.71l-7.868-9.381c-1.092-1.303-3.029-1.488-4.332-0.394
		l-2.479,2.078c-1.303,1.093-1.459,3.032-0.365,4.336l7.867,9.379c1.093,1.305,3.03,1.488,4.333,0.396l2.479-2.079
		C217.217,188.953,217.373,187.014,216.28,185.71z"/>
	<path fill="#662D91" d="M229.927,176.203l-12.931-4.366l-0.678,2.282l7.209,7.668c0.347,0.366,0.83,0.545,1.307,0.501
		c0.224-0.009,0.448-0.077,0.66-0.188l-2.907,2.735c0.391-0.627,0.312-1.447-0.191-1.983l-10.88-11.57
		c-0.503-0.536-1.316-0.665-1.968-0.313l7.853-7.382c0.214-0.203,0.483-0.284,0.751-0.276c0.268,0.008,0.531,0.107,0.732,0.321
		c0.261,0.275,0.337,0.664,0.236,1.018l-1.677,5.7l13.607,4.594c0.75,0.246,1.584,0.183,2.264-0.197l-2.907,2.733
		C230.691,176.985,230.458,176.368,229.927,176.203z M218.345,166.187c0.066-0.206,0.072-0.414,0.021-0.624
		c-0.068-0.254-0.238-0.527-0.47-0.683c-0.467-0.342-1.123-0.273-1.552,0.131l-3.611,3.396c-0.521,0.49-0.574,1.29-0.1,1.794
		l3.453,3.674L218.345,166.187z"/>
	<path fill="#662D91" d="M228.768,150.803c-0.343,0.751-0.374,1.619-0.058,2.394l3.182,7.725l6.686,5.46
		c0.293,0.239,0.632,0.354,0.989,0.348c0.361,0.023,0.71-0.071,1.014-0.311l-2.537,3.105c0.318-0.688,0.133-1.491-0.436-1.956
		l-6.408-5.235l-8.254-2.079c-0.383-0.095-0.786-0.1-1.168-0.031c-0.382,0.067-0.753,0.225-1.088,0.467l2.525-3.089
		c-0.216,0.528,0.086,1.154,0.651,1.291l7.659,1.945l-3.041-7.366c-0.06-0.157-0.164-0.296-0.294-0.402
		c-0.342-0.28-0.852-0.317-1.256-0.024L228.768,150.803z"/>
</g>
<path fill="none" stroke="#662D91" stroke-width="2" stroke-miterlimit="10" d="M342.992,496.062
	c0,9.395-7.615,17.008-17.008,17.008H19.842c-9.394,0-17.008-7.613-17.008-17.008V19.842c0-9.393,7.614-17.008,17.008-17.008
	h306.142c9.393,0,17.008,7.615,17.008,17.008V496.062z"/>
<path fill="none" stroke="#662D91" stroke-width="2" stroke-miterlimit="10" d="M19.842,507.4c-6.252,0-11.338-5.087-11.338-11.339
	V19.842c0-6.252,5.086-11.338,11.338-11.338h306.142c6.252,0,11.339,5.086,11.339,11.338v476.219
	c0,6.252-5.087,11.339-11.339,11.339H19.842z"/>
</svg>
