<?xml version="1.0" encoding="utf-8"?>
<!-- Generator: Adobe Illustrator 16.0.0, SVG Export Plug-In . SVG Version: 6.00 Build 0)  -->
<!DOCTYPE svg PUBLIC "-//W3C//DTD SVG 1.1//EN" "http://www.w3.org/Graphics/SVG/1.1/DTD/svg11.dtd">
<svg version="1.1" id="Layer_1" xmlns="http://www.w3.org/2000/svg" xmlns:xlink="http://www.w3.org/1999/xlink" x="0px" y="0px"
	 width="566.93px" height="425.197px" viewBox="0 0 566.93 425.197" enable-background="new 0 0 566.93 425.197"
	 xml:space="preserve">
<g>
	<polygon fill="#F6F6F6" points="559.034,35.325 559.034,145.718 381.317,369.61 184.463,369.61 6.746,145.718 6.746,35.325 	"/>
	<g>
		<g>
			<polygon fill="#6D6E71" stroke="#414042" stroke-width="0.2646" points="368.275,172.59 368.275,175.85 366.103,178.682 
				361.752,182.381 356.313,184.119 348.266,186.949 342.607,188.255 346.521,184.772 346.739,182.163 344.131,179.114 
				338.472,176.287 320.851,172.59 302.143,170.85 283.215,170.632 264.289,170.85 245.58,172.59 227.958,176.287 222.3,179.114 
				219.691,182.163 219.909,184.772 223.823,188.255 218.168,186.949 210.119,184.119 204.682,182.381 200.328,178.682 
				198.151,175.85 198.151,172.59 198.155,172.59 198.159,172.586 202.222,170.24 204.812,168.746 211.801,166.871 223.86,163.64 
				236.877,161.714 254.935,160.405 274.949,159.538 283.215,159.319 291.482,159.538 311.5,160.405 329.555,161.714 
				342.574,163.64 354.633,166.871 361.618,168.746 364.213,170.24 			"/>
			<polygon fill="#808285" stroke="#414042" stroke-width="0.2646" points="346.739,182.163 346.521,184.772 342.607,188.255 
				334.122,191.954 328.904,193.258 332.818,190.208 332.6,187.817 327.378,184.554 314.326,182.163 297.791,180.422 
				283.215,180.859 268.639,180.422 252.107,182.163 239.053,184.554 233.835,187.817 233.613,190.208 237.53,193.258 
				232.309,191.954 223.823,188.255 219.909,184.772 219.691,182.163 222.3,179.114 227.958,176.287 245.58,172.59 264.289,170.85 
				283.215,170.632 302.143,170.85 320.851,172.59 338.472,176.287 344.131,179.114 			"/>
			<polygon fill="#939598" stroke="#414042" stroke-width="0.2646" points="332.816,190.21 328.902,193.258 323.463,195.213 
				315.412,196.519 308.019,197.392 302.579,197.608 307.798,195.213 306.93,193.039 303.231,192.169 294.964,190.863 
				283.217,190.647 271.468,190.863 263.202,192.169 259.505,193.039 258.632,195.213 263.854,197.608 258.414,197.392 
				251.018,196.519 242.97,195.213 237.53,193.258 233.613,190.21 233.833,187.819 239.052,184.555 252.106,182.163 268.64,180.421 
				283.217,180.858 297.792,180.421 314.326,182.163 327.378,184.555 332.6,187.819 			"/>
			<polygon fill="#58595B" stroke="#414042" stroke-width="0.2646" points="283.215,137.757 283.215,159.319 274.949,159.538 
				254.935,160.405 236.877,161.714 223.86,163.64 211.801,166.871 204.812,168.746 202.222,170.24 198.159,172.586 
				201.091,169.001 205.223,166.555 210.823,163.909 217.132,160.834 223.438,158.218 234.053,155.601 244.054,153.294 
				252.82,151.295 254.822,150.528 257.13,147.141 261.898,142.682 266.666,139.452 273.127,138.219 278.819,137.757 			"/>
			<polygon fill="#58595B" stroke="#414042" stroke-width="0.2646" points="283.215,137.757 283.215,159.319 291.482,159.538 
				311.497,160.405 329.555,161.714 342.57,163.64 354.629,166.871 361.618,168.746 364.208,170.24 368.271,172.586 
				365.339,169.001 361.207,166.555 355.606,163.909 349.298,160.834 342.993,158.218 332.378,155.601 322.377,153.294 
				313.61,151.295 311.608,150.528 309.3,147.141 304.533,142.682 299.765,139.452 293.304,138.219 287.612,137.757 			"/>
			<polygon fill="#A7A9AC" stroke="#414042" stroke-width="0.2646" points="307.798,195.213 302.579,197.608 297.842,198.6 
				291.92,199.214 274.509,199.214 268.59,198.6 263.854,197.608 258.632,195.213 259.505,193.039 263.202,192.169 271.468,190.863 
				283.217,190.647 294.964,190.863 303.231,192.169 306.93,193.039 			"/>
			<radialGradient id="SVGID_1_" cx="235.4189" cy="235.4131" r="44.0507" gradientUnits="userSpaceOnUse">
				<stop  offset="0.3495" style="stop-color:#C2C2C2"/>
				<stop  offset="0.553" style="stop-color:#CECECE"/>
				<stop  offset="1" style="stop-color:#E5E5E5"/>
			</radialGradient>
			<path fill="url(#SVGID_1_)" d="M282.771,194.932l-54.664,50.303l-33.314,30.658c-2.355-2.555-4.601-5.215-6.727-7.973
				l35.862-27.639L282.771,194.932z"/>
			<radialGradient id="SVGID_2_" cx="295.8359" cy="254.1904" r="42.908" gradientUnits="userSpaceOnUse">
				<stop  offset="0.3495" style="stop-color:#C2C2C2"/>
				<stop  offset="0.553" style="stop-color:#CECECE"/>
				<stop  offset="1" style="stop-color:#E5E5E5"/>
			</radialGradient>
			<path fill="url(#SVGID_2_)" d="M308.901,311.628c-3.373,0.751-6.796,1.358-10.271,1.82l-6.003-44.877l-9.856-73.639
				l16.233,72.504L308.901,311.628z"/>
			<radialGradient id="SVGID_3_" cx="305.7715" cy="251.9209" r="43.4552" gradientUnits="userSpaceOnUse">
				<stop  offset="0.3495" style="stop-color:#C2C2C2"/>
				<stop  offset="0.553" style="stop-color:#CECECE"/>
				<stop  offset="1" style="stop-color:#E5E5E5"/>
			</radialGradient>
			<path fill="url(#SVGID_3_)" d="M328.772,305.322c-3.197,1.333-6.464,2.534-9.797,3.587l-13.709-43.158l-22.495-70.819
				l28.583,68.587L328.772,305.322z"/>
			<radialGradient id="SVGID_4_" cx="315.0039" cy="247.9092" r="43.8485" gradientUnits="userSpaceOnUse">
				<stop  offset="0.3495" style="stop-color:#C2C2C2"/>
				<stop  offset="0.553" style="stop-color:#CECECE"/>
				<stop  offset="1" style="stop-color:#E5E5E5"/>
			</radialGradient>
			<path fill="url(#SVGID_4_)" d="M347.235,295.646c-2.924,1.875-5.933,3.623-9.021,5.24l-20.99-40.121l-34.452-65.833
				l40.051,62.577L347.235,295.646z"/>
			<radialGradient id="SVGID_5_" cx="323.252" cy="242.2832" r="44.0506" gradientUnits="userSpaceOnUse">
				<stop  offset="0.3495" style="stop-color:#C2C2C2"/>
				<stop  offset="0.553" style="stop-color:#CECECE"/>
				<stop  offset="1" style="stop-color:#E5E5E5"/>
			</radialGradient>
			<path fill="url(#SVGID_5_)" d="M363.733,282.907c-2.559,2.358-5.219,4.601-7.974,6.728l-27.637-35.858l-45.352-58.844
				l50.304,54.665L363.733,282.907z"/>
			<radialGradient id="SVGID_6_" cx="330.2793" cy="235.2256" r="44.0483" gradientUnits="userSpaceOnUse">
				<stop  offset="0.3495" style="stop-color:#C2C2C2"/>
				<stop  offset="0.553" style="stop-color:#CECECE"/>
				<stop  offset="1" style="stop-color:#E5E5E5"/>
			</radialGradient>
			<path fill="url(#SVGID_6_)" d="M377.786,267.521c-2.115,2.766-4.347,5.434-6.694,7.999l-33.441-30.517l-54.879-50.071
				l59.038,45.1L377.786,267.521z"/>
			<radialGradient id="SVGID_7_" cx="335.8672" cy="226.9492" r="43.8424" gradientUnits="userSpaceOnUse">
				<stop  offset="0.3495" style="stop-color:#C2C2C2"/>
				<stop  offset="0.553" style="stop-color:#CECECE"/>
				<stop  offset="1" style="stop-color:#E5E5E5"/>
			</radialGradient>
			<path fill="url(#SVGID_7_)" d="M388.964,249.925c-1.605,3.096-3.342,6.111-5.207,9.041l-38.238-24.246l-62.747-39.788
				l65.982,34.168L388.964,249.925z"/>
			<radialGradient id="SVGID_8_" cx="260.0059" cy="251.9971" r="43.4432" gradientUnits="userSpaceOnUse">
				<stop  offset="0.3495" style="stop-color:#C2C2C2"/>
				<stop  offset="0.553" style="stop-color:#CECECE"/>
				<stop  offset="1" style="stop-color:#E5E5E5"/>
			</radialGradient>
			<path fill="url(#SVGID_8_)" d="M282.771,194.932l-22.192,70.912l-13.527,43.218c-3.336-1.039-6.61-2.224-9.812-3.546
				l17.244-41.876L282.771,194.932z"/>
			<radialGradient id="SVGID_9_" cx="250.7549" cy="248.0273" r="43.8413" gradientUnits="userSpaceOnUse">
				<stop  offset="0.3495" style="stop-color:#C2C2C2"/>
				<stop  offset="0.553" style="stop-color:#CECECE"/>
				<stop  offset="1" style="stop-color:#E5E5E5"/>
			</radialGradient>
			<path fill="url(#SVGID_9_)" d="M282.771,194.932l-34.167,65.977l-20.823,40.213c-3.098-1.607-6.114-3.344-9.043-5.208
				l24.248-38.239L282.771,194.932z"/>
			<radialGradient id="SVGID_10_" cx="242.4775" cy="242.4395" r="44.0483" gradientUnits="userSpaceOnUse">
				<stop  offset="0.3495" style="stop-color:#C2C2C2"/>
				<stop  offset="0.553" style="stop-color:#CECECE"/>
				<stop  offset="1" style="stop-color:#E5E5E5"/>
			</radialGradient>
			<path fill="url(#SVGID_10_)" d="M282.771,194.932l-45.1,59.036l-27.487,35.979c-2.763-2.115-5.434-4.349-8-6.693l30.517-33.443
				L282.771,194.932z"/>
			<radialGradient id="SVGID_11_" cx="229.7939" cy="227.1631" r="43.8491" gradientUnits="userSpaceOnUse">
				<stop  offset="0.3495" style="stop-color:#C2C2C2"/>
				<stop  offset="0.553" style="stop-color:#CECECE"/>
				<stop  offset="1" style="stop-color:#E5E5E5"/>
			</radialGradient>
			<path fill="url(#SVGID_11_)" d="M282.771,194.932l-62.576,40.051l-38.136,24.411c-1.875-2.922-3.627-5.931-5.244-9.019
				l40.12-20.996L282.771,194.932z"/>
			<radialGradient id="SVGID_12_" cx="283.0264" cy="254.7119" r="42.4316" gradientUnits="userSpaceOnUse">
				<stop  offset="0.3495" style="stop-color:#C2C2C2"/>
				<stop  offset="0.553" style="stop-color:#CECECE"/>
				<stop  offset="1" style="stop-color:#E5E5E5"/>
			</radialGradient>
			<path fill="url(#SVGID_12_)" d="M288.241,314.364c-1.813,0.087-3.638,0.128-5.47,0.128c-1.66,0-3.314-0.032-4.96-0.103
				l1.879-45.236l3.081-74.221l3.397,74.206L288.241,314.364z"/>
			<radialGradient id="SVGID_13_" cx="269.9541" cy="254.2227" r="42.8935" gradientUnits="userSpaceOnUse">
				<stop  offset="0.3495" style="stop-color:#C2C2C2"/>
				<stop  offset="0.553" style="stop-color:#CECECE"/>
				<stop  offset="1" style="stop-color:#E5E5E5"/>
			</radialGradient>
			<path fill="url(#SVGID_13_)" d="M282.771,194.932l-9.54,73.679l-5.817,44.902c-3.474-0.442-6.906-1.039-10.278-1.776
				l9.706-44.231L282.771,194.932z"/>
		</g>
		<path fill="#BCBEC0" stroke="#000000" stroke-width="0.25" stroke-miterlimit="10" d="M282.861,281.779
			c0.011,0.02,0.018,0.04,0.029,0.06c0,0.004-0.003,0.004-0.003,0.008c-0.011,0.01-0.019,0.027-0.026,0.042V281.779z"/>
		<path fill="#BCBEC0" stroke="#000000" stroke-width="0.25" stroke-miterlimit="10" d="M282.919,281.779v0.109
			c-0.008-0.015-0.014-0.032-0.026-0.042c0-0.004-0.003-0.004-0.003-0.008C282.901,281.819,282.908,281.799,282.919,281.779z"/>
		<g>
			<path fill="#FFFFFF" stroke="#000000" stroke-width="0.25" stroke-miterlimit="10" d="M356.627,336.034
				c-0.993,0.067-1.988,0.146-2.995,0.23c-6.116,0.511-12.537,1.287-19.125,2.333c-21.806,3.475-40.383,9.165-51.185,15.086
				c-0.059,0.03-0.119,0.063-0.178,0.096c-0.046,0.027-0.094,0.052-0.142,0.078c-0.006,0.006-0.014,0.006-0.022,0.011
				c-0.039,0.025-0.079,0.044-0.12,0.066c0.062-0.05,0.127-0.098,0.196-0.144c0.004-0.005,0.01-0.01,0.014-0.012
				c0.593-0.446,1.229-0.896,1.905-1.345c0.433-0.294,0.883-0.586,1.352-0.879c0.175-0.113,0.355-0.221,0.537-0.333
				c0.35-0.21,0.698-0.423,1.058-0.634c2.431-1.425,5.226-2.852,8.322-4.259c0.404-0.183,0.814-0.366,1.236-0.55
				c0-0.003,0.007-0.006,0.011-0.008c0.477-0.208,0.96-0.416,1.446-0.624c2.472-1.054,5.114-2.088,7.9-3.099
				c0.556-0.198,1.119-0.399,1.68-0.595c2.332-0.82,4.76-1.618,7.274-2.392c1.171-0.359,2.358-0.714,3.565-1.062
				c0.462-0.135,0.927-0.265,1.389-0.398c0.494-0.139,0.992-0.277,1.493-0.413c3.234-0.888,6.589-1.731,10.038-2.521
				c3.765-0.865,7.486-1.626,11.131-2.284c1.753-0.318,3.481-0.609,5.192-0.879c1.363-0.215,2.705-0.416,4.039-0.6v-0.002
				l-9.413-50.741l-0.276-1.491l-0.513-2.762l-0.785-4.228l-0.792-4.269c0.818-0.067,1.628-0.132,2.432-0.191l0.857,4.411
				l0.847,4.386l0.518,2.652l0.341,1.771L356.627,336.034z"/>
			<path fill="#FFFFFF" stroke="#000000" stroke-width="0.25" stroke-miterlimit="10" d="M352.641,330.904v0.002
				c-1.334,0.184-2.676,0.385-4.039,0.6c-1.711,0.27-3.439,0.561-5.192,0.879c-3.645,0.658-7.366,1.419-11.131,2.284
				c-3.449,0.79-6.804,1.634-10.038,2.521c-0.501,0.136-0.999,0.274-1.493,0.413c-0.462,0.134-0.927,0.264-1.389,0.398
				c-1.207,0.348-2.395,0.702-3.565,1.062c-2.515,0.773-4.942,1.571-7.274,2.392c-0.561,0.195-1.124,0.396-1.68,0.595
				c-2.786,1.011-5.429,2.045-7.9,3.099c-0.486,0.208-0.97,0.416-1.446,0.624c-0.004,0.002-0.011,0.005-0.011,0.008
				c-0.422,0.184-0.832,0.367-1.236,0.55c-3.097,1.407-5.892,2.834-8.322,4.259c-0.359,0.211-0.708,0.422-1.058,0.634
				c-0.182,0.112-0.362,0.22-0.537,0.333c-0.469,0.293-0.919,0.585-1.352,0.879c-0.677,0.449-1.312,0.898-1.905,1.345
				c-0.004,0.002-0.01,0.007-0.014,0.012c-0.069,0.046-0.135,0.094-0.196,0.144c0.032-0.032,0.062-0.069,0.099-0.102
				c0.017-0.02,0.031-0.034,0.051-0.054c0.13-0.145,0.265-0.286,0.406-0.43c0.084-0.088,0.168-0.175,0.258-0.265
				c0.214-0.216,0.44-0.434,0.673-0.65c0.099-0.094,0.204-0.188,0.309-0.287c0.2-0.185,0.41-0.369,0.625-0.558
				c0.106-0.093,0.214-0.185,0.327-0.277c0.123-0.104,0.244-0.207,0.371-0.311c0.087-0.071,0.174-0.144,0.269-0.218
				c0.073-0.063,0.151-0.128,0.241-0.193c1.217-0.98,2.597-1.973,4.124-2.979c0.338-0.223,0.682-0.445,1.035-0.669
				c0.807-0.512,1.653-1.023,2.533-1.538c0.213-0.125,0.428-0.251,0.646-0.376c0.437-0.249,0.883-0.5,1.334-0.751
				c0.454-0.251,0.915-0.501,1.385-0.752c0.468-0.251,0.945-0.5,1.428-0.751c1.692-0.876,3.482-1.751,5.357-2.616
				c0.52-0.24,1.047-0.479,1.577-0.719c1.115-0.501,2.264-0.997,3.43-1.489c0.85-0.359,1.72-0.716,2.6-1.07
				c0.312-0.124,0.624-0.25,0.938-0.375c0.596-0.235,1.188-0.466,1.791-0.698c0.015-0.005,0.021-0.008,0.032-0.013
				c0.909-0.352,1.835-0.696,2.773-1.043c3.795-1.395,7.799-2.733,11.963-3.996c4.455-1.346,8.856-2.533,13.142-3.549
				c1.712-0.407,3.404-0.786,5.073-1.139l-8.053-46.242l-0.2-1.153l-0.498-2.862l-0.698-4.014l-0.712-4.071l-0.728-4.216
				c1.105-0.174,2.203-0.338,3.286-0.487l0.813,4.393l0.792,4.269l0.785,4.228l0.513,2.762l0.276,1.491L352.641,330.904z"/>
			<path fill="#FFFFFF" stroke="#000000" stroke-width="0.25" stroke-miterlimit="10" d="M347.65,326.067
				c-1.669,0.353-3.361,0.731-5.073,1.139c-4.285,1.016-8.687,2.203-13.142,3.549c-4.164,1.263-8.168,2.602-11.963,3.996
				c-0.938,0.347-1.864,0.691-2.773,1.043c-0.011,0.005-0.018,0.008-0.032,0.013c-0.603,0.232-1.195,0.463-1.791,0.698
				c-0.313,0.125-0.626,0.251-0.938,0.375c-0.88,0.354-1.75,0.711-2.6,1.07c-1.166,0.492-2.314,0.988-3.43,1.489
				c-0.53,0.239-1.058,0.479-1.577,0.719c-1.875,0.865-3.665,1.74-5.357,2.616c-0.482,0.247-0.96,0.498-1.428,0.751
				c-0.47,0.248-0.931,0.498-1.385,0.752c-0.451,0.251-0.897,0.502-1.334,0.751c-0.219,0.125-0.434,0.251-0.646,0.376
				c-0.88,0.515-1.727,1.026-2.533,1.538c-0.354,0.224-0.697,0.446-1.035,0.669c-1.527,1.007-2.907,1.999-4.124,2.979
				c-0.09,0.065-0.168,0.131-0.241,0.193c-0.095,0.074-0.182,0.146-0.269,0.218c-0.127,0.104-0.248,0.207-0.371,0.311
				c-0.113,0.093-0.221,0.185-0.327,0.277c-0.215,0.188-0.425,0.373-0.625,0.558c-0.104,0.099-0.21,0.193-0.309,0.287
				c-0.232,0.217-0.458,0.435-0.673,0.65c-0.09,0.09-0.174,0.177-0.258,0.265c-0.141,0.144-0.275,0.285-0.406,0.43
				c-0.02,0.02-0.034,0.034-0.051,0.054c-0.038,0.032-0.067,0.069-0.099,0.102c0.008-0.017,0.018-0.036,0.032-0.053
				c0.018-0.034,0.033-0.068,0.052-0.103c3.801-7.638,20.503-18.433,42.926-26.995c5.367-2.047,10.677-3.819,15.793-5.3
				l-6.749-42.013l-0.122-0.8l-0.473-2.913l-0.6-3.734l-0.61-3.814l-0.641-3.976l-0.674-4.243c1.409-0.337,2.804-0.648,4.186-0.939
				l0.78,4.457l0.728,4.216l0.712,4.071l0.698,4.014l0.498,2.862l0.2,1.153L347.65,326.067z"/>
			<path fill="#FFFFFF" stroke="#000000" stroke-width="0.25" stroke-miterlimit="10" d="M341.664,321.484
				c-5.116,1.481-10.426,3.251-15.793,5.301c-22.423,8.563-39.125,19.355-42.926,26.995c-0.011,0.015-0.019,0.032-0.025,0.051
				c-0.008,0.014-0.014,0.032-0.026,0.051c-0.003,0.003-0.003,0.003-0.003,0.006c-0.003,0.005-0.003,0.008-0.003,0.008
				c-0.008,0.004-0.008,0.009-0.008,0.009c-0.003,0.004-0.003,0.006-0.003,0.006v0.004c0,0,0,0-0.004,0
				c-0.003,0.004-0.003,0.008-0.003,0.008c-0.004,0.003-0.008,0.007-0.008,0.011v-72.044c0.008-0.015,0.015-0.032,0.026-0.042
				c0-0.004,0.003-0.004,0.003-0.008c0.011-0.02,0.018-0.04,0.029-0.06c0.36-0.726,0.86-1.489,1.5-2.28
				c0.084-0.106,0.172-0.208,0.257-0.313c0.144-0.171,0.292-0.343,0.448-0.518c5.287-5.869,17.451-13.092,32.962-19.012
				c4.4-1.684,8.754-3.137,12.951-4.352l0.758,4.686l0.674,4.244l0.641,3.975l0.61,3.816l0.6,3.732l0.473,2.91l0.122,0.805
				L341.664,321.484z"/>
			<g>
				<path fill="#FFFFFF" stroke="#000000" stroke-width="0.25" stroke-miterlimit="10" d="M361.398,346.907
					c-0.09-0.007-0.178-0.011-0.27-0.015c-0.167-0.01-0.331-0.021-0.497-0.024c-7.337-0.407-15.177-0.528-23.306-0.316
					c-21.118,0.556-40.074,3.227-53.382,7.068c-0.022,0.007-0.04,0.011-0.059,0.019c-0.163,0.039-0.322,0.09-0.486,0.142
					c-0.008,0-0.008,0-0.012,0c-0.002,0-0.006,0.003-0.01,0.006c-0.087,0.022-0.178,0.049-0.269,0.077c-0.004,0-0.004,0-0.007,0.004
					c-0.033,0.003-0.062,0.018-0.094,0.025c-0.004,0-0.004,0.003-0.004,0.003c-0.025,0.004-0.055,0.015-0.08,0.022
					c-0.003,0-0.003,0.004-0.003,0.004c-0.004,0-0.004,0-0.008,0l-0.003,0.003h-0.003c0,0,0,0-0.004,0
					c-0.004,0.004-0.008,0.004-0.011,0.004c-0.011,0.004-0.021,0.004-0.029,0.004c0.004,0,0.008-0.004,0.015-0.008h0.003
					c0.004,0,0.008-0.003,0.011-0.003c0,0,0,0,0.003-0.004h0.004c0,0,0.004,0,0.008-0.004h0.003c0.003,0,0.007-0.004,0.011-0.004
					c0.028-0.011,0.061-0.025,0.094-0.036c0.073-0.029,0.146-0.062,0.222-0.094c0,0,0,0,0.004,0
					c0.196-0.084,0.403-0.164,0.603-0.244c12.219-4.888,30.975-9.008,52.343-10.972c7.442-0.689,14.663-1.062,21.481-1.148
					c0.632-0.01,1.261-0.019,1.879-0.019v-0.003l-12.062-60.763l-0.393-1.963l-0.509-2.568c0.214,0.011,0.427,0.021,0.639,0.036
					l0.514,2.532L361.398,346.907z"/>
			</g>
			<g>
				<path fill="none" stroke="#000000" stroke-width="0.25" stroke-miterlimit="10" d="M341.688,321.474
					c-0.007,0.004-0.017,0.006-0.024,0.01"/>
				<path fill="none" stroke="#000000" stroke-width="0.25" stroke-miterlimit="10" d="M347.725,326.051
					c-0.025,0.007-0.047,0.011-0.072,0.017"/>
				<path fill="none" stroke="#000000" stroke-width="0.25" stroke-miterlimit="10" d="M352.689,330.897
					c-0.017,0.002-0.033,0.005-0.048,0.005"/>
				<path fill="none" stroke="#000000" stroke-width="0.25" stroke-miterlimit="10" d="M356.649,336.028
					c-0.006,0-0.017,0-0.024,0.005"/>
				<path fill="#FFFFFF" stroke="#000000" stroke-width="0.25" stroke-miterlimit="10" d="M362.241,352.457
					c-7.62-0.923-15.783-1.585-24.291-1.918c-20.965-0.826-40.128,0.476-54.318,3.244h-0.004c-0.237,0.044-0.469,0.096-0.708,0.139
					c0,0,0-0.004,0.003-0.004c0.025-0.008,0.055-0.019,0.08-0.022c0,0,0-0.003,0.004-0.003c0.033-0.008,0.061-0.022,0.094-0.025
					c0.003-0.004,0.003-0.004,0.007-0.004c0.091-0.028,0.182-0.055,0.269-0.077c0.004-0.003,0.008-0.006,0.01-0.006
					c0.004,0,0.004,0,0.012,0c0.164-0.052,0.323-0.103,0.486-0.142c0.019-0.008,0.037-0.012,0.059-0.019
					c13.308-3.842,32.264-6.513,53.382-7.068c8.129-0.212,15.969-0.091,23.306,0.316c0.166,0.003,0.33,0.015,0.497,0.024
					L362.241,352.457z"/>
				<path fill="#FFFFFF" stroke="#000000" stroke-width="0.25" stroke-miterlimit="10" d="M359.545,341.396
					c-0.618,0.005-1.247,0.01-1.879,0.021c-6.818,0.087-14.039,0.46-21.481,1.148c-21.368,1.964-40.124,6.082-52.343,10.973
					c-0.2,0.078-0.406,0.16-0.603,0.244c-0.004,0-0.004,0-0.004,0c-0.076,0.03-0.149,0.063-0.221,0.093
					c-0.053,0.02-0.106,0.042-0.154,0.061c0.041-0.022,0.081-0.041,0.12-0.066c0.008-0.005,0.016-0.005,0.022-0.011
					c0.048-0.026,0.095-0.051,0.142-0.078c0.059-0.033,0.12-0.065,0.178-0.096c10.802-5.921,29.379-11.611,51.185-15.086
					c6.588-1.046,13.009-1.822,19.125-2.333c1.007-0.084,2.002-0.163,2.995-0.23l-10.771-55.591l-0.341-1.771l-0.518-2.652
					l-0.847-4.386c0.517-0.006,1.028-0.012,1.544-0.014l0.888,4.48l0.509,2.571l0.393,1.96L359.545,341.396z"/>
				<path fill="none" stroke="#000000" stroke-width="0.25" stroke-miterlimit="10" d="M359.579,341.396c-0.01,0-0.022,0-0.032,0"/>
				<path fill="none" stroke="#000000" stroke-width="0.25" stroke-miterlimit="10" d="M361.448,346.909
					c-0.017,0-0.034-0.003-0.049-0.003"/>
			</g>
			<path fill="#BCBEC0" stroke="#000000" stroke-width="0.25" stroke-miterlimit="10" d="M282.919,353.922v0.011
				c-0.008,0-0.018,0-0.029-0.004c0.003,0,0.007,0,0.011-0.004c0.004,0,0.004,0,0.004,0h0.003l0.003-0.003
				C282.916,353.922,282.916,353.922,282.919,353.922z"/>
			<path fill="#BCBEC0" stroke="#000000" stroke-width="0.25" stroke-miterlimit="10" d="M285.125,278.669
				c-0.156,0.175-0.305,0.347-0.448,0.518c-0.089,0.104-0.173,0.21-0.257,0.313c-0.64,0.791-1.14,1.555-1.5,2.28
				c-0.011,0.02-0.018,0.04-0.029,0.06c-0.011-0.02-0.018-0.04-0.029-0.06c-0.358-0.726-0.86-1.489-1.5-2.28
				c-0.084-0.103-0.168-0.208-0.259-0.313c-0.142-0.171-0.29-0.343-0.446-0.518H285.125z"/>
			<path fill="#FFFFFF" stroke="#000000" stroke-width="0.25" stroke-miterlimit="10" d="M209.153,336.034
				c0.993,0.067,1.988,0.146,2.996,0.23c6.116,0.511,12.537,1.287,19.125,2.333c21.805,3.475,40.383,9.165,51.183,15.086
				c0.06,0.03,0.12,0.063,0.179,0.096c0.046,0.027,0.094,0.052,0.141,0.078c0.007,0.006,0.015,0.006,0.023,0.011
				c0.039,0.025,0.079,0.044,0.12,0.066c-0.063-0.05-0.127-0.098-0.196-0.144c-0.004-0.005-0.012-0.01-0.015-0.012
				c-0.592-0.446-1.228-0.896-1.904-1.345c-0.432-0.294-0.883-0.586-1.352-0.879c-0.175-0.113-0.357-0.221-0.537-0.333
				c-0.35-0.21-0.699-0.423-1.058-0.634c-2.433-1.425-5.227-2.852-8.322-4.259c-0.404-0.183-0.814-0.366-1.236-0.55
				c0-0.003-0.007-0.006-0.011-0.008c-0.476-0.208-0.959-0.416-1.445-0.624c-2.472-1.054-5.114-2.088-7.901-3.099
				c-0.556-0.198-1.119-0.399-1.679-0.595c-2.333-0.82-4.76-1.618-7.274-2.392c-1.171-0.359-2.36-0.714-3.565-1.062
				c-0.461-0.135-0.927-0.265-1.389-0.398c-0.494-0.139-0.992-0.277-1.493-0.413c-3.234-0.888-6.589-1.731-10.038-2.521
				c-3.765-0.865-7.486-1.626-11.131-2.284c-1.752-0.318-3.481-0.609-5.192-0.879c-1.364-0.215-2.705-0.416-4.039-0.6v-0.002
				l9.412-50.741l0.277-1.491l0.512-2.762l0.786-4.228l0.792-4.269c-0.818-0.067-1.628-0.132-2.432-0.191l-0.857,4.411l-0.847,4.386
				l-0.516,2.652l-0.341,1.771L209.153,336.034z"/>
			<path fill="#FFFFFF" stroke="#000000" stroke-width="0.25" stroke-miterlimit="10" d="M213.14,330.904v0.002
				c1.334,0.184,2.675,0.385,4.039,0.6c1.71,0.27,3.439,0.561,5.192,0.879c3.646,0.658,7.367,1.419,11.131,2.284
				c3.449,0.79,6.804,1.634,10.038,2.521c0.501,0.136,0.999,0.274,1.493,0.413c0.461,0.134,0.927,0.264,1.389,0.398
				c1.206,0.348,2.394,0.702,3.565,1.062c2.515,0.773,4.942,1.571,7.274,2.392c0.561,0.195,1.124,0.396,1.679,0.595
				c2.787,1.011,5.429,2.045,7.901,3.099c0.486,0.208,0.97,0.416,1.445,0.624c0.004,0.002,0.011,0.005,0.011,0.008
				c0.422,0.184,0.832,0.367,1.236,0.55c3.096,1.407,5.89,2.834,8.322,4.259c0.359,0.211,0.708,0.422,1.058,0.634
				c0.18,0.112,0.362,0.22,0.537,0.333c0.469,0.293,0.919,0.585,1.352,0.879c0.676,0.449,1.312,0.898,1.904,1.345
				c0.003,0.002,0.011,0.007,0.015,0.012c0.069,0.046,0.134,0.094,0.196,0.144c-0.033-0.032-0.063-0.069-0.099-0.102
				c-0.017-0.02-0.032-0.034-0.051-0.054c-0.13-0.145-0.265-0.286-0.407-0.43c-0.083-0.088-0.167-0.175-0.257-0.265
				c-0.214-0.216-0.44-0.434-0.673-0.65c-0.099-0.094-0.204-0.188-0.309-0.287c-0.199-0.185-0.411-0.369-0.625-0.558
				c-0.106-0.093-0.216-0.185-0.327-0.277c-0.123-0.104-0.244-0.207-0.371-0.311c-0.087-0.071-0.174-0.144-0.269-0.218
				c-0.073-0.063-0.154-0.128-0.241-0.193c-1.217-0.98-2.598-1.973-4.124-2.979c-0.338-0.223-0.684-0.445-1.036-0.669
				c-0.807-0.512-1.653-1.023-2.533-1.538c-0.216-0.125-0.428-0.251-0.647-0.376c-0.437-0.249-0.883-0.5-1.334-0.751
				c-0.454-0.251-0.915-0.501-1.385-0.752c-0.469-0.251-0.944-0.5-1.427-0.751c-1.695-0.876-3.482-1.751-5.357-2.616
				c-0.521-0.24-1.047-0.479-1.577-0.719c-1.116-0.501-2.264-0.997-3.431-1.489c-0.85-0.359-1.719-0.716-2.598-1.07
				c-0.312-0.124-0.625-0.25-0.938-0.375c-0.596-0.235-1.188-0.466-1.792-0.698c-0.014-0.005-0.022-0.008-0.032-0.013
				c-0.909-0.352-1.836-0.696-2.773-1.043c-3.795-1.395-7.8-2.733-11.964-3.996c-4.455-1.346-8.855-2.533-13.141-3.549
				c-1.712-0.407-3.405-0.786-5.073-1.139l8.053-46.242l0.199-1.153l0.498-2.862l0.699-4.014l0.711-4.071l0.727-4.216
				c-1.104-0.174-2.202-0.338-3.285-0.487l-0.814,4.393l-0.792,4.269l-0.786,4.228l-0.512,2.762l-0.277,1.491L213.14,330.904z"/>
			<path fill="#FFFFFF" stroke="#000000" stroke-width="0.25" stroke-miterlimit="10" d="M218.13,326.067
				c1.667,0.353,3.361,0.731,5.073,1.139c4.285,1.016,8.686,2.203,13.141,3.549c4.165,1.263,8.169,2.602,11.964,3.996
				c0.937,0.347,1.864,0.691,2.773,1.043c0.01,0.005,0.018,0.008,0.032,0.013c0.604,0.232,1.196,0.463,1.792,0.698
				c0.313,0.125,0.625,0.251,0.938,0.375c0.879,0.354,1.748,0.711,2.598,1.07c1.167,0.492,2.315,0.988,3.431,1.489
				c0.53,0.239,1.057,0.479,1.577,0.719c1.875,0.865,3.662,1.74,5.357,2.616c0.483,0.247,0.958,0.498,1.427,0.751
				c0.47,0.248,0.931,0.498,1.385,0.752c0.452,0.251,0.898,0.502,1.334,0.751c0.219,0.125,0.431,0.251,0.647,0.376
				c0.879,0.515,1.726,1.026,2.533,1.538c0.352,0.224,0.697,0.446,1.036,0.669c1.526,1.007,2.907,1.999,4.124,2.979
				c0.087,0.065,0.168,0.131,0.241,0.193c0.094,0.074,0.181,0.146,0.269,0.218c0.127,0.104,0.248,0.207,0.371,0.311
				c0.111,0.093,0.221,0.185,0.327,0.277c0.214,0.188,0.425,0.373,0.625,0.558c0.105,0.099,0.21,0.193,0.309,0.287
				c0.232,0.217,0.458,0.435,0.673,0.65c0.09,0.09,0.174,0.177,0.257,0.265c0.142,0.144,0.276,0.285,0.407,0.43
				c0.019,0.02,0.034,0.034,0.051,0.054c0.037,0.032,0.066,0.069,0.099,0.102c-0.008-0.017-0.018-0.036-0.033-0.053
				c-0.018-0.034-0.034-0.068-0.051-0.103c-3.801-7.638-20.504-18.433-42.927-26.995c-5.367-2.047-10.677-3.819-15.794-5.3
				l6.748-42.013l0.125-0.8l0.473-2.913l0.6-3.734l0.61-3.814l0.639-3.976l0.676-4.243c-1.409-0.337-2.804-0.648-4.186-0.939
				l-0.781,4.457l-0.727,4.216l-0.711,4.071l-0.699,4.014l-0.498,2.862l-0.199,1.153L218.13,326.067z"/>
			<path fill="#FFFFFF" stroke="#000000" stroke-width="0.25" stroke-miterlimit="10" d="M282.919,281.889v72.044
				c0-0.004-0.004-0.008-0.008-0.011c0,0,0-0.004-0.003-0.008h-0.003v-0.004c0,0,0,0,0-0.002c0,0,0-0.004-0.004-0.004
				c0,0,0-0.005-0.008-0.009c0,0,0-0.003-0.003-0.008c0-0.003,0-0.003-0.003-0.006c-0.011-0.019-0.019-0.037-0.026-0.051
				c-0.006-0.019-0.014-0.036-0.025-0.051c-3.801-7.64-20.503-18.433-42.926-26.995c-5.368-2.05-10.678-3.819-15.794-5.301
				l6.747-42.011l0.125-0.805l0.473-2.91l0.6-3.732l0.61-3.816l0.641-3.975l0.676-4.244l0.755-4.686
				c4.197,1.215,8.55,2.668,12.951,4.352c15.511,5.92,27.674,13.143,32.962,19.012c0.156,0.175,0.304,0.347,0.446,0.518
				c0.087,0.104,0.175,0.206,0.259,0.313c0.64,0.791,1.142,1.555,1.5,2.28c0.011,0.02,0.018,0.04,0.029,0.06
				c0,0.004,0.003,0.004,0.003,0.008C282.905,281.856,282.911,281.874,282.919,281.889z"/>
			<g>
				<path fill="#FFFFFF" stroke="#000000" stroke-width="0.25" stroke-miterlimit="10" d="M282.919,353.933
					c-0.008,0-0.018,0-0.029-0.004c-0.003,0-0.007,0-0.011-0.004h-0.007l-0.003-0.003c-0.004,0-0.004,0-0.008,0
					c0,0,0-0.004-0.003-0.004c-0.025-0.008-0.055-0.019-0.08-0.022c0,0,0-0.003-0.004-0.003c-0.033-0.008-0.061-0.022-0.095-0.025
					c-0.002-0.004-0.002-0.004-0.006-0.004c-0.091-0.028-0.182-0.055-0.269-0.077c-0.004-0.003-0.007-0.006-0.01-0.006
					c-0.004,0-0.004,0-0.012,0c-0.164-0.052-0.323-0.103-0.486-0.142c-0.019-0.008-0.037-0.012-0.059-0.019
					c-13.308-3.842-32.264-6.513-53.382-7.068c-8.13-0.212-15.968-0.091-23.306,0.316c-0.166,0.003-0.33,0.015-0.498,0.024
					c-0.091,0.004-0.176,0.008-0.269,0.015l13.664-68.238l0.513-2.532c0.215-0.015,0.425-0.025,0.64-0.036l-0.509,2.568
					l-0.393,1.963l-12.062,60.763v0.003c0.618,0,1.248,0.009,1.879,0.019c6.818,0.087,14.039,0.459,21.481,1.148
					c21.369,1.964,40.125,6.084,52.342,10.972c0.201,0.08,0.407,0.16,0.604,0.244c0.004,0,0.004,0,0.004,0
					c0.077,0.032,0.149,0.064,0.221,0.094c0.034,0.011,0.067,0.025,0.095,0.036c0.004,0,0.008,0.004,0.011,0.004
					c0.004,0,0.004,0,0.004,0c0.003,0.004,0.007,0.004,0.007,0.004c0.004,0,0.004,0,0.004,0c0.003,0.004,0.003,0.004,0.003,0.004
					c0.003,0,0.007,0.003,0.011,0.003s0.004,0,0.004,0C282.911,353.929,282.916,353.933,282.919,353.933z"/>
			</g>
			<g>
				<path fill="none" stroke="#000000" stroke-width="0.25" stroke-miterlimit="10" d="M224.117,321.483
					c-0.006-0.004-0.017-0.006-0.024-0.01"/>
				<path fill="none" stroke="#000000" stroke-width="0.25" stroke-miterlimit="10" d="M218.128,326.067
					c-0.025-0.006-0.046-0.01-0.073-0.017"/>
				<path fill="none" stroke="#000000" stroke-width="0.25" stroke-miterlimit="10" d="M213.138,330.902
					c-0.015,0-0.033-0.003-0.047-0.005"/>
				<path fill="none" stroke="#000000" stroke-width="0.25" stroke-miterlimit="10" d="M209.155,336.033
					c-0.007-0.005-0.018-0.005-0.024-0.005"/>
				<path fill="#FFFFFF" stroke="#000000" stroke-width="0.25" stroke-miterlimit="10" d="M282.861,353.922
					c-0.239-0.043-0.472-0.095-0.708-0.139h-0.005c-14.19-2.769-33.353-4.07-54.318-3.244c-8.507,0.333-16.671,0.995-24.292,1.918
					l1.112-5.564c0.168-0.01,0.332-0.021,0.498-0.024c7.338-0.407,15.176-0.528,23.306-0.316
					c21.118,0.556,40.074,3.227,53.382,7.068c0.022,0.007,0.04,0.011,0.059,0.019c0.163,0.039,0.322,0.09,0.486,0.142
					c0.008,0,0.008,0,0.012,0c0.003,0,0.006,0.003,0.01,0.006c0.087,0.022,0.178,0.049,0.269,0.077c0.004,0,0.004,0,0.006,0.004
					c0.034,0.003,0.063,0.018,0.095,0.025c0.004,0,0.004,0.003,0.004,0.003c0.025,0.004,0.055,0.015,0.08,0.022
					C282.861,353.918,282.861,353.922,282.861,353.922z"/>
				<path fill="#FFFFFF" stroke="#000000" stroke-width="0.25" stroke-miterlimit="10" d="M206.235,341.396
					c0.618,0.005,1.248,0.01,1.879,0.021c6.818,0.087,14.039,0.46,21.481,1.148c21.369,1.964,40.125,6.082,52.342,10.973
					c0.201,0.078,0.407,0.16,0.604,0.244c0.004,0,0.004,0,0.004,0c0.076,0.03,0.149,0.063,0.221,0.093
					c0.052,0.02,0.106,0.042,0.154,0.061c-0.041-0.022-0.081-0.041-0.12-0.066c-0.008-0.005-0.016-0.005-0.023-0.011
					c-0.047-0.026-0.094-0.051-0.141-0.078c-0.059-0.033-0.12-0.065-0.179-0.096c-10.8-5.921-29.378-11.611-51.183-15.086
					c-6.588-1.046-13.009-1.822-19.125-2.333c-1.007-0.084-2.002-0.163-2.996-0.23l10.772-55.591l0.341-1.771l0.516-2.652
					l0.847-4.386c-0.516-0.006-1.028-0.012-1.543-0.014l-0.888,4.48l-0.508,2.571l-0.393,1.96L206.235,341.396z"/>
				<path fill="none" stroke="#000000" stroke-width="0.25" stroke-miterlimit="10" d="M206.233,341.396c-0.01,0-0.022,0-0.032,0"/>
				<path fill="none" stroke="#000000" stroke-width="0.25" stroke-miterlimit="10" d="M204.381,346.906
					c-0.015,0-0.032,0.003-0.048,0.003"/>
			</g>
			<path fill="#808285" stroke="#000000" stroke-width="0.25" stroke-miterlimit="10" d="M294.741,355.844
				c0,1.142-5.284,2.064-11.822,2.072h-0.059c-6.538-0.008-11.822-0.931-11.822-2.072h0.843c0.443,0.521,4.06,1.373,10.979,1.498
				h0.059c6.919-0.125,10.535-0.978,10.978-1.498H294.741z"/>
			<linearGradient id="SVGID_14_" gradientUnits="userSpaceOnUse" x1="282.8901" y1="254.0332" x2="282.8901" y2="349.1372">
				<stop  offset="0.2097" style="stop-color:#CCCCCC"/>
				<stop  offset="0.663" style="stop-color:#A6A6A6"/>
				<stop  offset="1" style="stop-color:#8F8F8F"/>
			</linearGradient>
			<path fill="url(#SVGID_14_)" stroke="#000000" stroke-width="0.25" stroke-miterlimit="10" d="M365.272,355.844h-71.375
				c-0.443,0.521-4.059,1.373-10.978,1.498h-0.059c-6.919-0.125-10.535-0.978-10.979-1.498h-71.375l15.452-77.175h2.086
				l-13.664,68.238c0.092-0.007,0.177-0.011,0.269-0.015l-1.112,5.564c7.621-0.923,15.784-1.585,24.292-1.918
				c20.965-0.826,40.127,0.476,54.318,3.244h0.005c0.236,0.044,0.469,0.096,0.708,0.139v0.011c0.008,0,0.018,0,0.029-0.004
				c0.011,0.004,0.021,0.004,0.029,0.004v-0.011c0.24-0.043,0.472-0.095,0.708-0.139h0.004c14.19-2.769,33.353-4.07,54.318-3.244
				c8.508,0.333,16.671,0.995,24.291,1.918l-1.112-5.564c0.092,0.004,0.18,0.008,0.27,0.015l-13.664-68.238h2.086L365.272,355.844z"
				/>
			<path fill="#BCBEC0" stroke="#000000" stroke-width="0.25" stroke-miterlimit="10" d="M282.89,353.929
				c-0.011,0.004-0.021,0.004-0.029,0.004v-0.011c0.004,0,0.004,0,0.008,0l0.003,0.003h0.007
				C282.883,353.929,282.887,353.929,282.89,353.929z"/>
		</g>
		<linearGradient id="SVGID_15_" gradientUnits="userSpaceOnUse" x1="282.8901" y1="231.5762" x2="282.8901" y2="352.9551">
			<stop  offset="0" style="stop-color:#A8A8A8"/>
			<stop  offset="1" style="stop-color:#1F1F1F"/>
		</linearGradient>
		<linearGradient id="SVGID_16_" gradientUnits="userSpaceOnUse" x1="239.4458" y1="275.1338" x2="326.335" y2="275.1338">
			<stop  offset="0" style="stop-color:#858585"/>
			<stop  offset="1" style="stop-color:#000000"/>
		</linearGradient>
		<path fill="url(#SVGID_15_)" stroke="url(#SVGID_16_)" stroke-width="0.25" stroke-miterlimit="10" d="M316.728,272.256
			c-0.101,0-0.202,0.004-0.303,0.007l-0.927-6.063c2.214-1.17,3.723-3.496,3.723-6.178c0-3.861-3.13-6.99-6.993-6.99
			c-1.458,0-2.809,0.445-3.93,1.211l-19.475-17.43c0.668-1.072,1.057-2.341,1.057-3.699c0-3.859-3.13-6.989-6.99-6.989
			s-6.99,3.13-6.99,6.989c0,1.358,0.389,2.627,1.054,3.699l-19.472,17.43c-1.121-0.766-2.476-1.211-3.93-1.211
			c-3.863,0-6.993,3.129-6.993,6.99c0,2.682,1.505,5.008,3.723,6.178l-0.927,6.063c-0.1-0.003-0.202-0.007-0.302-0.007
			c-5.242,0-9.483,4.247-9.483,9.486c0,5.234,4.241,9.481,9.483,9.481c2.859,0,5.422-1.265,7.159-3.264l18.517,16.072
			c-0.747,1.357-1.175,2.921-1.175,4.584c0,4.457,3.074,8.19,7.211,9.209c-6.036,0.156-10.634,0.968-10.634,1.944v4.373h25.517
			v-4.373c0-0.977-4.603-1.788-10.638-1.944c4.142-1.019,7.215-4.752,7.215-9.209c0-1.663-0.429-3.227-1.18-4.584l18.521-16.072
			c1.737,1.999,4.3,3.264,7.16,3.264c5.238,0,9.482-4.247,9.482-9.481C326.21,276.503,321.966,272.256,316.728,272.256z
			 M254.931,274.3c-1.03-0.817-2.233-1.42-3.544-1.752l0.866-5.655c0.419,0.079,0.856,0.12,1.3,0.12c1.607,0,3.09-0.543,4.268-1.457
			l3.493,3.029L254.931,274.3z M276.232,271.12l-6.396,2.14l-5.418-4.699l2.903-2.597l8.588,2.709
			c-0.006,0.105-0.01,0.214-0.01,0.319C275.9,269.735,276.016,270.446,276.232,271.12z M262.857,267.206l-3.609-3.136
			c0.129-0.177,0.244-0.356,0.352-0.545l5.446,1.72L262.857,267.206z M262.876,269.942l4.701,4.074l-10.095,3.381
			c-0.302-0.588-0.669-1.143-1.082-1.653L262.876,269.942z M281.864,299.207c-2.358,0.292-4.446,1.446-5.939,3.138l-18.535-16.081
			c0.73-1.343,1.146-2.883,1.146-4.521c0-0.839-0.109-1.654-0.314-2.429l11.158-3.733l7.337,6.367
			c-0.521,0.976-0.816,2.092-0.816,3.276c0,3.51,2.589,6.416,5.963,6.916V299.207z M281.864,278.308
			c-1.521,0.227-2.886,0.941-3.925,1.981l-6.303-5.466l5.514-1.845c1.074,1.551,2.761,2.646,4.713,2.933V278.308z M281.864,262.077
			c-2.581,0.381-4.704,2.174-5.555,4.566l-7.207-2.273l7.216-6.459c1.469,1.418,3.398,2.365,5.545,2.594V262.077z M281.864,241.648
			c-4.754,0.511-8.456,4.538-8.456,9.43c0,1.944,0.586,3.754,1.589,5.259l-8.17,7.314l-6.468-2.038
			c0.121-0.511,0.182-1.044,0.182-1.591c0-1.656-0.578-3.182-1.542-4.381l19.289-17.266c0.986,0.864,2.218,1.453,3.576,1.656
			V241.648z M283.917,240.032c1.359-0.203,2.59-0.792,3.576-1.656l19.289,17.266c-0.965,1.199-1.543,2.725-1.543,4.381
			c0,0.547,0.063,1.08,0.183,1.591l-6.468,2.038l-8.17-7.314c1.002-1.505,1.589-3.314,1.589-5.259c0-4.892-3.7-8.919-8.456-9.43
			V240.032z M289.87,268.673l8.588-2.709l2.9,2.597l-5.415,4.699l-6.396-2.14c0.218-0.674,0.332-1.385,0.332-2.128
			C289.88,268.887,289.876,268.778,289.87,268.673z M300.734,265.245l5.445-1.72c0.108,0.188,0.224,0.368,0.353,0.545l-3.61,3.136
			L300.734,265.245z M283.917,260.505c2.145-0.229,4.075-1.176,5.546-2.594l7.216,6.459l-7.207,2.273
			c-0.851-2.393-2.975-4.186-5.555-4.566V260.505z M283.917,275.911c1.951-0.287,3.639-1.382,4.713-2.933l5.514,1.845l-6.302,5.466
			c-1.039-1.04-2.403-1.755-3.925-1.981V275.911z M289.855,302.345c-1.493-1.691-3.581-2.846-5.939-3.138v-7.067
			c3.373-0.5,5.963-3.406,5.963-6.916c0-1.185-0.294-2.301-0.815-3.276l7.337-6.367l11.157,3.733
			c-0.204,0.774-0.313,1.59-0.313,2.429c0,1.639,0.416,3.179,1.146,4.521L289.855,302.345z M308.298,277.397l-10.095-3.381
			l4.699-4.074l6.478,5.802C308.967,276.255,308.6,276.81,308.298,277.397z M310.849,274.3l-6.384-5.715l3.493-3.029
			c1.178,0.914,2.663,1.457,4.27,1.457c0.443,0,0.881-0.041,1.3-0.12l0.865,5.655C313.082,272.88,311.88,273.482,310.849,274.3z"/>
	</g>
	<g>
		<linearGradient id="SVGID_17_" gradientUnits="userSpaceOnUse" x1="44.2407" y1="41.5439" x2="44.2407" y2="131.7381">
			<stop  offset="0" style="stop-color:#A8A8A8"/>
			<stop  offset="1" style="stop-color:#1F1F1F"/>
		</linearGradient>
		<path fill="url(#SVGID_17_)" d="M38.152,83.077c-1.4,0-2.75-0.183-4.049-0.548c-1.299-0.365-2.512-0.877-3.638-1.537
			c-1.126-0.66-2.152-1.451-3.075-2.375c-0.924-0.923-1.716-1.949-2.375-3.075c-0.66-1.126-1.172-2.339-1.538-3.638
			c-0.366-1.298-0.548-2.649-0.548-4.049s0.183-2.75,0.548-4.049c0.365-1.299,0.877-2.511,1.538-3.638
			c0.659-1.126,1.451-2.151,2.375-3.075c0.923-0.924,1.948-1.715,3.075-2.375c1.126-0.66,2.339-1.172,3.638-1.538
			c1.299-0.366,2.649-0.548,4.049-0.548h27.401v2.74H42.11c-1.624,0-3.146,0.285-4.567,0.853c-1.421,0.568-2.685,1.355-3.791,2.36
			c-1.106,1.004-2.015,2.182-2.725,3.532c-0.711,1.35-1.157,2.806-1.34,4.369h35.865v2.74H29.688
			c0.183,1.563,0.629,3.025,1.34,4.384c0.71,1.36,1.618,2.538,2.725,3.531c1.106,0.995,2.37,1.777,3.791,2.345
			c1.421,0.568,2.943,0.853,4.567,0.853h23.443v2.74H38.152z"/>
		<linearGradient id="SVGID_18_" gradientUnits="userSpaceOnUse" x1="90.9146" y1="41.5439" x2="90.9145" y2="131.7381">
			<stop  offset="0" style="stop-color:#A8A8A8"/>
			<stop  offset="1" style="stop-color:#1F1F1F"/>
		</linearGradient>
		<path fill="url(#SVGID_18_)" d="M72.951,55.675v27.401h-3.349V52.63h9.133l30.142,27.402V52.63h3.349v30.446h-9.134L72.951,55.675
			z"/>
		<linearGradient id="SVGID_19_" gradientUnits="userSpaceOnUse" x1="138.8062" y1="41.5439" x2="138.8062" y2="131.7381">
			<stop  offset="0" style="stop-color:#A8A8A8"/>
			<stop  offset="1" style="stop-color:#1F1F1F"/>
		</linearGradient>
		<path fill="url(#SVGID_19_)" d="M132.716,83.077c-1.4,0-2.75-0.183-4.049-0.548c-1.299-0.365-2.512-0.877-3.638-1.537
			c-1.127-0.66-2.152-1.451-3.075-2.375c-0.924-0.923-1.716-1.949-2.375-3.075c-0.66-1.126-1.172-2.339-1.538-3.638
			c-0.365-1.298-0.548-2.649-0.548-4.049s0.183-2.75,0.548-4.049c0.366-1.299,0.878-2.511,1.538-3.638
			c0.659-1.126,1.45-2.151,2.375-3.075c0.923-0.924,1.948-1.715,3.075-2.375c1.126-0.66,2.339-1.172,3.638-1.538
			c1.299-0.366,2.648-0.548,4.049-0.548h27.402v2.74h-23.443c-1.726,0-3.35,0.325-4.872,0.975c-1.522,0.65-2.847,1.538-3.973,2.664
			c-1.126,1.127-2.015,2.451-2.664,3.974c-0.65,1.522-0.975,3.146-0.975,4.871c0,1.726,0.325,3.349,0.975,4.871
			c0.648,1.522,1.537,2.847,2.664,3.974s2.451,2.015,3.973,2.664c1.522,0.649,3.146,0.974,4.872,0.974h23.443v2.74H132.716z"/>
		<linearGradient id="SVGID_20_" gradientUnits="userSpaceOnUse" x1="183.2871" y1="41.5439" x2="183.2871" y2="131.7381">
			<stop  offset="0" style="stop-color:#A8A8A8"/>
			<stop  offset="1" style="stop-color:#1F1F1F"/>
		</linearGradient>
		<path fill="url(#SVGID_20_)" d="M179.938,68.675L161.975,52.63h8.524l13.518,12.087L198.51,52.63h6.089L186.636,67.61v15.467
			h-6.698V68.675z"/>
		<linearGradient id="SVGID_21_" gradientUnits="userSpaceOnUse" x1="229.1074" y1="41.5439" x2="229.1074" y2="131.7381">
			<stop  offset="0" style="stop-color:#A8A8A8"/>
			<stop  offset="1" style="stop-color:#1F1F1F"/>
		</linearGradient>
		<path fill="url(#SVGID_21_)" d="M223.019,83.077c-1.401,0-2.75-0.183-4.049-0.548c-1.3-0.365-2.513-0.877-3.638-1.537
			c-1.126-0.66-2.152-1.451-3.075-2.375c-0.924-0.923-1.716-1.949-2.375-3.075c-0.66-1.126-1.172-2.339-1.538-3.638
			c-0.366-1.298-0.548-2.649-0.548-4.049s0.183-2.75,0.548-4.049c0.365-1.299,0.877-2.511,1.538-3.638
			c0.659-1.126,1.451-2.151,2.375-3.075c0.923-0.924,1.948-1.715,3.075-2.375c1.125-0.66,2.338-1.172,3.638-1.538
			c1.299-0.366,2.648-0.548,4.049-0.548h27.401v2.74h-23.443c-1.725,0-3.349,0.325-4.871,0.975c-1.522,0.65-2.847,1.538-3.973,2.664
			c-1.127,1.127-2.016,2.451-2.664,3.974c-0.65,1.522-0.974,3.146-0.974,4.871c0,1.726,0.324,3.349,0.974,4.871
			c0.648,1.522,1.537,2.847,2.664,3.974c1.126,1.126,2.451,2.015,3.973,2.664s3.146,0.974,4.871,0.974h23.443v2.74H223.019z"/>
		<linearGradient id="SVGID_22_" gradientUnits="userSpaceOnUse" x1="267.4697" y1="41.5439" x2="267.4697" y2="131.7381">
			<stop  offset="0" style="stop-color:#A8A8A8"/>
			<stop  offset="1" style="stop-color:#1F1F1F"/>
		</linearGradient>
		<path fill="url(#SVGID_22_)" d="M253.769,52.63h6.089v16.593c0.182,1.563,0.664,3.019,1.446,4.369
			c0.781,1.35,1.766,2.527,2.953,3.531c1.188,1.005,2.526,1.792,4.019,2.36c1.492,0.568,3.049,0.853,4.674,0.853h8.22v2.74h-12.178
			c-1.4,0-2.75-0.183-4.049-0.548c-1.299-0.365-2.511-0.877-3.638-1.537c-1.126-0.66-2.151-1.451-3.075-2.375
			c-0.924-0.923-1.716-1.949-2.374-3.075c-0.66-1.126-1.172-2.339-1.539-3.638c-0.364-1.298-0.548-2.649-0.548-4.049V52.63z"/>
		<linearGradient id="SVGID_23_" gradientUnits="userSpaceOnUse" x1="304.8262" y1="41.5439" x2="304.8262" y2="131.7381">
			<stop  offset="0" style="stop-color:#A8A8A8"/>
			<stop  offset="1" style="stop-color:#1F1F1F"/>
		</linearGradient>
		<path fill="url(#SVGID_23_)" d="M298.736,83.077c-1.399,0-2.75-0.183-4.049-0.548c-1.299-0.365-2.512-0.877-3.639-1.537
			c-1.126-0.66-2.15-1.451-3.074-2.375c-0.924-0.923-1.716-1.949-2.375-3.075s-1.172-2.339-1.537-3.638
			c-0.366-1.298-0.549-2.649-0.549-4.049s0.183-2.75,0.549-4.049c0.365-1.299,0.878-2.511,1.537-3.638
			c0.659-1.126,1.451-2.151,2.375-3.075s1.948-1.715,3.074-2.375c1.127-0.66,2.34-1.172,3.639-1.538
			c1.299-0.366,2.649-0.548,4.049-0.548h12.18c2.09,0,4.064,0.401,5.921,1.203c1.857,0.802,3.471,1.888,4.841,3.258
			c1.37,1.37,2.456,2.983,3.259,4.841c0.801,1.857,1.202,3.831,1.202,5.921c0,1.4-0.184,2.751-0.549,4.049
			c-0.365,1.299-0.877,2.512-1.537,3.638c-0.659,1.126-1.451,2.152-2.375,3.075c-0.924,0.924-1.948,1.715-3.074,2.375
			c-1.127,0.66-2.34,1.172-3.639,1.537c-1.3,0.366-2.649,0.548-4.049,0.548H298.736z M290.212,67.854
			c0,1.726,0.325,3.349,0.975,4.871c0.649,1.522,1.537,2.847,2.664,3.974c1.126,1.126,2.45,2.015,3.973,2.664
			s3.146,0.974,4.872,0.974h4.263c1.725,0,3.349-0.325,4.871-0.974s2.847-1.538,3.973-2.664c1.127-1.126,2.015-2.451,2.664-3.974
			c0.649-1.522,0.975-3.146,0.975-4.871c0-1.725-0.325-3.349-0.975-4.871s-1.537-2.847-2.664-3.974
			c-1.126-1.126-2.45-2.014-3.973-2.664c-1.522-0.649-3.146-0.975-4.871-0.975h-4.263c-1.726,0-3.35,0.325-4.872,0.975
			c-1.522,0.65-2.847,1.538-3.973,2.664c-1.127,1.127-2.015,2.451-2.664,3.974S290.212,66.128,290.212,67.854z"/>
		<linearGradient id="SVGID_24_" gradientUnits="userSpaceOnUse" x1="352.6563" y1="41.5439" x2="352.6563" y2="131.7381">
			<stop  offset="0" style="stop-color:#A8A8A8"/>
			<stop  offset="1" style="stop-color:#1F1F1F"/>
		</linearGradient>
		<path fill="url(#SVGID_24_)" d="M331.344,52.63h35.014c1.055,0,2.044,0.224,2.968,0.67c0.924,0.446,1.73,1.04,2.421,1.781
			c0.689,0.741,1.232,1.598,1.629,2.572c0.396,0.974,0.593,1.989,0.593,3.045c0,1.055-0.197,2.096-0.593,3.12
			c-0.396,1.025-0.939,1.938-1.629,2.74c-0.69,0.802-1.497,1.446-2.421,1.933c-0.924,0.487-1.913,0.731-2.968,0.731h-28.924v13.853
			h-6.09V52.63z M362.095,66.483c0.812,0,1.568-0.152,2.269-0.457c0.699-0.304,1.309-0.715,1.826-1.233
			c0.518-0.518,0.929-1.131,1.233-1.842s0.456-1.461,0.456-2.253c0-0.812-0.151-1.542-0.456-2.192
			c-0.305-0.649-0.716-1.208-1.233-1.675c-0.518-0.467-1.127-0.827-1.826-1.081c-0.7-0.253-1.457-0.381-2.269-0.381h-24.661v11.113
			H362.095z"/>
		<linearGradient id="SVGID_25_" gradientUnits="userSpaceOnUse" x1="406.5459" y1="41.5439" x2="406.5459" y2="131.7381">
			<stop  offset="0" style="stop-color:#A8A8A8"/>
			<stop  offset="1" style="stop-color:#1F1F1F"/>
		</linearGradient>
		<path fill="url(#SVGID_25_)" d="M393.759,52.63h6.698l6.059,10.108c0.527-1.462,1.258-2.811,2.191-4.049
			c0.934-1.238,2.024-2.309,3.273-3.212s2.629-1.604,4.141-2.101c1.512-0.497,3.09-0.746,4.734-0.746h16.137v2.74h-12.18
			c-1.623,0-3.146,0.285-4.566,0.853c-1.421,0.568-2.685,1.355-3.79,2.36c-1.107,1.004-2.016,2.182-2.725,3.532
			c-0.711,1.35-1.157,2.806-1.341,4.369h24.602v2.74h-24.602c0.184,1.563,0.63,3.025,1.341,4.384
			c0.709,1.36,1.617,2.538,2.725,3.531c1.105,0.995,2.369,1.777,3.79,2.345c1.421,0.568,2.943,0.853,4.566,0.853h12.18v2.74h-24.966
			l-6.394-10.656h-19.698l-6.182,10.656H376.1L393.759,52.63z M387.518,69.68h16.472l-8.373-13.944L387.518,69.68z"/>
		<linearGradient id="SVGID_26_" gradientUnits="userSpaceOnUse" x1="463.3262" y1="41.5439" x2="463.3262" y2="131.7381">
			<stop  offset="0" style="stop-color:#A8A8A8"/>
			<stop  offset="1" style="stop-color:#1F1F1F"/>
		</linearGradient>
		<path fill="url(#SVGID_26_)" d="M442.015,52.63h27.402c2.09,0,4.064,0.401,5.921,1.203c1.857,0.802,3.472,1.888,4.841,3.258
			c1.371,1.37,2.456,2.983,3.258,4.841c0.802,1.857,1.202,3.831,1.202,5.921c0,1.4-0.182,2.751-0.547,4.049
			c-0.366,1.299-0.878,2.512-1.538,3.638s-1.45,2.152-2.375,3.075c-0.923,0.924-1.947,1.715-3.074,2.375s-2.34,1.172-3.639,1.537
			c-1.3,0.366-2.648,0.548-4.049,0.548h-27.402V52.63z M448.105,55.371v24.966h17.354c1.725,0,3.349-0.325,4.871-0.974
			s2.847-1.538,3.974-2.664c1.126-1.126,2.013-2.451,2.663-3.974c0.649-1.522,0.975-3.146,0.975-4.871
			c0-1.725-0.325-3.349-0.975-4.871c-0.65-1.522-1.537-2.847-2.663-3.974c-1.127-1.126-2.451-2.014-3.974-2.664
			c-1.522-0.649-3.146-0.975-4.871-0.975H448.105z"/>
		<linearGradient id="SVGID_27_" gradientUnits="userSpaceOnUse" x1="492.8906" y1="41.5439" x2="492.8906" y2="131.7381">
			<stop  offset="0" style="stop-color:#A8A8A8"/>
			<stop  offset="1" style="stop-color:#1F1F1F"/>
		</linearGradient>
		<path fill="url(#SVGID_27_)" d="M489.846,52.63h6.09v30.446h-6.09V52.63z"/>
		<linearGradient id="SVGID_28_" gradientUnits="userSpaceOnUse" x1="521.5391" y1="41.5439" x2="521.5391" y2="131.7381">
			<stop  offset="0" style="stop-color:#A8A8A8"/>
			<stop  offset="1" style="stop-color:#1F1F1F"/>
		</linearGradient>
		<path fill="url(#SVGID_28_)" d="M517.886,52.63h6.698l18.268,30.446h-6.698l-6.393-10.656h-19.699l-6.181,10.656h-3.653
			L517.886,52.63z M511.645,69.68h16.471l-8.371-13.944L511.645,69.68z"/>
		<linearGradient id="SVGID_29_" gradientUnits="userSpaceOnUse" x1="44.9111" y1="41.5449" x2="44.9111" y2="131.7377">
			<stop  offset="0" style="stop-color:#A8A8A8"/>
			<stop  offset="1" style="stop-color:#1F1F1F"/>
		</linearGradient>
		<path fill="url(#SVGID_29_)" d="M23.599,98.096h35.012c1.056,0,2.045,0.213,2.969,0.64c0.923,0.426,1.73,1.005,2.42,1.735
			c0.69,0.731,1.233,1.573,1.629,2.528c0.396,0.954,0.594,1.958,0.594,3.014c0,1.036-0.188,1.989-0.563,2.862
			s-0.894,1.634-1.553,2.284c-0.66,0.65-1.436,1.162-2.329,1.537c-0.893,0.377-1.847,0.584-2.862,0.625
			c1.015,0.042,1.969,0.249,2.862,0.625c0.893,0.375,1.669,0.888,2.329,1.537c0.659,0.65,1.177,1.411,1.553,2.284
			s0.563,1.826,0.563,2.863c0,1.055-0.198,2.059-0.594,3.014c-0.396,0.955-0.939,1.797-1.629,2.526
			c-0.69,0.731-1.497,1.309-2.42,1.736c-0.924,0.425-1.913,0.639-2.969,0.639H23.599V98.096z M29.688,100.836v10.961h24.661
			c0.812,0,1.568-0.153,2.268-0.458c0.701-0.304,1.31-0.714,1.827-1.233c0.518-0.517,0.929-1.132,1.233-1.842
			c0.305-0.709,0.457-1.461,0.457-2.252c0-0.812-0.152-1.538-0.457-2.177c-0.304-0.639-0.715-1.183-1.233-1.628
			c-0.517-0.447-1.126-0.788-1.827-1.021c-0.7-0.233-1.457-0.35-2.268-0.35H29.688z M29.688,114.842v10.96h24.661
			c0.812,0,1.568-0.116,2.268-0.35c0.701-0.233,1.31-0.573,1.827-1.02c0.518-0.446,0.929-0.989,1.233-1.629
			c0.305-0.64,0.457-1.364,0.457-2.176c0-0.792-0.152-1.543-0.457-2.253c-0.304-0.71-0.715-1.324-1.233-1.842
			c-0.517-0.518-1.126-0.928-1.827-1.233c-0.7-0.304-1.457-0.457-2.268-0.457H29.688z"/>
		<linearGradient id="SVGID_30_" gradientUnits="userSpaceOnUse" x1="92.4673" y1="41.5449" x2="92.4673" y2="131.7377">
			<stop  offset="0" style="stop-color:#A8A8A8"/>
			<stop  offset="1" style="stop-color:#1F1F1F"/>
		</linearGradient>
		<path fill="url(#SVGID_30_)" d="M86.378,128.542c-1.4,0-2.75-0.183-4.049-0.547c-1.299-0.367-2.512-0.879-3.638-1.538
			c-1.126-0.659-2.152-1.451-3.075-2.375c-0.924-0.923-1.716-1.949-2.375-3.076c-0.66-1.126-1.172-2.339-1.538-3.638
			c-0.366-1.299-0.548-2.649-0.548-4.049c0-1.4,0.183-2.75,0.548-4.049c0.365-1.299,0.877-2.512,1.538-3.638
			c0.659-1.127,1.451-2.151,2.375-3.075c0.923-0.924,1.948-1.716,3.075-2.375c1.126-0.66,2.339-1.172,3.638-1.539
			c1.299-0.364,2.649-0.547,4.049-0.547h27.401v2.74H90.336c-1.624,0-3.146,0.284-4.567,0.852c-1.421,0.569-2.685,1.354-3.791,2.36
			c-1.106,1.005-2.015,2.182-2.725,3.532c-0.711,1.351-1.157,2.806-1.34,4.369h35.865v2.739H77.914
			c0.183,1.563,0.629,3.025,1.34,4.386c0.71,1.359,1.618,2.537,2.725,3.531c1.106,0.995,2.37,1.776,3.791,2.344
			c1.421,0.569,2.943,0.853,4.567,0.853h23.443v2.74H86.378z"/>
		<linearGradient id="SVGID_31_" gradientUnits="userSpaceOnUse" x1="131.0117" y1="41.5449" x2="131.0117" y2="131.7377">
			<stop  offset="0" style="stop-color:#A8A8A8"/>
			<stop  offset="1" style="stop-color:#1F1F1F"/>
		</linearGradient>
		<path fill="url(#SVGID_31_)" d="M117.311,98.096h6.089v16.592c0.183,1.563,0.665,3.02,1.446,4.369
			c0.781,1.351,1.766,2.527,2.953,3.532c1.188,1.005,2.527,1.792,4.019,2.359c1.492,0.569,3.049,0.853,4.673,0.853h8.221v2.74
			h-12.179c-1.4,0-2.75-0.183-4.049-0.547c-1.299-0.367-2.512-0.879-3.638-1.538c-1.126-0.659-2.151-1.451-3.075-2.375
			c-0.924-0.923-1.715-1.949-2.375-3.076c-0.66-1.126-1.172-2.339-1.538-3.638c-0.365-1.299-0.548-2.649-0.548-4.049V98.096z"/>
		<linearGradient id="SVGID_32_" gradientUnits="userSpaceOnUse" x1="168.7036" y1="41.5449" x2="168.7036" y2="131.7377">
			<stop  offset="0" style="stop-color:#A8A8A8"/>
			<stop  offset="1" style="stop-color:#1F1F1F"/>
		</linearGradient>
		<path fill="url(#SVGID_32_)" d="M190.016,113.319c0,1.4-0.183,2.75-0.548,4.049c-0.365,1.299-0.878,2.512-1.538,3.638
			c-0.66,1.127-1.452,2.152-2.375,3.076c-0.924,0.924-1.949,1.716-3.075,2.375c-1.127,0.659-2.34,1.171-3.638,1.538
			c-1.299,0.364-2.649,0.547-4.05,0.547h-27.401v-15.223c0-1.4,0.183-2.75,0.548-4.049c0.366-1.299,0.878-2.512,1.537-3.638
			c0.66-1.127,1.451-2.151,2.375-3.075c0.924-0.924,1.949-1.716,3.075-2.375c1.126-0.66,2.339-1.172,3.639-1.539
			c1.298-0.364,2.648-0.547,4.049-0.547h27.401v2.74h-23.443c-1.725,0-3.349,0.325-4.872,0.974c-1.522,0.65-2.847,1.539-3.973,2.665
			c-1.126,1.126-2.015,2.451-2.665,3.973c-0.65,1.522-0.974,3.146-0.974,4.871v12.483h16.746c1.603,0,3.125-0.283,4.567-0.853
			c1.44-0.568,2.72-1.354,3.836-2.359c1.116-1.005,2.029-2.182,2.74-3.532c0.71-1.349,1.157-2.806,1.34-4.369h-20.703v-2.739h27.401
			V113.319z"/>
		<linearGradient id="SVGID_33_" gradientUnits="userSpaceOnUse" x1="197.7183" y1="41.5449" x2="197.7183" y2="131.7377">
			<stop  offset="0" style="stop-color:#A8A8A8"/>
			<stop  offset="1" style="stop-color:#1F1F1F"/>
		</linearGradient>
		<path fill="url(#SVGID_33_)" d="M194.674,98.096h6.089v30.446h-6.089V98.096z"/>
		<linearGradient id="SVGID_34_" gradientUnits="userSpaceOnUse" x1="227.4331" y1="41.5449" x2="227.4331" y2="131.7377">
			<stop  offset="0" style="stop-color:#A8A8A8"/>
			<stop  offset="1" style="stop-color:#1F1F1F"/>
		</linearGradient>
		<path fill="url(#SVGID_34_)" d="M221.344,128.542c-1.401,0-2.75-0.183-4.049-0.547c-1.3-0.367-2.512-0.879-3.638-1.538
			c-1.126-0.659-2.152-1.451-3.075-2.375c-0.924-0.923-1.716-1.949-2.375-3.076c-0.66-1.126-1.172-2.339-1.538-3.638
			c-0.366-1.299-0.548-2.649-0.548-4.049c0-1.4,0.183-2.75,0.548-4.049c0.365-1.299,0.877-2.512,1.538-3.638
			c0.659-1.127,1.451-2.151,2.375-3.075c0.923-0.924,1.948-1.716,3.075-2.375c1.126-0.66,2.338-1.172,3.638-1.539
			c1.299-0.364,2.648-0.547,4.049-0.547h27.401v2.74h-23.443c-1.725,0-3.349,0.325-4.871,0.974c-1.522,0.65-2.847,1.539-3.973,2.665
			c-1.127,1.126-2.015,2.451-2.664,3.973c-0.65,1.522-0.975,3.146-0.975,4.871c0,1.726,0.325,3.35,0.975,4.872
			c0.649,1.522,1.537,2.848,2.664,3.973c1.126,1.126,2.451,2.015,3.973,2.665s3.146,0.974,4.871,0.974h23.443v2.74H221.344z"/>
		<linearGradient id="SVGID_35_" gradientUnits="userSpaceOnUse" x1="272.188" y1="41.5449" x2="272.188" y2="131.7377">
			<stop  offset="0" style="stop-color:#A8A8A8"/>
			<stop  offset="1" style="stop-color:#1F1F1F"/>
		</linearGradient>
		<path fill="url(#SVGID_35_)" d="M268.536,98.096h6.697l18.267,30.446h-6.697l-6.394-10.656H260.71l-6.181,10.656h-3.652
			L268.536,98.096z M262.294,115.146h16.471l-8.373-13.945L262.294,115.146z"/>
	</g>
</g>
<g>
	<rect x="315.886" y="378.885" fill="#ED1C24" width="65.992" height="9.273"/>
	<rect x="249.894" y="378.885" fill="#FFF200" width="65.992" height="9.273"/>
	<rect x="183.902" y="378.885" width="65.992" height="9.273"/>
</g>
</svg>
